/* XPM */
static char *result[] = {
/* columns rows colors chars-per-pixel */
"64 64 20 1 ",
"  c black",
". c #13191B",
"X c #0A112B",
"o c #19323E",
"O c #401A22",
"+ c #5A2F3D",
"@ c #343D5F",
"# c #075652",
"$ c #017E4B",
"% c #90352F",
"& c #C3502A",
"* c #A24C57",
"= c #D56A62",
"- c #FFAF6D",
"; c #FFEF7D",
": c #65709C",
"> c #FFC3A1",
", c #A3A8C4",
"< c #FFDBDB",
"1 c None",
/* pixels */
"1111111111111111111111111111111111111111111111111111111111111111",
"1111111111111111111111111111111111111111111111111111111111111111",
"1111111111111111111111111111111111111111111111111111111111111111",
"1111111111111111111111111111111111111111111111111111111111111111",
"1111111111111111111111111111111111111111111111111111111111111111",
"1111111111111111111111111111111111111111111111111111111111111111",
"1111111111111111111111111111111111111111111111111111111111111111",
"1111111111111111111111111111111111111111111111111111111111111111",
"1111111111111111111111111111111111111111111111111111111111111111",
"1111111111111111111111111111111111111111111111111111111111111111",
"1111111111111111111111111111111111111111111111111111111111111111",
"1111111111111111111111111111111111111111111111111111111111111111",
"1111111111111111111111111111111111111111111111111111111111111111",
"1111111111111111111111111111111111111111111111111111111111111111",
"1111111111111111111111111111111111111111111111111111111111111111",
"1111111111111111111111111111111111111111111111111111111111111111",
"1111111111111111111111111111111111111111111111111111111111111111",
"1111111111111111111111111111111111111111111111111111111111111111",
"1111111111111111111111111111111111111111111111111111111111111111",
"11111111111111111111111111111      11111111111111111111111111111",
"111111111111111111111111111  ;;;;--   11111111111111111111111111",
"1111111111111111111111111  ;;----;;-;; 1111111111111111111111111",
"111111111111111111111111 ;---------;--; 111111111111111111111111",
"1111111111111111111111  --=---------;-; 111111111111111111111111",
"111111111111111111111 -    *===-----;   111111111111111111111111",
"11111111111111111111 ; ;---   *===   >> 111111111111111111111111",
"11111111111111111111 - ;----;;  * >>>@@@ 11111111111111111111111",
"1111111111111111111    ;------;; >>  @>> 11111111111111111111111",
"1111111111111111111 XX -------- >> =-  > 11111111111111111111111",
"1111111111111111111 X  =---=--- >>   -; > 1111111111111111111111",
"1111111111111111111  = =---*-- >>>@>@ -;  1111111111111111111111",
"111111111111111111 ;=* ==---== >>@> >@  = 1111111111111111111111",
"111111111111111111 -=  *==--=* =>@> >@>>= 1111111111111111111111",
"1111111111111111111  11 *==-* = >>@>@>>>= 1111111111111111111111",
"111111111111111111111111 **= =- =>>>      1111111111111111111111",
"1111111111111111111111111 =* ==- =  -----; 111111111111111111111",
"11111111111111111111111111  *=*=- ----   ; 111111111111111111111",
"1111111111111111111111111 >> *=------ << ; 111111111111111111111",
"111111111111111111111111 >>> *==-----    ; 111111111111111111111",
"111111111111111111111111 >>>= *===-------; 111111111111111111111",
"11111111111111111111111 >>>>>= *=*-------; 111111111111111111111",
"1111111111111111111111 >>=>>>= ** =------- 111111111111111111111",
"1111111111111111111111 >=*=>>>= * *-=----- 111111111111111111111",
"111111111111111111111 >>= =>>> O  *= =---- 111111111111111111111",
"111111111111111111111 >>* *>>> OOO * ==-- 1111111111111111111111",
"111111111111111111111 >>* *=>> OOO   *=-= 1111111111111111111111",
"111111111111111111111   ** =>> O  OOO *= 11111111111111111111111",
"11111111111111111111 &%%   *=>> 1 OO 1  111111111111111111111111",
"11111111111111111111 &%%%% *==>> OOO 111111111111111111111111111",
"11111111111111111111    %%%  *== OOO 111111111111111111111111111",
"11111111111111111111 $#o   oo     O 1111111111111111111111111111",
"11111111111111111111 $#ooooooo### O 1111111111111111111111111111",
"11111111111111111111 $#ooooo..ooo#  1111111111111111111111111111",
"11111111111111111111 #ooooo...oooo# 1111111111111111111111111111",
"1111111111111111111 $#ooo......oooo# 111111111111111111111111111",
"1111111111111111111 $#oo..   ....oo# 111111111111111111111111111",
"1111111111111111111 $#o.. 111   ..oo 111111111111111111111111111",
"1111111111111111111 $#.. 1111111 ..o 111111111111111111111111111",
"111111111111111111 +  . 11111111   o 111111111111111111111111111",
"111111111111111111 +++ 111111111 ++ 1111111111111111111111111111",
"111111111111111111 +++ 11111111 +++ 1111111111111111111111111111",
"111111111111111111 ++ 11111     ++ 11111111111111111111111111111",
"111111111                  @@@@:   11111111111111111111111111111",
"111111111 %%%%%%% ,,,,,,,,,,,,,,, 111111111111111111111111111111"
};
