/* XPM */
static char *result[] = {
/* columns rows colors chars-per-pixel */
"64 64 19 1 ",
"  c black",
". c #13191B",
"X c #0A112B",
"o c #19323E",
"O c #401A22",
"+ c #343D5F",
"@ c #075652",
"# c #017E4B",
"$ c #90352F",
"% c #C3502A",
"& c #A24C57",
"* c #D56A62",
"= c #FFAF6D",
"- c #FFEF7D",
"; c #65709C",
": c #FFC3A1",
"> c #A3A8C4",
", c #FFDBDB",
"< c None",
/* pixels */
"<<<<<<<<<<<<<<<<<<<<<<<<<<<<<<<<<<<<<<<<<<<<<<<<<<<<<<<<<<<<<<<<",
"<<<<<<<<<<<<<<<<<<<<<<<<<<<<<<<<<<<<<<<<<<<<<<<<<<<<<<<<<<<<<<<<",
"<<<<<<<<<<<<<<<<<<<<<<<<<<<<<<<<<<<<<<<<<<<<<<<<<<<<<<<<<<<<<<<<",
"<<<<<<<<<<<<<<<<<<<<<<<<<<<<<<<<<<<<<<<<<<<<<<<<<<<<<<<<<<<<<<<<",
"<<<<<<<<<<<<<<<<<<<<<<<<<<<<<<<<<<<<<<<<<<<<<<<<<<<<<<<<<<<<<<<<",
"<<<<<<<<<<<<<<<<<<<<<<<<<<<<<<<<<<<<<<<<<<<<<<<<<<<<<<<<<<<<<<<<",
"<<<<<<<<<<<<<<<<<<<<<<<<<<<<<<<<<<<<<<<<<<<<<<<<<<<<<<<<<<<<<<<<",
"<<<<<<<<<<<<<<<<<<<<<<<<<<<<<<<<<<<<<<<<<<<<<<<<<<<<<<<<<<<<<<<<",
"<<<<<<<<<<<<<<<<<<<<<<<<<<<<<<<<<<<<<<<<<<<<<<<<<<<<<<<<<<<<<<<<",
"<<<<<<<<<<<<<<<<<<<<<<<<<<<<<<<<<<<<<<<<<<<<<<<<<<<<<<<<<<<<<<<<",
"<<<<<<<<<<<<<<<<<<<<<<<<<<<<<<<<<<<<<<<<<<<<<<<<<<<<<<<<<<<<<<<<",
"<<<<<<<<<<<<<<<<<<<<<<<<<<<<<<<<<<<<<<<<<<<<<<<<<<<<<<<<<<<<<<<<",
"<<<<<<<<<<<<<<<<<<<<<<<<<<<<<<<<<<<<<<<<<<<<<<<<<<<<<<<<<<<<<<<<",
"<<<<<<<<<<<<<<<<<<<<<<<<<<<<<<<<<<<<<<<<<<<<<<<<<<<<<<<<<<<<<<<<",
"<<<<<<<<<<<<<<<<<<<<<<<<<<<<<<<<<<<<<<<<<<<<<<<<<<<<<<<<<<<<<<<<",
"<<<<<<<<<<<<<<<<<<<<<<<<<<<<<<<<<<<<<<<<<<<<<<<<<<<<<<<<<<<<<<<<",
"<<<<<<<<<<<<<<<<<<<<<<<<<<<<<<<<<<<<<<<<<<<<<<<<<<<<<<<<<<<<<<<<",
"<<<<<<<<<<<<<<<<<<<<<<<<<<<<<<<<<<<<<<<<<<<<<<<<<<<<<<<<<<<<<<<<",
"<<<<<<<<<<<<<<<<<<<<<<<<<<<<<<<<<<<<<<<<<<<<<<<<<<<<<<<<<<<<<<<<",
"<<<<<<<<<<<<<<<<<<<<<<<<<<<<<<<<<<<<<<<<<<<<<<<<<<<<<<<<<<<<<<<<",
"<<<<<<<<<<<<<<<<<<<<<<<<<<<<<<<<<<<<<<<<<<<<<<<<<<<<<<<<<<<<<<<<",
"<<<<<<<<<<<<<<<<<<<<<<<<<<<<<<<<<<<<<<<<<<<<<<<<<<<<<<<<<<<<<<<<",
"<<<<<<<<<<<<<<<<<<<<<<<<<<<<<<<<<<<<<<<<<<<<<<<<<<<<<<<<<<<<<<<<",
"<<<<<<<<<<<<<<<<<<<<<<<<<<<<<<      <<<<<<<<<<<<<<<<<<<<<<<<<<<<",
"<<<<<<<<<<<<<<<<<<<<<<<<<<<<  ----==   <<<<<<<<<<<<<<<<<<<<<<<<<",
"<<<<<<<<<<<<<<<<<<<<<<<<<<  --====--=-- <<<<<<<<<<<<<<<<<<<<<<<<",
"<<<<<<<<<<<<<<<<<<<<<<<<< -=========-==- <<<<<<<<<<<<<<<<<<<<<<<",
"<<<<<<<<<<<<<<<<<<<<<<<  ==*=========-=- <<<<<<<<<<<<<<<<<<<<<<<",
"<<<<<<<<<<<<<<<<<<<<<< =    &***=====-   <<<<<<<<<<<<<<<<<<<<<<<",
"<<<<<<<<<<<<<<<<<<<<< - -===   &***   :: <<<<<<<<<<<<<<<<<<<<<<<",
"<<<<<<<<<<<<<<<<<<<<< = -====--  & :::+++ <<<<<<<<<<<<<<<<<<<<<<",
"<<<<<<<<<<<<<<<<<<<<    -======-- ::  +:: <<<<<<<<<<<<<<<<<<<<<<",
"<<<<<<<<<<<<<<<<<<<< XX ======== :: *=  : <<<<<<<<<<<<<<<<<<<<<<",
"<<<<<<<<<<<<<<<<<<<< X  *===*=== ::   =- : <<<<<<<<<<<<<<<<<<<<<",
"<<<<<<<<<<<<<<<<<<<<  * *===&== :::+:+ =-  <<<<<<<<<<<<<<<<<<<<<",
"<<<<<<<<<<<<<<<<<<< -*& **===** ::+: :+  * <<<<<<<<<<<<<<<<<<<<<",
"<<<<<<<<<<<<<<<<<<< =*  &**==*& *:+: :+::* <<<<<<<<<<<<<<<<<<<<<",
"<<<<<<<<<<<<<<<<<<<<  << &**=& * ::+:+:::* <<<<<<<<<<<<<<<<<<<<<",
"<<<<<<<<<<<<<<<<<<<<<<<<< &&* *= *:::      <<<<<<<<<<<<<<<<<<<<<",
"<<<<<<<<<<<<<<<<<<<<<<<<<< *& **= *  =====- <<<<<<<<<<<<<<<<<<<<",
"<<<<<<<<<<<<<<<<<<<<<<<<<<<  &*&*= ====  =- <<<<<<<<<<<<<<<<<<<<",
"<<<<<<<<<<<<<<<<<<<<<<<<<< :: &*====== ,, - <<<<<<<<<<<<<<<<<<<<",
"<<<<<<<<<<<<<<<<<<<<<<<<< ::: &**===== OO - <<<<<<<<<<<<<<<<<<<<",
"<<<<<<<<<<<<<<<<<<<<<<<<< :::* &***====  =- <<<<<<<<<<<<<<<<<<<<",
"<<<<<<<<<<<<<<<<<<<<<<<< :::::* &*&=======- <<<<<<<<<<<<<<<<<<<<",
"<<<<<<<<<<<<<<<<<<<<<<< ::*:::* && *======= <<<<<<<<<<<<<<<<<<<<",
"<<<<<<<<<<<<<<<<<<<<<<< :*&*:::* & &=*===== <<<<<<<<<<<<<<<<<<<<",
"<<<<<<<<<<<<<<<<<<<<<< ::* *::: O  &* *==== <<<<<<<<<<<<<<<<<<<<",
"<<<<<<<<<<<<<<<<<<<<<< ::& &::: OOO & **== <<<<<<<<<<<<<<<<<<<<<",
"<<<<<<<<<<<<<<<<<<<<<< ::& &*:: OOO   &*=* <<<<<<<<<<<<<<<<<<<<<",
"<<<<<<<<<<<<<<<<<<<<<<   && *:: O  OOO &* <<<<<<<<<<<<<<<<<<<<<<",
"<<<<<<<<<<<<<<<<<<<<< %$$   &*:: < OO <  <<<<<<<<<<<<<<<<<<<<<<<",
"<<<<<<<<<<<<<<<<<<<<< %$$$$ &**:: OOO <<<<<<<<<<<<<<<<<<<<<<<<<<",
"<<<<<<<<<<<<<<<<<<<<<    $$$  &** OOO <<<<<<<<<<<<<<<<<<<<<<<<<<",
"<<<<<<<<<<<<<<<<<<<<< #@o   oo     O <<<<<<<<<<<<<<<<<<<<<<<<<<<",
"<<<<<<<<<<<<<<<<<<<<< #@ooooooo@@@ O <<<<<<<<<<<<<<<<<<<<<<<<<<<",
"<<<<<<<<<<<<<<<<<<<<< #@ooooo.oooo@  <<<<<<<<<<<<<<<<<<<<<<<<<<<",
"<<<<<<<<<<<<<<<<<<<<< @ooooo..oooo@  <<<<<<<<<<<<<<<<<<<<<<<<<<<",
"<<<<<<<<<<<<<<<<<<<< #@ooo.....oooo@ <<<<<<<<<<<<<<<<<<<<<<<<<<<",
"<<<<<<<<<<<<<<<<<<<< #@oo..   ..ooo@ <<<<<<<<<<<<<<<<<<<<<<<<<<<",
"<<<<<<<<<<<<<<<<<<<< #@o.. <<< ..oo@ <<<<<<<<<<<<<<<<<<<<<<<<<<<",
"<<<<<<<<<<<<<<<<<<<< #@.. <<     .oo@ <<<<<<<<<<<<<<<<<<<<<<<<<<",
"<<<<<<<<<<                  ++++; oo@ <<<<<<<<<<<<<<<<<<<<<<<<<<",
"<<<<<<<<<< $$$$$$$ >>>>>>>>>>>>>>> o@ <<<<<<<<<<<<<<<<<<<<<<<<<<"
};
