/* XPM */
static char *result[] = {
/* columns rows colors chars-per-pixel */
"64 64 203 2 ",
"   c #0D0A0A",
".  c #120B0C",
"X  c #1C0C0D",
"o  c #100F11",
"O  c #1B0F10",
"+  c #131213",
"@  c #1C1214",
"#  c #1B1619",
"$  c #141A1E",
"%  c #1A1A1C",
"&  c #151619",
"*  c #2B0C0E",
"=  c #210D0F",
"-  c #330A0F",
";  c #240F11",
":  c #2B0E12",
">  c #340C10",
",  c #221215",
"<  c #2D1116",
"1  c #251619",
"2  c #2D1519",
"3  c #231A1D",
"4  c #2A1A1E",
"5  c #32171B",
"6  c #33191D",
"7  c #351517",
"8  c #1A1D21",
"9  c #251D21",
"0  c #2C1E22",
"q  c #331D23",
"w  c #3D1F26",
"e  c #1D2025",
"r  c #1A2529",
"t  c #1E292D",
"y  c #1B2A30",
"u  c #242227",
"i  c #2B2125",
"p  c #24252A",
"a  c #2B2429",
"s  c #25282E",
"d  c #2B292E",
"f  c #342125",
"g  c #34252B",
"h  c #3B252C",
"j  c #35292E",
"k  c #392C2D",
"l  c #262C32",
"z  c #2B2C32",
"x  c #2A2E38",
"c  c #342C32",
"v  c #3A2B32",
"b  c #3A2E38",
"n  c #243137",
"m  c #2C3137",
"M  c #243239",
"N  c #2C343C",
"B  c #2D383E",
"V  c #34353C",
"C  c #3C333B",
"Z  c #32383F",
"A  c #37343B",
"S  c #4B321C",
"D  c #41222B",
"F  c #43282F",
"G  c #492625",
"H  c #432B34",
"J  c #492E38",
"K  c #42333C",
"L  c #4C343D",
"P  c #493735",
"I  c #543437",
"U  c #584529",
"Y  c #4C463C",
"T  c #6E4137",
"R  c #7D4A3A",
"E  c #2C3B43",
"W  c #2D3F48",
"Q  c #273741",
"!  c #333B43",
"~  c #3B3A43",
"^  c #3D3F49",
"/  c #333F48",
"(  c #4C3741",
")  c #443D45",
"_  c #4B3C45",
"`  c #443F49",
"'  c #4B3F49",
"]  c #513D45",
"[  c #513F4A",
"{  c #503741",
"}  c #2F424B",
"|  c #2D4047",
" . c #34424B",
".. c #3B434C",
"X. c #364142",
"o. c #2D4954",
"O. c #344651",
"+. c #3B4750",
"@. c #344A54",
"#. c #3C4A54",
"$. c #3D4E59",
"%. c #3B525D",
"&. c #375059",
"*. c #3E5661",
"=. c #3D5B68",
"-. c #3A5663",
";. c #43424B",
":. c #4D414B",
">. c #53434C",
",. c #5A464C",
"<. c #5D494D",
"1. c #434751",
"2. c #4C4652",
"3. c #434A54",
"4. c #4B4853",
"5. c #424F59",
"6. c #4C4E5A",
"7. c #554652",
"8. c #544954",
"9. c #554E59",
"0. c #43525D",
"q. c #4D535F",
"w. c #56515D",
"e. c #59535F",
"r. c #45564C",
"t. c #654E4E",
"y. c #6B4943",
"u. c #67514F",
"i. c #6F524F",
"p. c #7B574E",
"a. c #735650",
"s. c #755851",
"d. c #7C5C52",
"f. c #58694B",
"g. c #72634D",
"h. c #6E6B53",
"j. c #455661",
"k. c #4D5662",
"l. c #425A65",
"z. c #4C5965",
"x. c #4B5E6A",
"c. c #435E6A",
"v. c #505661",
"b. c #585461",
"n. c #535966",
"m. c #5A5965",
"M. c #545D6A",
"N. c #5B5D6B",
"B. c #615A64",
"V. c #4A626F",
"C. c #43606C",
"Z. c #55626F",
"A. c #4C6673",
"S. c #4B6875",
"D. c #4D6D7B",
"F. c #466472",
"G. c #5D6473",
"H. c #526A77",
"J. c #596877",
"K. c #506C7A",
"L. c #5C6B7A",
"P. c #576472",
"I. c #4F717F",
"U. c #756A6A",
"Y. c #636876",
"T. c #636876",
"R. c #767573",
"E. c #6A636A",
"W. c #813D1C",
"Q. c #835E53",
"!. c #8D6655",
"~. c #8A6555",
"^. c #946A56",
"/. c #9D6F58",
"(. c #966A56",
"). c #9E7058",
"_. c #AC7455",
"`. c #A87559",
"'. c #B67D5A",
"]. c #866E66",
"[. c #886F65",
"{. c #87726D",
"}. c #987765",
"|. c #99796A",
" X c #887872",
".X c #ACAA26",
"XX c #9C8171",
"oX c #B68B6F",
"OX c #A58875",
"+X c #C39371",
"@X c #C28C67",
"#X c #4F7280",
"$X c #537685",
"%X c #5A7786",
"&X c #5A7D8D",
"*X c #557A89",
"=X c #6F7986",
"-X c #5D8596",
";X c #618798",
":X c #6A92A3",
">X c #828589",
",X c #AA9384",
"<X c None",
/* pixels */
"<X<X<X<X<X<X<X<X<X<X<X<X<X<X<X<X<X<X<X<X<X<X<X<X<X<X<X<X<X<X<X<X<X<X<X<X<X<X<X<X<X<X<X<X<X<X<X<X<X<X<X<X<X<X<X<X<X<X<X<X<X<X<X<X",
"<X<X<X<X<X<X<X<X<X<X<X<X<X<X<X<X<X<X<X<X<X<X<X<X<X<X<X<X<X<X<X<X<X<X<X<X<X<X<X<X<X<X<X<X<X<X<X<X<X<X<X<X<X<X<X<X<X<X<X<X<X<X<X<X",
"<X<X<X<X<X<X<X<X<X<X<X<X<X<X<X<X<X<X<X<X<X<X<X<X<X<X<X<X<X<X<X<X<X<X<X<X<X<X<X<X<X<X<X<X<X<X<X<X<X<X<X<X<X<X<X<X<X<X<X<X<X<X<X<X",
"<X<X<X<X<X<X<X<X<X<X<X<X<X<X<X<X<X<X<X<X<X<X<X<X<X<X<X<X<X<X<X<X<X<X<X<X<X<X<X<X<X<X<X<X<X<X<X  <X<X<X<X<X<X<X<X<X<X<X<X<X<X<X<X",
"<X<X<X<X<X<X<X<X<X<X<X<X<X<X<X<X<X<X<X<X<X<X<X<X<X<X<X<X<X<X<X<X<X<X<X<X<X<X<X<X<X<X<X<X<X<Xo   <X<X<X<X<X<X<X<X<X<X<X<X<X<X<X<X",
"<X<X<X<X<X<X<X<X<X<X<X<X<X<X<X<X<X<X<X<X<X<X<X<X<X<X<X<X<X<X<X<X<X<X<X<X<X<X<X<X<X<X<X<X<X<X$ $ <X<X<X<X<X<X<X<X<X<X<X<X<X<X<X<X",
"<X<X<X<X<X<X<X<X<X<X<X<X<X<X<X<X<X<X<X<X<X<X<X<X<X<X<X<X<X<X<X<X<X<X<X<X<X<X<X<X<X<X<X<X<X<Xo.$ <X<X<X<X<X<X<X<X<X<X<X<X<X<X<X<X",
"<X<X<X<X<X<X<X<X<X<X<X<X<X<X<X<X<X<X<X<X<X<X<X<X<X<X<X<X<X<X8 W r <X<X<X<X<X<X<X<X<X<X<X<Xy -.$ <X<X<X<X<X<X<X<X<X<X<X<X<X<X<X<X",
"<X<X<X<X<X<X<X<X<X<X<X<X<X<X<X<X<X<X<X<X<X<X<X<X<X<X<X<X<X<Xr @.t <X<X<X<X<X<X<X<X<X<X<X+ @.o.$ <X<X<X<X<X<X<X<X<X<X<X<X<X<X<X<X",
"<X<X<X<X<X<X<X<X<X<X<X<X<X<X<X<X<X<X<X<X<X<X<X<X<X<X<X<X<X<X+ E & <X<X<X<X<X<X<X<X<X<X<X+ =.o.8 <X<X<X<X<X<X<X<X<X<X<X<X<X<X<X<X",
"<X<X<X<X<X<X<X<X<X<X<X<X<X<X<X<X<X<X<X<X<X<X<X<X<X<X<X<X<X<X+ B + <X<X<X<X<X<X<X<X<X<X<X<Xy n + <X<X<X<X<X<X<X<X<X<X<X<X<X<X<X<X",
"<X<X<X<X<X<X<X<X<X<X<X<X<X<X<X<X<X<X<X<X<X<X<X<X<X<X<X<X% M @.M @.N 8 <X<X<X<X<X<X<X<X<X<X$ + <X<X<X<X<X<X<X<X<X<X<X<X<X<X<X<X<X",
"<X<X<X<X<X<X<X<X<X<X<X<X<X<X<X<X<X<X<X<X<X<X<X<X<X<X<X# } =.D.$X#X=.O.8 <X<X<X<X<X<X<X<X<X$ o <X<X<X<X<X<X<X<X<X<X<X<X<X<X<X<X<X",
"<X<X<X<X<X<X<X<X<X<X<X<X<X<X<X<X<X<X<X<X<X<X<X<X<X<X<Xs %.F.$X-X*XS.-.N <X<X<X<X<X<X<X<X+ y + <X<X<X<X<X<X<X<X<X<X<X<X<X<X<X<X<X",
"<X<X<X<X<X<X<X<X<X<X<X<X<X<X<X<X<X<X<X<X<X<X<X<X<X<X<XN o.%.*X;X&X-.O.W # <X<X<X<X<X<X<X  r <X<X<X<X<X<X<X<X<X<X<X<X<X<X<X<X<X<X",
"<X<X<X<X<X<X<X<X<X<X<X<X<X<X<X<X<X<X<X<X<X<X<X<X<X<X# W | } @.&.&.} / | 8 <X<X<X<X<X<X<X+ r <X<X<X<X<X<X<X<X<X<X<X<X<X<X<X<X<X<X",
"<X<X<X<X<X<X<X<X<X<X<X<X<X<X<X<X<X<X<X<X<X<X<X<X<X<X@ l E E B } E E X.B + <X<X<X<X<X<X<Xo r <X<X<X<X<X<X<X<X<X<X<X<X<X<X<X<X<X<X",
"<X<X<X<X<X<X<X<X<X<X<X<X<X<X<X<X<X<X<X<X<X<X<X<X<X<X@ M f..Xr.I.@..Xh.E @ <X<X<X<X<X<X<X& r <X<X<X<X<X<X<X<X<X<X<X<X<X<X<X<X<X<X",
"<X<X<X<X<X<X<X<X<X<X<X<X<X<X<X<X<X<X<X<X<X<X<X<X<X<XO n S.S.S.:XS.S.S.| + <X<X<X<X<X<X<XM + <X<X<X<X<X<X<X<X<X<X<X<X<X<X<X<X<X<X",
"<X<X<X<X<X<X<X<X<X<X<X<X<X<X<X<X<X<X<X<X<X<X<X<X<X<X<Xu @.C.l.0.=.C.&.l <X<X<X<X<X<X<X<XM   <X<X<X<X<X<X<X<X<X<X<X<X<X<X<X<X<X<X",
"<X<X<X<X<X<X<X<X<X<X<X<X<X<X<X<X<X<X<X<X<X<X<X<X<X<X, p | A.C. .l.D.| t % <X<X<X<X<X<X<Xn   <X<X<X<X<X<X<X<X<X<X<X<X<X<X<X<X<X<X",
"<X<X<X<X<X<X<X<X<X<X<X<X<X<X<X<X<X<X<X<X<X<X<X<X<X<X, a z S.K.-XD.I.n t # <X<X<X<X<X<X% Q   <X<X<X<X<X<X<X<X<X<X<X<X<X<X<X<X<X<X",
"<X<X<X<X<X<X<X<X<X<X<X<X<X<X<X<X<X<X<X<X<X<X<X<X<X<X4 4 0  .I.-X$X@.p s . <X<X<X<X<X<X% r <X<X<X<X<X<X<X<X<X<X<X<X<X<X<X<X<X<X<X",
"<X<X<X<X<X<X<X<X<X<X<X<X<X<X<X<X<X<X<X<X: ) 0.6.C 2 1.A d i +.0.&.p m m B l <X<X<X<X<X8 8 <X<X<X<X<X<X<X<X<X<X<X<X<X<X<X<X<X<X<X",
"<X<X<X<X<X<X<X<X<X<X<X<X<X<X<X<X<X<X<Xh Z.` J ~ v.z.b B.K i 4 3 3 d m B N S.# <X<X<X<X% 8 <X<X<X<X<X<X<X<X<X<X<X<X<X<X<X<X<X<X<X",
"<X<X<X<X<X<X<X<X<X<X<X<X<X<X<X<X<X<X6 6.' P.J.J.' n.v.P q.k.d d d 9 d +.N | B <X<X<X. E % <X<X<X<X<X<X<X<X<X<X<X<X<X<X<X<X<X<X<X",
"<X<X<X<X<X<X<X<X<X<X<X<X<X<X<X<X<X<XK ' U.OXOX>XL.' v.2.~ 0.H.+.X.r.%.E +.E | <X<X<X. M <X<X<X<X<X<X<X<X<X<X<X<X<X<X<X<X<X<X<X<X",
"<X<X<X<X<X<X<X<X<X<X<X<X<X<X<X<X<X7 H U.OXR.>X,X>XL.( P.k 1.3.0.%.+.X.l.%.B m <X<X<X. M <X<X<X<X<X<X<X<X<X<X<X<X<X<X<X<X<X<X<X<X",
"<X<X<X<X<X<X<X<X<X<X<X<X<X<X<X<X> F y.|.T.T.T.=X,X>Xw.2.6.c A A A 3.A.&XZ  .@ <X<X<X. M <X<X<X<X<X<X<X<X<X<X<X<X<X<X<X<X<X<X<X<X",
"<X<X<X<X<X<X<X<X<X<X<X<X<X<X<X<X- H '.B.T.e.b.T.=X+Xm.( n.5 ~ z.A.&X;XA.s O.@ <X<X<X9 M <X<X<X<X<X<X<X<X<X<X<X<X<X<X<X<X<X<X<X<X",
"<X<X<X<X<X<X<X<X<X<X<X<X<X<X<X<Xw I _.9.e.e.e.b.Y.oXE.( J.b 1.5.5.j.j.! x @.! <X<X<Xn % <X<X<X<X<X<X<X<X<X<X<X<X<X<X<X<X<X<X<X<X",
"<X<X<X<X<X<X<X<X<X<X<X<X<X<X<X<XD R Q.{ 7.[ N.e.e. X|.>.G.K ~ H.A.#.+.m N  ./ <X<XO 8 # <X<X<X<X<X<X<X<X<X<X<X<X<X<X<X<X<X<X<X<X",
"<X<X<X<X<X<X<X<X<X<X<X<X<X<X<X<XD R d.{ ( 7.[ m.8. X|.[ M.K C 0.5.j.%.N m $.D./ z m O.N <X<X<X<X<X<X<X<X<X<X<X<X<X<X<X<X<X<X<X<X",
"<X<X<X<X<X<X<X<X<X<X<X<X<X<X<X<XD R p.[ G b.L 7.7.{.XX[ n.K c 1.^ N c ~ ~ ~ x.D. .3 E u <X<X<X<X<X<X<X<X<X<X<X<X<X<X<X<X<X<X<X<X",
"<X<X<X<X<X<X<X<X<X<X<X<X<X<X<X<XD R d.( J ( J 7.>.].|.( 6.k 6 i a ~ z.H.H.Z.! #.! V E e <X<X<X<X<X<X<X<X<X<X<X<X<X<X<X<X<X<X<X<X",
"<X<X<X<X<X<X<X<X<X<X<X<X<X<X<X<Xh T !.( 7.{ 9.9.7.}.[.L ' h f ..3.x.c.;XR.s.^ a V Y x @ <X<X<X<X<X<X<X<X<X<X<X<X<X<X<X<X<X<X<X<X",
"<X<X<X<X<X<X<X<X<X<X<X<X<X<X<X<Xw H _._ _ >.8.8.B.@Xw.H ;.h C 0.+.j.V.1.#.*X%Xi 0 S 3 <X<X<X<X<X<X<X<X<X<X<X<X<X<X<X<X<X<X<X<X<X",
"<X<X<X<X<X<X<X<X<X<X<X<X<X<X<X<X- F ] :.' _ 8.b.[.}.9.F ) f ^ 0...#.5.d $.0.l.i <Xz u <X<X<X<X<X<X<X<X<X<X<X<X<X<X<X<X<X<X<X<X<X",
"<X<X<X<X<X<X<X<X<X<X<X<X<X<X<X<X- k K ' ' :.>.U.}.b.2.H K q c 0...#.i d m i d 3 , z # <X<X<X<X<X<X<X<X<X<X<X<X<X<X<X<X<X<X<X<X<X",
"<X<X<X<X<X<X<X<X<X<X<X<X<X<X<X<X<XW.h ' t.'.'.^.:.8.F ;.6 c k 5...+., 4 z N N , , s @ <X<X<X<X<X<X<X<X<X<X<X<X<X<X<X<X<X<X<X<X<X",
"<X<X<X<X<X<X<X<X<X<X<X<X<X<X<X<X<X<XP H ' :.:.:._ H ~ v c q 1.0.Z V 3 d N  .B <X@ l O <X<X<X<X<X<X<X<X<X<X<X<X<X<X<X<X<X<X<X<X<X",
"<X<X<X<X<X<X<X<X<X<X<X<X<X<X<X<X<X<XG v b _ _ ;.v ( ) w U U ..c 4 4 , d /  .z O 3 z <X<X<X<X<X<X<X<X<X<X<X<X<X<X<X<X<X<X<X<X<X<X",
"<X<X<X<X<X<X<X<X<X<X<X<X<X<X<X<X<X<X<Xq b v k f b ~ g b v 7 2 1 < 1 = 3 Z  .a <X% 9 <X<X<X<X<X<X<X<X<X<X<X<X<X<X<X<X<X<X<X<X<X<X",
"<X<X<X<X<X<X<X<X<X<X<X<X<X<X<X<X<X<X<X<X< g g g q < < < 2 q < < <X<X<X4 N / , <X9 3 <X<X<X<X<X<X<X<X<X<X<X<X<X<X<X<X<X<X<X<X<X<X",
"<X<X<X<X<X<X<X<X<X<X<X<X<X<X<X<X<X<X<X<X<X<X: * * c ~ ^ ^ c < A , <X<X4 Z +., <X3 3 <X<X<X<X<X<X<X<X<X<X<X<X<X<X<X<X<X<X<X<X<X<X",
"<X<X<X<X<X<X<X<X<X<X<X<X<X<X<X<X<X<X<X<X<X<X<X<X* ~ #.0.5.g 0 A 2 <X<X4 Z  .3 = m 1 <X<X<X<X<X<X<X<X<X<X<X<X<X<X<X<X<X<X<X<X<X<X",
"<X<X<X<X<X<X<X<X<X<X<X<X<X<X<X<X<X<X<X<X<X<X<X<X* A 3.0.C 4 g c g <X<X4 V ..0.g s <X<X<X<X<X<X<X<X<X<X<X<X<X<X<X<X<X<X<X<X<X<X<X",
"<X<X<X<X<X<X<X<X<X<X<X<X<X<X<X<X<X<X<X<X<X<X<X2 5 q v v 7 5 q f q 5 5 f k C A f c <X<X<X<X<X<X<X<X<X<X<X<X<X<X<X<X<X<X<X<X<X<X<X",
"<X<X<X<X<X<X<X<X<X<X<X<X<X<X<X<X<X<X<X<X<X<Xi 3.k.k.n.Z.k.k.v.v.k.k.k.k.v.q.k.k.n.A <X<X<X<X<X<X<X<X<X<X<X<X<X<X<X<X<X<X<X<X<X<X",
"<X<X<X<X<X<X<X<X<X<X<X<X<X<X<X<X<X<X<X<X<X2 1.k.q.q.n.n.w.q.v.q.q.w.q.q.q.q.q.q.z.0.d <X<X<X<X<X<X<X<X<X<X<X<X<X<X<X<X<X<X<X<X<X",
"<X<X<X<X<X<X<X<X<X<X<X<X<X<X<X<X<X<X<X<X0 1.0.;._ ` ' _ ' ' _ _ ' ' ' _ ' ` ` ) ) 1.k.c <X<X<X<X<X<X<X<X<X<X<X<X<X<X<X<X<X<X<X<X",
"<X<X<X<X<X<X<X<X<X<X<X<X<X<X<X<X<X<X<X1 ..k.1.,.!.:.>.!.<.,.(.,.>.d.Q.' ^.<.:.u.~.;.0.0.a <X<X<X<X<X<X<X<X<X<X<X<X<X<X<X<X<X<X<X",
"<X<X<X<X<X<X<X<X<X<X<X<X<X<X<X<X<X<X<Xa ^ 0.) ` d.!.~.Q._ [ a.(.d.^.[ [ t./.s./.;.` 1.3.Z X <X<X<X<X<X<X<X<X<X<X<X<X<X<X<X<X<X<X",
"<X<X<X<X<X<X<X<X<X<X<X<X<X<X<X<X<X<X<Xa ..0...;.:.`.).,.>.[ [ (._.<.[ >.' ~.`.u.;.` 1.%.Z X <X<X<X<X<X<X<X<X<X<X<X<X<X<X<X<X<X<X",
"<X<X<X<X<X<X<X<X<X<X<X<X<X<X<X<X<X<X<Xi ^ 0.;.:.~.d.s.~.>.>.Q.~.i.(.<.7.s.^.p._.<.) 3.0.Z X <X<X<X<X<X<X<X<X<X<X<X<X<X<X<X<X<X<X",
"<X<X<X<X<X<X<X<X<X<X<X<X<X<X<X<X<X<X<Xa X.0.1.>.s.:.:.s.,.>.d.[ ' t.a.' d.:.:.>.d...0.#.B X <X<X<X<X<X<X<X<X<X<X<X<X<X<X<X<X<X<X",
"<X<X<X<X<X<X<X<X<X<X<X<X<X<X<X<X<X<X<Xa  .0.j.5.4.1.4.2.2.6.4.4.4.4.4.4.4.4.4.1.3.q.j.$.B X <X<X<X<X<X<X<X<X<X<X<X<X<X<X<X<X<X<X",
"<X<X<X<X<X<X<X<X<X<X<X<X<X<X<X<X<X<X<Xu ! $.0.0.z.k.k.k.k.k.v.k.k.v.k.k.k.k.k.z.j.0.0. .B X <X<X<X<X<X<X<X<X<X<X<X<X<X<X<X<X<X<X",
"<X<X<X<X<X<X<X<X<X<X<X<X<X<X<X<X<X<X<X3 d z c c c c c c c v v v v v c v c c c c c z z d p X <X<X<X<X<X<X<X<X<X<X<X<X<X<X<X<X<X<X",
"<X<X<X<X<X<X<X<X<X<X<X<X<X<X<X<X<X<X<X<X<X<X<X<X<X<X<X<X<X<X<X<X<X<X<X<X<X<X<X<X<X<X<X<X<X<X<X<X<X<X<X<X<X<X<X<X<X<X<X<X<X<X<X<X",
"<X<X<X<X<X<X<X<X<X<X<X<X<X<X<X<X<X<X<X<X<X<X<X<X<X<X<X<X<X<X<X<X<X<X<X<X<X<X<X<X<X<X<X<X<X<X<X<X<X<X<X<X<X<X<X<X<X<X<X<X<X<X<X<X",
"<X<X<X<X<X<X<X<X<X<X<X<X<X<X<X<X<X<X<X<X<X<X<X<X<X<X<X<X<X<X<X<X<X<X<X<X<X<X<X<X<X<X<X<X<X<X<X<X<X<X<X<X<X<X<X<X<X<X<X<X<X<X<X<X",
"<X<X<X<X<X<X<X<X<X<X<X<X<X<X<X<X<X<X<X<X<X<X<X<X<X<X<X<X<X<X<X<X<X<X<X<X<X<X<X<X<X<X<X<X<X<X<X<X<X<X<X<X<X<X<X<X<X<X<X<X<X<X<X<X",
"<X<X<X<X<X<X<X<X<X<X<X<X<X<X<X<X<X<X<X<X<X<X<X<X<X<X<X<X<X<X<X<X<X<X<X<X<X<X<X<X<X<X<X<X<X<X<X<X<X<X<X<X<X<X<X<X<X<X<X<X<X<X<X<X"
};
