/* XPM */
static char *result[] = {
/* columns rows colors chars-per-pixel */
"64 64 66 1 ",
"  c #050505",
". c #050708",
"X c #060A0B",
"o c #090C0D",
"O c #070E10",
"+ c #0A0F11",
"@ c #071115",
"# c #0B1214",
"$ c #0D161A",
"% c #0E191D",
"& c #101619",
"* c #111A1E",
"= c #0E1D22",
"- c #111E23",
"; c #0F2025",
": c #122126",
"> c #182327",
", c #14242A",
"< c #18262B",
"1 c #15282E",
"2 c #19292E",
"3 c #152730",
"4 c #162B32",
"5 c #1B2C34",
"6 c #172F38",
"7 c #192E39",
"8 c #173037",
"9 c #1B3037",
"0 c #173139",
"q c #1B333C",
"w c #243121",
"e c #21353D",
"r c #1E3740",
"t c #1F3943",
"y c #233740",
"u c #233B44",
"i c #293E47",
"p c #243E48",
"a c #283F48",
"s c #26414C",
"d c #2A444E",
"f c #2B4651",
"g c #2D4A55",
"h c #2E4D58",
"j c #304752",
"k c #314B55",
"l c #324E5A",
"z c #34515D",
"x c #355562",
"c c #395662",
"v c #3A5966",
"b c #3C5D6B",
"n c #3E616E",
"m c #3E6371",
"M c #4A5F40",
"N c #426574",
"B c #466B7A",
"V c #4A6F7E",
"C c #A8A81F",
"Z c #477080",
"A c #4B7283",
"S c #4C7789",
"D c #527B8C",
"F c #507F91",
"G c #528295",
"H c None",
/* pixels */
"HHHHHHHHHHHHHHHHHHHHHHHHHHHHHHHHHHHHHHHHHHHHHHHHHHHHHHHHHHHHHHHH",
"HHHHHHHHHHHHHHHHHHHHHHHHHHHHHHHHHHHHHHHHHHHHHHHHHHHHHHHHHHHHHHHH",
"HHHHHHHHHHHHHHHHHHHHHHHHHHHHHHHHHHHHHHHHHHHHHHHHHHHHHHHHHHHHHHHH",
"HHHHHHHHHHHHHHHHHHHHHHHHHHHHHHHHHHHHHHHHHHHHHHH.HHHHHHHHHHHHHHHH",
"HHHHHHHHHHHHHHHHHHHHHHHHHHHHHHHHHHHHHHHHHHHHHH+.HHHHHHHHHHHHHHHH",
"HHHHHHHHHHHHHHHHHHHHHHHHHHHHHHHHHHHHHHHHHHHHHH$%HHHHHHHHHHHHHHHH",
"HHHHHHHHHHHHHHHHHHHHHHHHHHHHHHHHHHHHHHHHHHHHHHj%HHHHHHHHHHHHHHHH",
"HHHHHHHHHHHHHHHHHHHHHHHHHHHHHH$q-HHHHHHHHHHHH<koHHHHHHHHHHHHHHHH",
"HHHHHHHHHHHHHHHHHHHHHHHHHHHHHH%s:HHHHHHHHHHHod<oHHHHHHHHHHHHHHHH",
"HHHHHHHHHHHHHHHHHHHHHHHHHHHHHHo9+HHHHHHHHHHHo5e*HHHHHHHHHHHHHHHH",
"HHHHHHHHHHHHHHHHHHHHHHHHHHHHHH.5oHHHHHHHHHHHH19oHHHHHHHHHHHHHHHH",
"HHHHHHHHHHHHHHHHHHHHHHHHHHHH&2s2s5*HHHHHHHHHH$#HHHHHHHHHHHHHHHHH",
"HHHHHHHHHHHHHHHHHHHHHHHHHHH##hzBNze&HHHHHHHHH$oHHHHHHHHHHHHHHHHH",
"HHHHHHHHHHHHHHHHHHHHHHHHHHH>%fBGZbs5HHHHHHHHo1oHHHHHHHHHHHHHHHHH",
"HHHHHHHHHHHHHHHHHHHHHHHHHHH5%9mGShqq#HHHHHHHo:HHHHHHHHHHHHHHHHHH",
"HHHHHHHHHHHHHHHHHHHHHHHHHH+q1#qfa99q&HHHHHHHo>HHHHHHHHHHHHHHHHHH",
"HHHHHHHHHHHHHHHHHHHHHHHHHH+>8%$q9464oHHHHHHHX>HHHHHHHHHHHHHHHHHH",
"HHHHHHHHHHHHHHHHHHHHHHHHHHo<MCwfs,qqoHHHHHHH#>HHHHHHHHHHHHHHHHHH",
"HHHHHHHHHHHHHHHHHHHHHHHHHHo:nnhebgb9oHHHHHHH5#HHHHHHHHHHHHHHHHHH",
"HHHHHHHHHHHHHHHHHHHHHHHHHHH*uzhqqfs,HHHHHHHH5 HHHHHHHHHHHHHHHHHH",
"HHHHHHHHHHHHHHHHHHHHHHHHHH#=0hztenq=#HHHHHHH5 HHHHHHHHHHHHHHHHHH",
"HHHHHHHHHHHHHHHHHHHHHHHHHH+%,hnSsb1%#HHHHHH&e.HHHHHHHHHHHHHHHHHH",
"HHHHHHHHHHHHHHHHHHHHHHHHHH$@%qmZn:;;.HHHHHH*-HHHHHHHHHHHHHHHHHHH",
"HHHHHHHHHHHHHHHHHHHHoedd>Ou1==tgsO115>HHHHHXoHHHHHHHHHHHHHHHHHHH",
"HHHHHHHHHHHHHHHHHHH<bi25zk>s9$O#@;,9>b#HHHH&&HHHHHHHHHHHHHHHHHHH",
"HHHHHHHHHHHHHHHHHH#idNvbejv>fk:%;$:u<q5HHH.2oHHHHHHHHHHHHHHHHHHH",
"HHHHHHHHHHHHHHHHHHeejNADNecd9fzq2fs5u-qHHH 9HHHHHHHHHHHHHHHHHHHH",
"HHHHHHHHHHHHHHHHH&5vdkDDVveN:ussse2gf#>HHH 9HHHHHHHHHHHHHHHHHHHH",
"HHHHHHHHHHHHHHHHo>ybcckAVNzjj-<>,yzA2&.HHH 5HHHHHHHHHHHHHHHHHHHH",
"HHHHHHHHHHHHHHHH 3ycNxddVNcez+eklbBv*9oHHH*9HHHHHHHHHHHHHHHHHHHH",
"HHHHHHHHHHHHHHHH-4yllzldjNz2*ossuas2#95HHH5#HHHHHHHHHHHHHHHHHHHH",
"HHHHHHHHHHHHHHHH-2aujdbcddeo&o9bhu,oo49HHo&#HHHHHHHHHHHHHHHHHHHH",
"HHHHHHHHHHHHHHHH:2ieejicglo#do4sf7#o#yz<22deHHHHHHHHHHHHHHHHHHHH",
"HHHHHHHHHHHHHHHH:<<u>z9jdv2#uo,t6#$55exmy$y:HHHHHHHHHHHHHHHHHHHH",
"HHHHHHHHHHHHHHHH:1:e2e2ldcz>#X#$*elbNv5s95y-HHHHHHHHHHHHHHHHHHHH",
"HHHHHHHHHHHHHHHH-2*>j>2kjzze#X%quxzDvey-556oHHHHHHHHHHHHHHHHHHHH",
"HHHHHHHHHHHHHHHH=452e*>jczj5u$=urgxauvB*$X HHHHHHHHHHHHHHHHHHHHH",
"HHHHHHHHHHHHHHHH.3eei<:lzzj<y$=uraf=sfg*H<*HHHHHHHHHHHHHHHHHHHHH",
"HHHHHHHHHHHHHHHH.,euieoizvj25%+7rp%=1=:#o-#HHHHHHHHHHHHHHHHHHHHH",
"HHHHHHHHHHHHHHHHH#<iii*&jj>d#,X$7tX@=,1oo$XHHHHHHHHHHHHHHHHHHHHH",
"HHHHHHHHHHHHHHHHHH35ii>#y<r2-&3#:<#=404HH*oHHHHHHHHHHHHHHHHHHHHH",
"HHHHHHHHHHHHHHHHHH$46u<+=ry--$3Xo@X=q0;HHHHHHHHHHHHHHHHHHHHHHHHH",
"HHHHHHHHHHHHHHHHHHH$45- -r-,=.XXXoX@4q%HHHHHHHHHHHHHHHHHHHHHHHHH",
"HHHHHHHHHHHHHHHHHHHHO-$o@X.OX@OXHHH@1qoHXHHHHHHHHHHHHHHHHHHHHHHH",
"HHHHHHHHHHHHHHHHHHHHHH...,3rr:X3XHH#4toH$$HHHHHHHHHHHHHHHHHHHHHH",
"HHHHHHHHHHHHHHHHHHHHHHHH.7pap%@3#HH#4q#X9#HHHHHHHHHHHHHHHHHHHHHH",
"HHHHHHHHHHHHHHHHHHHHHHHHX3pp3@$-=HH$1td-:HHHHHHHHHHHHHHHHHHHHHHH",
"HHHHHHHHHHHHHHHHHHHHHHH#+@3=XX@=$++$=45$<HHHHHHHHHHHHHHHHHHHHHHH",
"HHHHHHHHHHHHHHHHHHHHHH#eufker@-ahgdfafkhz5HHHHHHHHHHHHHHHHHHHHHH",
"HHHHHHHHHHHHHHHHHHHHH#4pasf5tr%ufspppdfgls>HHHHHHHHHHHHHHHHHHHHH",
"HHHHHHHHHHHHHHHHHHHH#9y0674=3rr@666470709uh,HHHHHHHHHHHHHHHHHHHH",
"HHHHHHHHHHHHHHHHHHHoeftq0qq,3rrrrrr3477r0rfs*HHHHHHHHHHHHHHHHHHH",
"HHHHHHHHHHHHHHHHHHHX%t6rr777$rrr6r37e2,qrrtp1 HHHHHHHHHHHHHHHHHH",
"HHHHHHHHHHHHHHHHHHHX$rr7736r@63rr37zNbf<70t7# HHHHHHHHHHHHHHHHHH",
"HHHHHHHHHHHHHHHHHHHX,d0rr3=7@rrr7-=7slla=qp$# HHHHHHHHHHHHHHHHHH",
"HHHHHHHHHHHHHHHHHHH=tftr6$+$@r76-lvy4sxx47s4# HHHHHHHHHHHHHHHHHH",
"HHHHHHHHHHHHHHHHHHH=qfgt,###%tp%pmbbd,ys9qfd, HHHHHHHHHHHHHHHHHH",
"HHHHHHHHHHHHHHHHHHH%8sff5#,$#qg%rhbsu6;tq:sq9 HHHHHHHHHHHHHHHHHH",
"HHHHHHHHHHHHHHHHHHH#=;;,$o%$o%:o,<4<1<O<,#;== HHHHHHHHHHHHHHHHHH",
"HHHHHHHHHHHHHHHHHHHHHHHHHHHHHHHHHHHHHHHHHHHHHHHHHHHHHHHHHHHHHHHH",
"HHHHHHHHHHHHHHHHHHHHHHHHHHHHHHHHHHHHHHHHHHHHHHHHHHHHHHHHHHHHHHHH",
"HHHHHHHHHHHHHHHHHHHHHHHHHHHHHHHHHHHHHHHHHHHHHHHHHHHHHHHHHHHHHHHH",
"HHHHHHHHHHHHHHHHHHHHHHHHHHHHHHHHHHHHHHHHHHHHHHHHHHHHHHHHHHHHHHHH",
"HHHHHHHHHHHHHHHHHHHHHHHHHHHHHHHHHHHHHHHHHHHHHHHHHHHHHHHHHHHHHHHH"
};
