/* XPM */
static char *result[] = {
/* columns rows colors chars-per-pixel */
"64 64 99 2 ",
"   c #000000",
".  c #0B0706",
"X  c #0C0C0C",
"o  c #120B0A",
"O  c #0F0F10",
"+  c #151515",
"@  c #1A1617",
"#  c #1C1C1C",
"$  c #241B1B",
"%  c #2B1F1E",
"&  c #2D201F",
"*  c #33221F",
"=  c #3E221A",
"-  c #242424",
";  c #2D2222",
":  c #2C2B2E",
">  c #332423",
",  c #3F2923",
"<  c #342C2C",
"1  c #392C2B",
"2  c #37302F",
"3  c #3E302E",
"4  c #2D2D31",
"5  c #3D3434",
"6  c #3F3839",
"7  c #48271A",
"8  c #552A14",
"9  c #582D17",
"0  c #623217",
"q  c #693516",
"w  c #6E3B1A",
"e  c #472B24",
"r  c #4B2E23",
"t  c #4E3126",
"y  c #43322E",
"u  c #4E342A",
"i  c #423533",
"p  c #4B3934",
"a  c #453C3B",
"s  c #4B3D39",
"d  c #503C37",
"f  c #683C20",
"g  c #76401B",
"h  c #7C451D",
"j  c #4A413F",
"k  c #5F4335",
"l  c #50423E",
"z  c #58433E",
"x  c #6F4122",
"c  c #71472B",
"v  c #664939",
"b  c #6B4D3A",
"n  c #7F5131",
"m  c #73523E",
"M  c #433E40",
"N  c #444244",
"B  c #4C4545",
"V  c #4C4749",
"C  c #49484B",
"Z  c #534643",
"A  c #524947",
"S  c #594B47",
"D  c #534C4C",
"F  c #5A504E",
"G  c #4E4D50",
"H  c #524F51",
"J  c #535254",
"K  c #5A5453",
"L  c #55555B",
"P  c #5B5B5B",
"I  c #62524C",
"U  c #6A574F",
"Y  c #70584A",
"T  c #625550",
"R  c #615957",
"E  c #645E5D",
"W  c #705D54",
"Q  c #5B5C61",
"!  c #636363",
"~  c #6A6463",
"^  c #686867",
"/  c #6C6C6C",
"(  c #726E6E",
")  c #77716F",
"_  c #6B6F74",
"`  c #706E70",
"'  c #6D7075",
"]  c #737372",
"[  c #787778",
"{  c #82471C",
"}  c #84491D",
"|  c #834E27",
" . c #797E82",
".. c #7F8083",
"X. c #7E8388",
"o. c #858281",
"O. c #868A8E",
"+. c #888D93",
"@. c None",
/* pixels */
"@.@.@.@.@.@.@.@.@.@.@.@.@.@.@.@.@.@.@.@.@.@.@.@.@.@.@.@.@.@.@.@.@.@.@.@.@.@.@.@.@.@.@.@.@.@.@.@.@.@.@.@.@.@.@.@.@.@.@.@.@.@.@.@.",
"@.@.@.@.@.@.@.@.@.@.@.@.@.@.@.@.@.@.@.@.@.@.@.@.@.@.@.@.@.@.@.@.@.@.@.@.@.@.@.@.@.@.@.@.@.@.@.@.@.@.@.@.@.@.@.@.@.@.@.@.@.@.@.@.",
"@.@.@.@.@.@.@.@.@.@.@.@.@.@.@.@.@.@.@.@.@.@.@.@.@.@.@.@.@.@.@.@.@.@.@.@.@.@.@.@.@.@.@.@.@.@.@.@.@.@.@.@.@.@.@.@.@.@.@.@.@.@.@.@.",
"@.@.@.@.@.@.@.@.@.@.@.@.@.@.@.@.@.@.@.@.@.@.@.@.@.@.@.@.@.@.@.@.@.@.@.@.@.@.@.@.@.@.@.@.@.@.@.@.@.@.@.@.@.@.@.@.@.@.@.@.@.@.@.@.",
"@.@.@.@.@.@.@.@.@.@.@.@.@.@.@.@.@.@.> @.@.% > = > 1 > 1 i 1 1 j a > a p > s i ; > > * @.@.@.@.@.@.@.@.@.@.@.@.@.@.@.@.@.@.@.@.@.",
"@.@.@.@.@.@.@.@.@.@.@.@.@.@.@.@.% i Z p < Z F > s ~ R S ( K S ] ~ p E E l / F s ^ K i 1 y > > & @.@.@.@.@.@.@.@.@.@.@.@.@.@.@.@.",
"@.@.@.@.@.@.@.@.@.@.@.@.@.@.> 3 , E ..( y E P < Z / D j K D l P J p P D s P Z j ! P l R ^ s S A , > @.@.@.@.@.@.@.@.@.@.@.@.@.@.",
"@.@.@.@.@.@.@.@.@.@.@.@.> > R [ K l ! P y D P i B ^ Z s P D s E P p ( F a P B s E ! i K P l ) ! a < 1 * @.@.@.@.@.@.@.@.@.@.@.@.",
"@.@.@.@.@.@.@.@.@.@.> s F 1 P ! H i ~ ^ y D ( s j P B i H B s ^ ! p K A s P s a ! K y ! ~ Z ~ K i ^ E 1 > > @.@.@.@.@.@.@.@.@.@.",
"@.@.@.@.@.@.@.@.@.% i ] / Z y K E y A P i M _ B s K j a C B i J J y V j p L i a P B s ^ F Z E V Z ^ P p K s > * @.@.@.@.@.@.@.@.",
"@.@.@.@.@.@.@.* > > y R K P p A _ M a L a 1 J i 3 N 5 3 H a < 6 6 > 5 2 3 C 1 5 N 5 s J M S G i E E D d R i < > * @.@.@.@.@.@.@.",
"@.@.@.@.@.@.= : 4 : j D A P J y R H > M 5 & < ; & > % % ; % $ ; % $ % % $ & % & > ; > 5 1 C M y ( ! 1 p K 5 4 4 > > @.@.@.@.@.@.",
"@.@.@.@.@.@.> < : : D  .J S P a 1 i ; $ $ # + + + + + + + + + + + + + + + + + + + @ @ @ $ < < y ! M , L ..i 4 : 1 1 > @.@.@.@.@.",
"@.@.@.@.@.1 y : 4 : H O. .B V a $ # + + + + + + O O O @ X X O O X O X X @ O O + + + + + @ + @ ; 3 1 P O. .6 4 4 < 1 % * @.@.@.@.",
"@.@.@.@.> K R : : : D ^ [ / > & + + @ + O X . . .                             . . . X O + + + @ @ 5  .( ^ i : : > 1 F 1 @.@.@.@.",
"@.@.@.@.> D E < : : D k r / 5 + + O X                                                     O O @ $ K E 7 U a : : 5 E ~ j > @.@.@.",
"@.@.@.* % > 5 < 4 : D m 8 z D + .                                                             X $ E r 0 W 6 4 4 6 ^ E H > @.@.@.",
"@.@.> i E S > : 4 : D m g r K o                         . X O + + X X                           ; F 9 h W 6 4 : 5 P D 6 ; > @.@.",
"@.@.> D ^ ] R < 4 : D m } 8 F .                     X + + + + + + + + + + X                     5 z q { W 6 4 4 < > > 3 3 > @.@.",
"@.@.> a P / R : : : D m } 9 S &                   O + + + + + + + + + + + + X                   a u w h W 6 : : < Z R E K < @.@.",
"@.@.> & 1 j a < : : D m } 0 s ;               . + + + + + + + + + + + + + + + + .             . a r g h W 6 : 4 6 / ^ J B > @.@.",
"@.* 1 j 5 > > : : : D m } q p <               O + + + + + + + + + + + + + + + + O               B 7 h { U 6 4 : < 5 1 < ; ; @.@.",
"@.> M ` ] ^ S : : : A b } q t 5             + + + + + + @ + + + @ + + + + + + + + +           . Z 7 g h U 6 : : > > 1 5 5 ; @.@.",
"@.> N P ! ! S : : : A m } q r 5           X + + + + + @ + + + + + + + + + + + + + + X         . Z 7 h h U a : : 5 ~ ] ] K 1 @.@.",
"@.> < 1 5 6 1 : : : B b } w y i           + + + + + + + + + # - - # + + + + + + + + +         . B 7 h h T 6 : : 1 H K L B > @.@.",
"@.> 1 Z Z S l < : : A m } w a a         + + + + + + + + + - - - - - - + + + + + @ + + +       . A r h h U 6 : : > 1 3 y 1 & @.@.",
"@.> 2 P / ] K < 4 : A m { w B 6         + + + + + + + + - - - - - - - - + + + + + + + +       . D s h h U 6 4 : i ) o.[ ^ i * @.",
"@.* < N N N i : 4 : V T b k D a       X + + + + + + + # - - - - - - - - # + + + + + + + X     . K B c b R 6 : : 5 K ! L K i > @.",
"@.* % > 1 s p < 4 : D L J J L 6       + + + + + + + + # - - - - - - - - # + + + + + + + +     . D J J J P a 4 4 > > > 1 1 ; * @.",
"@.> 5 D L ! H < 4 : A Q L L J i     . + + + + + + + # - - - - - - - - - - + + + + + + + +     . V J L Q E 6 4 4 1 F E ! E i > @.",
"@.> 1 a V C a < 4 : A Z u p L a     X + + + + + + + # - - - - - - - - - - # + @ + + + + + X   . K A y t K 6 4 4 5 P / ! P i * @.",
"@.* % > > > < : 4 : A k q 9 J s     o + + + + + + + # - - - - - - - - - - # + + @ + + + + X   . L j 0 0 I 6 : 4 > < < 5 1 > > @.",
"@.* i K K P F : 4 : B v g x J j     + + + + + + + + - - : - - - - - - - - - + + @ + + + + O   . K Z g g I 6 4 4 < p a s s ; @.@.",
"@.& 6 L P E K 2 4 : A b h x J j     + + + + + + + + - - - - - - - - - - - - + @ + + + + + +   . K S h h I 6 4 4 5 E ^ ^ ^ i > @.",
"@.* 2 6 j G A 4 4 : B b } x J j     + + + + + @ + + - - - - - - - - - - - - + + @ + + + + +   . K Z g h I 6 4 : 2 D H C V 1 * @.",
"@.& * 3 > & > ; 4 : B b } x H M     + + + + + + + + - - - - - - - - - - - - + + + + + + + +   . K Z h h F 6 4 4 ; < < > < > @.@.",
"@.* j E ~ P S < : : V b h x K j     + + + + + + + + - - - - - - - - - - - - + + + + @ + + +   . H Z h h I 6 : : 1 A K K S > @.@.",
"@.> j E ) / F : : : B K Y U P j .   + + + + + + + + - - - - - - - - - - - - + + + + + + + +   . D K Y U K 6 : 4 2 K P / ! < @.@.",
"@.> 6 C H C 5 : 4 : A Q L L G 5     X + + @ + + + + - - - - - - - - - - - - + + + + + + + X   . V L L L E 6 : 4 < < 1 i 5 * @.@.",
"@.> > 2 1 * * : 4 : V Q L J G j     X + + + + + + + # - - - - - - - - - - - + + + + + + + X   . V J J J ! 6 : : 1 S D F Z 1 > @.",
"@.> s P ( ) F < : : B A t t D j     . + + + + + + + # - - - - - - - - - - # + + + + + + + X   . H B t u J 6 : : 5 E ! ! ] M * @.",
"@.; M P / [ J < 4 4 B k q 0 G 6     . + + + + + + + # - - - - - - - - - - # + + + + + + + .   . H z q q I 6 4 4 5 D J H G 2 * @.",
"@.* < a V N i : : : V v { x K j       + + + + + + + + - - - - - - - - - - + + + + + + + +     . D S h g I 6 : : > < < 1 1 ; @.@.",
"@.> % > 1 y y < 4 4 B b { x L j       O + + + + + + + - - - - - - - - - - + + + + + + + X     . H S h h I 6 4 : 5 R R F F 1 , @.",
"@.* s J E ~ K < : : B b } x L a         + @ + + + + + @ - - - - - - - - # + + + + + @ +       . D S h { I i 4 : 5 ! [ [ / B * @.",
"@.; N K K L B : : : B b { x K a         O + + + + + + + - - - - - - - # + + + + # + + O       . H S h h F 6 : 4 1 P ^ E L s > @.",
"@.> < 1 6 6 > : 4 : A b | m P j .         + + + + + + + + - - - - - - @ + + + + + + +         . D K | | T 6 4 : > ; < 1 5 ; * @.",
"@.% 5 s i s d < : : B ~ ) / Q 6           X + + + + + + + + # - - # + + + + + + + + X         X V ! ' ) E 5 : 4 1 A S K R s * @.",
"@.< H E ! ! B < 4 : B Q L L C 6             + + + + + + + + + @ @ + + + + + + + + +           . N G J L E 6 4 4 5 / / ! ! H ; @.",
"@.> 6 C H C a : : : B L J J J 6               + + + + + + + + + + + + + + + + + +             . B J L J Q 5 4 : 1 D N M N M > @.",
"@.> ; > > > * : 4 : V D u y K 6                 + + + + + + + + + + + + + + + +               . V Z 7 s L 5 4 : < 1 1 , > % * @.",
"@.> K P K Z p : : 4 B k w w K 5                   X + + + + + + + + + + + + O                 . V S w q D 5 4 : 1 ^ ( ( E i > @.",
"> 1 ! ] ] P B < : : j b { x K 6                     X + + + + + + + + + + .                   . V S h h I 5 : : 1 ! / Q P B > @.",
"@.> 5 M M 6 1 : : : B b { x J 5                           X X + + + X                         . V S h h I 5 : 4 < 1 1 2 5 < > @.",
"@.> i p a 3 1 < : : B v c Y ! 6                                                               . A ^ m x I 5 : 4 < p l S T i % @.",
"@.5 ! ~ ) ] F : : : B ~ / / ' j                                                               . E ' / ` E 5 : 4 5 ^ ! ! ^ B > @.",
"@.> B N D H a : 4 : Z [ X.O.O.T @.                                                            o ~ +.O.../ 5 : 4 < B C N N 5 > @.",
"@.* % % % % % : 4 : D O.O._ Z r @.@.@.@.@.@.                                        @.@.@.@.@.@.u K [ O...i 4 : ; % > > ; % * @.",
"@.@.@.@.@.@.@.< : : B ( z e @.@.@.@.@.@.@.@.@.@.@.@.@.@.@.@.@.@.@.@.@.@.@.@.@.@.@.@.@.@.@.@.@.@.@.= e I ( 5 : : ; @.> > * @.@.@.",
"@.@.@.@.@.@.@.1 : : 1 7 @.@.@.@.@.@.@.@.@.@.@.@.@.@.@.@.@.@.@.@.@.@.@.@.@.@.@.@.@.@.@.@.@.@.@.@.@.@.@.= e 1 : : > @.@.@.@.@.@.@.",
"@.@.@.@.@.@.@.@.@.@.@.@.@.@.@.@.@.@.@.@.@.@.@.@.@.@.@.@.@.@.@.@.@.@.@.@.@.@.@.@.@.@.@.@.@.@.@.@.@.@.@.@.@.@.@.@.@.@.@.@.@.@.@.@.",
"@.@.@.@.@.@.@.@.@.@.@.@.@.@.@.@.@.@.@.@.@.@.@.@.@.@.@.@.@.@.@.@.@.@.@.@.@.@.@.@.@.@.@.@.@.@.@.@.@.@.@.@.@.@.@.@.@.@.@.@.@.@.@.@.",
"@.@.@.@.@.@.@.@.@.@.@.@.@.@.@.@.@.@.@.@.@.@.@.@.@.@.@.@.@.@.@.@.@.@.@.@.@.@.@.@.@.@.@.@.@.@.@.@.@.@.@.@.@.@.@.@.@.@.@.@.@.@.@.@.",
"@.@.@.@.@.@.@.@.@.@.@.@.@.@.@.@.@.@.@.@.@.@.@.@.@.@.@.@.@.@.@.@.@.@.@.@.@.@.@.@.@.@.@.@.@.@.@.@.@.@.@.@.@.@.@.@.@.@.@.@.@.@.@.@."
};
