/* XPM */
static char *result[] = {
/* columns rows colors chars-per-pixel */
"64 64 24 1 ",
"  c #191014",
". c #32261C",
"X c #3A2B2A",
"o c #4C0716",
"O c #671526",
"+ c #433331",
"@ c #5A5043",
"# c #8D282A",
"$ c #9C312A",
"% c #82573F",
"& c #B14332",
"* c #AB693D",
"= c #CA5A3B",
"- c #C07F40",
"; c #E37644",
": c #8E8475",
"> c #D89D47",
", c #EDB84A",
"< c #F6D954",
"1 c #ACA492",
"2 c #D2CEBC",
"3 c #EDEBDB",
"4 c #FFFFF3",
"5 c None",
/* pixels */
"5555555555555555555555555555555555555555555555555555555555555555",
"5555555555555555555555555555555555555555555555555555555555555555",
"5555555555555555555555555555555555555555555555555555555555555555",
"5555555555555555555555555555555555555555555555555555555555555555",
"5555555555555555555555555.55555555555555555555555555555555555555",
"555555555555555555555555..555555555555...55555555555555555555555",
"55555555555555555555555.2.55555oooo5..223.5555555555555555555555",
"5555555555555555555555.2.55555o$&=&o111222.555555555555555555555",
"5555555555555555555555.1.5555o$&= =&o11...5555555555555555555555",
"555555555555555555ooooooo555o$&&= ;=&o.5555555555555555555555555",
"55555555555555555o===&&$#o..o#$&  =&&o55555555555555555555555555",
"5555555555555555o;;===&&$#o3@O#$ &&$$o55555555555555555555555555",
"555555555555555o;;;;==&&$#O23@O#$$$#o555555555555555555555555555",
"555555555555555o; ;;==&&$#O123@OOOOo5oooo55555555555555555555555",
"55555555555555o=;  ===&$$#O:12@:1222o$$&&oo55...5555555555555555",
"555555555555..o==;  =&&$#O*.:1@..11@O$&&==&o.223..55555555555555",
"55555555555.32o&===  &$$#O**.:.**.@O$&&==;=&o12221.5555555555555",
"5555555555.321o&&&&&&$$#O***..***.1O#$&=; =&o111..55555555555555",
"555555555.....o$&&&&$$##O**-..-*.321O$&&  =&o1..5555555555555555",
"55555555555555.o$$$$$##O**--.---.221O#$  &&$o.555555555555555555",
"555555555555555o#####OO**------.321..O#$$$$#o5555555555555555555",
"55555555555555.1oOOOO***---->>>.21.***O####o2.555555555555555555",
"555555555555..@11:.****--->>>>>.1.--***OOOO@33.55555555555555555",
"555555555...32@211.***--->>>>,,..>>--**.211@342.5ooooo5555555555",
"55555555.43322@221.***--->>>,,,.>>>>--*.221@233.o$&==&o555555555",
"5555555.322211@231.**--->>>,,,,,,,>>>-.321@1234o$&====&o55555555",
"555555.32...@@@232.**--->>,,,,<,,,,>>.321@1@223O$&&=; =&o5555555",
"555555...555.1@2232.*-->>>,,,<<<<,,,.22@OOO@122O#$&&  =&o5555555",
"555555.555..211@124.*-->>,,,<<<<<<,....O&&&O@121O$   =&$o5555555",
"555555555.34221:@122.->>>,,,<<<<<<,,>>O&&=&&O121O#$&&&$$o5555555",
"555555555.43211:@@112.>>>,,<<<<<<<<,,O$&===&&O21@O#$$$$#o5555555",
"55555555.43221:@::@@12.>>,,<<<<<<<<,,O$&=;==&O11@1O####o55555555",
"5555555.33221:@OOOO:....>,,<<<<<<<<,,O$&=  =&O1:@11OOoo555555555",
"5555555.3221:@O===&O*->>>,,<<<<<<<<,,O$&  =&$O1:@1221.5555555555",
"5555555.221:@o=;;==&O-->>,,<<<<<<<<,,O#$&&&$$O:@:@2221.555555555",
"555555.121:.o=; ;;==&O->>,,<<<<<<<<,,>O#$$$$O@:@:@1232.555555555",
"555555.11:.5o==; ;==$O->>,,,<<<<<<<,,>>O###O1@@1:@.234.555555555",
"555555.1:.5o&&==  =&$O->>>,,<<<<<<<,,>>-OOO12@@1:.5.23.555555555",
"555555.:.55o$&&== &$$O->>>,,<<<<<<<,,>>--*.22@1::.55.2.555555555",
"555555.:.55o$$&&& $#O..->>,,,<<<<<,,,>>--*.3221:.5555.5555555555",
"555555..555o#$$$$$#O123.>>>,,,<<<<,,,>>--*.3211.5555555555555555",
"555555.55555o#####O:1123.>>,,,<<<,,,>>>-*.321oooo555555555555555",
"5555555555555oOOOO@@@:123.>>,,,<,,,,>>>-*.21o==&&oo5555555555555",
"555555555555.2221:OOO..12.>>>,,,,,,>>>-*.21O=;==&&$o555555555555",
"55555555555.3221:O&==O*.12.>>>,,,,>>>>..11O=; ;=&&&$o55555555555",
"5555555555.3221:O&=;==O*.2.>>>>>>>>>>.....O&= =&&&$$o55555555555",
"5555555555.211:O$&= ;=&O*..->>>>>>>>--***O$&&  &&$$#o55555555555",
"555555555.21..@O#&& =&$O**.-->>>>>---**..O$$&& &$$#o.55555555555",
"555555555.1.5.2OO$&&&$O1.**---------**.32O#$$$$$$#O11.5555555555",
"555555555..5.2O&==$#$O123.**-------**.3211o######O122.5555555555",
"555555555.55.O&=; =$OO:123.**********.21...oooooo:1232.555555555",
"555555555555o$&&= =&&o.:12.********%.21.XXXXXXX...:123.555555555",
"555555555555o#$&&=&$&oX.12.%%%%%%%%%.1.X++XXX+++++..12.555555555",
"555555555555+o#$&&$$$o+X.1.%%%555555..X++5+X+++555++.1.555555555",
"5555555555+++Xo#$$$#oX++.1.5%%%%%55+.+++55+++55+5555+..+55555555",
"5555555555555+XoooooX++5+.+55555555++5+5555++555555555.++5555555",
"55555555555555+X+++X+5555+++555555+555+55555+555555555555+555555",
"5555555555555++++55+++5555555555555555555555+5555555555555555555",
"5555555555555++5555555+55555555555555555555555555555555555555555",
"555555555555+555555555555555555555555555555555555555555555555555",
"5555555555555555555555555555555555555555555555555555555555555555",
"5555555555555555555555555555555555555555555555555555555555555555",
"5555555555555555555555555555555555555555555555555555555555555555",
"5555555555555555555555555555555555555555555555555555555555555555"
};
