/* XPM */
static char *result[] = {
/* columns rows colors chars-per-pixel */
"64 64 163 2 ",
"   c #251917",
".  c #251A19",
"X  c #2B1D1C",
"o  c #311E1A",
"O  c #2E201F",
"+  c #31211E",
"@  c #39231D",
"#  c #281F20",
"$  c #2E2222",
"%  c #332423",
"&  c #392623",
"*  c #332827",
"=  c #3A2925",
"-  c #322728",
";  c #352A2B",
":  c #3A2D2B",
">  c #3C302E",
",  c #362E30",
"<  c #3A2F30",
"1  c #3C3233",
"2  c #3B373A",
"3  c #3E393B",
"4  c #452114",
"5  c #4B2515",
"6  c #4E2817",
"7  c #44231A",
"8  c #49271B",
"9  c #4C2B1D",
"0  c #512714",
"q  c #542A15",
"w  c #5B2D16",
"e  c #532C1A",
"r  c #592E18",
"t  c #5E3016",
"y  c #57301C",
"u  c #5E3219",
"i  c #643317",
"p  c #683517",
"a  c #643519",
"s  c #693719",
"d  c #67381A",
"f  c #6C3A1B",
"g  c #723E1C",
"h  c #412B26",
"j  c #4B2D24",
"k  c #412E2A",
"l  c #4D3027",
"z  c #43312D",
"x  c #4D332C",
"c  c #5E3720",
"v  c #51362F",
"b  c #553B2E",
"n  c #433533",
"m  c #493733",
"M  c #443836",
"N  c #4A3935",
"B  c #443C3B",
"V  c #4A3E3C",
"C  c #523B34",
"Z  c #583F32",
"A  c #523F3A",
"S  c #633921",
"D  c #693D22",
"F  c #76411D",
"G  c #7B451E",
"H  c #7F481F",
"J  c #47403F",
"K  c #4C413E",
"L  c #5A4134",
"P  c #52423D",
"I  c #5E4639",
"U  c #744424",
"Y  c #794725",
"T  c #7C4A26",
"R  c #3D3C41",
"E  c #423E41",
"W  c #454244",
"Q  c #4C4443",
"!  c #4F4947",
"~  c #464548",
"^  c #4C4749",
"/  c #4C4B4C",
"(  c #514644",
")  c #544946",
"_  c #5E4C46",
"`  c #504748",
"'  c #544C4B",
"]  c #5B4E4B",
"[  c #55504F",
"{  c #5B514E",
"}  c #4E4E50",
"|  c #544F51",
" . c #584F50",
".. c #555254",
"X. c #5B5353",
"o. c #5C5857",
"O. c #56575B",
"+. c #5C5759",
"@. c #57585D",
"#. c #5B5B5B",
"$. c #604F46",
"%. c #655246",
"&. c #6B5547",
"*. c #64534B",
"=. c #695549",
"-. c #6D584B",
";. c #725847",
":. c #735B4B",
">. c #795F4D",
",. c #615653",
"<. c #635956",
"1. c #6A5D57",
"2. c #635D5D",
"3. c #6A5E5A",
"4. c #745F50",
"5. c #79604D",
"6. c #6F6057",
"7. c #64605F",
"8. c #6A605E",
"9. c #776150",
"0. c #72645B",
"q. c #5C5C61",
"w. c #615E61",
"e. c #5E6065",
"r. c #646364",
"t. c #6A6564",
"y. c #6A6867",
"u. c #646569",
"i. c #696668",
"p. c #66686D",
"a. c #6C6B6B",
"s. c #726D6C",
"d. c #71706F",
"f. c #6B6D72",
"g. c #6E7176",
"h. c #6F7278",
"j. c #737373",
"k. c #787270",
"l. c #71747A",
"z. c #79777A",
"x. c #76797E",
"c. c #7B7A7A",
"v. c #80471D",
"b. c #844A1F",
"n. c #884C1F",
"m. c #854C21",
"M. c #8A4E20",
"N. c #8E5122",
"B. c #925423",
"V. c #975824",
"C. c #985924",
"Z. c #777B80",
"A. c #7A7E83",
"S. c #7D8186",
"D. c #7F8388",
"F. c #818286",
"G. c #82858A",
"H. c #858A8E",
"J. c #8D8C8C",
"K. c #878B91",
"L. c #898D92",
"P. c #8B9196",
"I. c None",
/* pixels */
"I.I.I.I.I.I.I.I.I.I.I.I.I.I.I.I.I.I.I.I.I.I.I.I.I.I.I.I.I.I.I.I.I.I.I.I.I.I.I.I.I.I.I.I.I.I.I.I.I.I.I.I.I.I.I.I.I.I.I.I.I.I.I.I.",
"I.I.I.I.I.I.I.I.I.I.I.I.I.I.I.I.I.I.I.I.I.I.I.I.I.I.I.I.I.I.I.I.I.I.I.I.I.I.I.I.I.I.I.I.I.I.I.I.I.I.I.I.I.I.I.I.I.I.I.I.I.I.I.I.",
"I.I.I.I.I.I.I.I.I.I.I.I.I.I.I.I.I.I.I.I.I.I.I.I.I.I.I.I.I.I.I.I.I.I.I.I.I.I.I.I.I.I.I.I.I.I.I.I.I.I.I.I.I.I.I.I.I.I.I.I.I.I.I.I.",
"I.I.I.I.I.I.I.I.I.I.I.I.I.I.I.I.I.I.I.I.I.I.I.I.I.I.I.I.I.I.I.I.I.I.I.I.I.I.I.I.I.I.I.I.I.I.I.I.I.I.I.I.I.I.I.I.I.I.I.I.I.I.I.I.",
"I.I.I.I.I.I.I.I.I.I.I.I.I.I.I.I.I.I.I.I.I.I.I.I.I.I.I.I.I.I.I.I.I.I.I.I.I.I.I.I.I.I.I.I.I.I.I.I.I.I.I.I.I.I.I.I.I.I.I.I.I.I.I.I.",
"I.I.I.I.I.I.I.I.I.I.I.I.I.I.I.I.I.I.I.I.I.I.I.I.I.I.I.I.I.I.I.I.I.I.I.I.I.I.I.I.I.I.I.I.I.I.I.I.I.I.I.I.I.I.I.I.I.I.I.I.I.I.I.I.",
"I.I.I.I.I.I.I.I.I.I.I.I.I.I.I.I.I.I.I.I.I.I.I.I.I.I.I.I.I.I.I.I.I.I.I.I.I.I.I.I.I.I.I.I.I.I.I.I.I.I.I.I.I.I.I.I.I.I.I.I.I.I.I.I.",
"I.I.I.I.I.I.I.I.I.I.I.I.I.I.I.I.I.I.I.I.I.I.I.I.I.I.I.I.I.I.I.I.I.I.I.I.I.I.I.I.I.I.I.I.I.I.I.I.I.I.I.I.I.I.I.I.I.I.I.I.I.I.I.I.",
"I.I.I.I.I.I.I.I.I.I.I.I.I.I.I.I.I.I.I.I.I.I.I.I.I.I.I.I.I.I.I.I.I.I.I.I.I.I.I.I.I.I.I.I.I.I.I.I.I.I.I.I.I.I.I.I.I.I.I.I.I.I.I.I.",
"I.I.I.I.I.I.I.I.I.I.I.I.I.I.I.I.I.I.I.I.I.I.I.I.I.@ % % + % % % % % = & % @ & & I.I.I.I.I.I.I.I.I.I.I.I.I.I.I.I.I.I.I.I.I.I.I.I.",
"I.I.I.I.I.I.I.I.I.I.I.I.I.I.I.I.I.@ = = % * Q * : { X.P t.X._ s.7.m t.{ ) y.n K ] V % + + I.I.I.I.I.I.I.I.I.I.I.I.I.I.I.I.I.I.I.",
"I.I.I.I.I.I.I.I.I.I.I.I.I.I.I.% + : d.c.M ) d.M V r.7.P 2.X.] 7.[ z #.) [ #.m 7.r.o.K 7.K * n + I.I.I.I.I.I.I.I.I.I.I.I.I.I.I.I.",
"I.I.I.I.I.I.I.I.I.I.I.I.I.& ; <.a.K 7.7.K J #.K B a.[ N @.| K O.{ N j.Q [ #.k [ 7.[ ) 2.P 7.y.) % = I.I.I.I.I.I.I.I.I.I.I.I.I.I.",
"I.I.I.I.I.I.I.I.I.I.I.& : V n s.7.K ! j.K 3 y.X.M O.) M ..' K a.7.N 7.K [ o.> [ y.K ! a.P a.o.K <.<.; % I.I.I.I.I.I.I.I.I.I.I.I.",
"I.I.I.I.I.I.I.I.I.I.& B k.a.n K #.' M #.! = d.2.z #.' N ~ ^ B +.[ z } M ! ..* [ ..m o.a.L y...m a.#.n ) > + I.I.I.I.I.I.I.I.I.I.",
"I.I.I.I.I.I.I.I.@ % $ n r.#.' z 7.y.z [ ! = [ } > / 2 z ..` : R J % 2 > J / = W ~ z ..o.K ..J { 2.O.C a...1 % = I.I.I.I.I.I.I.I.",
"I.I.I.I.I.I.I.I.3 y.{ : J o.#.! K 7.1 1 B O * ; # % % + $ $ + $ O X O # % % O % % + ; 1 B ^ : 8.r.n 7.t.Q O ) 1 = I.I.I.I.I.I.I.",
"I.I.I.I.I.I.I.% Q 7.y.X.@ J #.#.@ J * O O O     X X       .                     . . . . % : : w.~ z c.2.* N t.[ % I.I.I.I.I.I.I.",
"I.I.I.I.I.I.= n % K 2.#.} = J / ; O       O : B E E  .X.w.w.w. .` w.q.2.+.| ) E B 1 % . . . O < * Q #.3 : y.j.O.% $ I.I.I.I.I.I.",
"I.I.I.I.I.& X.r.{ * : / o.! O * O   . , } r.Z.D.H.K.K.J.K.K.H.f.,.G.K.K.K.K.H.G.G.Z.i.| M #     O J E % { y.O.> M { % I.I.I.I.I.",
"I.I.I.I.I.% Q a.g.o.> O 3 1 $ . X M f.G.K.L.K.K.H.G.F.A.A.H.L.h.<.K.K.S.A.F.F.H.K.K.K.L.K.l.Q #   O O K [ ~ = ] y.#.1 % I.I.I.I.",
"I.I.I.I.= % $ n ' o.O.K % X . . ' A.L.K.G.c.6.{ A v l j j s.K.g.+.K.H.C j j v Z _ <.j.F.K.L.G.2.O   $ J 2 = 8.d.y.#.J + I.I.I.I.",
"I.I.I.I.n y.7.n O 1 | / - . X | L.K.G.3.l 5 q 0 t i i w 6 s.P.g.,.K.F.j w i i i 5 0 5 j ] F.L.L.2.* O   M 7.t.r.} J - O I.I.I.I.",
"I.I.I.% ( 7.j.a.' O - 1 # . V A.P.G.P 5 w p f F g m.m.f e s.L.g.+.K.F.l g b.M.n.t G s 5 5 x c.L.D...  O W ~ 3 > + % V n % I.I.I.",
"I.I.I.% > / #.r.#.o.K * . $ x.L.F.v 0 f T n.G n.G N.B.f c a.K.g.+.K.F.l g B.V.B.a N.N.t f s 9 d.H.D.1   O k K [ a.y.#.! + I.I.I.",
"I.I.I.% O + , B E ~ } 1 . V L.L.*.4 F n.N.M.G v.v.N.B.f r d.L.g.X.H.F.x g B.V.B.a M.N.u v.N.0 N H.L.o.  + ' #.r.a.#.~ 1 % I.I.I.",
"I.I.& = o.o.Q n O O * $ + r.L.H.8 w B.n.N.N.n.G m.N.N.f e s.L.f.<.L.D.x g N.V.N.d N.N.u N.M.u 4 c.L.c.- O : : * O O . . & I.I.I.",
"I.I.$ 1 a.j.d.y.7.X.M O - x.L.j.r f B.B.v.N.m.G N.N.N.d e d.K.g.+.L.D.v g N.V.N.d N.N.u N.N.f r 2.L.S.3 O z ) ) ! ' [ B % I.I.I.",
"I.I.+ : ^ / } ~ ~ ..J O 1 Z.L.2.f g N.N.v.M.M.F N.N.N.d 9 a.L.h.<.K.H.v g B.V.N.f M.N.i M.N.f F ) L.G.! % W ..O.r.j.r.W % I.I.I.",
"I.I.% O : : 1 z : : $ . 3 S.L.X.Y g N.N.G M.M.f N.N.m.d 9 s.K.j.<.K.D.m g B.V.N.f N.B.i N.N.f G V H.G.' O : 1 B B B n : % I.I.I.",
"I.I.% - o.t.d.d.2.o.*   V S.H.' v.F N.N.G N.N.f B.N.m.f l a.P.g.+.K.F.m f B.B.N.d N.V.r N.N.f G M H.G.X.O n B ] 8.t.8.] % I.I.I.",
"I.I.= - / O.2...} / *   J Z.K.' v.g N.N.F N.M.f V.N.m.f j a.P.f.+.H.F.m f B.V.N.d N.C.t M.N.f G V G.G.X.O ) 7.y.c.c.r.#.% I.I.I.",
"I.I.+ O % = > n n M = . V x.H.e.=.*.:.-.-.4.:.*.;.4.-.*.] l.K.p.+.G.D.| $.4.:.-.,.;.>.*.=.4.*.=.| G.D. .X = - - , 1 > > O I.I.I.",
"I.I.@ * K ' 7.y.y.a.B . B x.P.l.q.A.l.q.K.f.l.K.q.Z.l.q.A.l.L.f.+.G.A.g.q.L.p.p.G.w.D.A.q.K.p.p.Z.G.G.| . - J n B ) { Q + I.I.I.",
"I.I.% ; ~ } ../ ^ ^ , . B x.K.u.| #.+...q.X.+.2.| +.+.| #.l.L.f. .G.A.w.| w.+.+.w.| 2.2.| w.X.+.q.G.D. .O J q.#.y.d.e.O.% I.I.I.",
"I.I.I.O $ * , : ; ; % . 3 x.L...e 5 u u e u u 5 u u r q k f.L.p.+.A.A.E 6 a r w 6 u w 6 a r 6 r Q G.D. .. > B B B J J B % I.I.I.",
"I.I.% * [ { { 7.7.X.> . 2 l.K.O.g t m.b.g n.v.i m.v.g f b f.L.u. .G.S.( p m.m.G i m.m.t v.m.s g ^ D.D.' X : V n > > M > O I.I.I.",
"I.I.% : #.#.#.r.j.j.Q O 1 h.L...G d B.N.G B.B.d B.M.G G Z f.K.q.' F.A.E f M.B.m.s N.V.s M.N.g m.` D.A.` X Q a.j.d.d.d.r.+ I.I.I.",
"I.I.+ - R E / O.q...n O > g.K.@.G a B.B.g B.B.s B.n.F G Z f.L.q.' F.A.( f M.B.m.f N.V.i M.B.Y m.` A.A.^ X B O.#...../ ~ + I.I.I.",
"I.I.I.O + O * % - $ O . , g.K.#.G d B.N.G B.B.g B.n.g Y Z f.L.O.` F.S.` g N.N.b.f N.V.i M.V.g g | A.A.` . % 1 : ; - - $ % I.I.I.",
"I.I.% > a.s.8.t.t.<.K O : f.H.#.g s V.M.g V.N.g B.M.g m.Z f.L.O.^ D.A.' g B.M.m.f B.B.s M.V.g m./ D.S.K O > Q ) X.o.8.K % I.I.I.",
"I.I.$ 1 #.d.a.r...#.W + ; g.K.e.$.*.:.;.-.>.;.=.;.:.=.=.X.h.L.O.^ D.A.+.%.4.;.&.=.;.>.*.&.>.=.:.O.D.A.J   J q.#...#.a.{ % I.I.I.",
"I.I.% ; ^ / W R E W : X ; g.L.l.+.Z.x.O.K.p.g.K.O.Z.l.@.A.l.L...E D.Z.g.@.H.p.p.F.q.D.A.q.K.p.w.x.F.S.J O O * : - = : * % I.I.I.",
"I.I.% O % % + O % % O . - p.P.e.| #.#.| w.+.#.w.' w.2.| w.f.K.| E F.Z.q.| w.+.+.w. .w.w. .w.O.+.r.S.A.B O n { ,.,.X.2.) % I.I.I.",
"I.I.+ J y.A.J.z.a.r.K . % p.K.q.w 0 p s w s s q p p w t N h.L.| E G.A.E i s p i q p i q p p t i ^ A.A.V O K 2.r.#.#.2.u.+ I.I.I.",
"I.I.O , ..2.y.o.} } B X % p.K.q.s t b.m.f m.b.a m.G s G L f.K.| A G.F.E g M.M.g s m.m.u v.m.g g ' A.Z.B O 3 } ../ } / W + I.I.I.",
"I.I.= O 2 3 3 , % % X . - p.K.q.s i N.N.g N.N.s V.m.f m.I g.L.' B F.A.' G B.M.G g B.B.p M.N.g g | A.Z.n X O + = > % % @ % I.I.I.",
"I.I.I.O = N P { <.o.M . % p.K.q.s i B.N.G B.N.s B.m.g m.I g.K./ B F.Z.` G M.N.g g B.V.i M.N.v.m.| A.Z.M X K 8.y.a.a.t.2.% I.I.I.",
"I.I.% n #.2.q.#.d.e.K O O a.L.q.f p B.B.U B.M.f B.M.g m.I d.L.` M G.Z.` b.m.M.g g B.V.a M.B.G g | D.A.n $ Q o.#.a.c.d.#.: % I.I.",
"I.I.$ , ~ } } ~ ~ W ; O O t.K.#.f s B.M.g N.N.s V.M.g M.I h.K.^ M A.x.` b.M.B.m.F B.B.s M.B.g g ' A.Z.n X : 3 3 ~ ..[ ~ % @ I.I.",
"I.I.% O @ * = = K P :   O u.K.e.<.1.0.1.0.0.0.3.0.t.3.6.w.h.L.` n A.x.w.1.0.0.1.0.0.0.8.4.t.1.1.q.A.Z.n . X X O % = m m % I.I.I.",
"I.I.+ K o.{ o.7.y.7.) O O p.L.x.@.Z.z.q.L.f.f.K.+.Z.l.q.A.x.L.` M A.x.l.q.H.p.p.G.q.A.A.w.H.p.p.A.A.A.< . V t.y.y.y.s.a.> % I.I.",
"I.I.% 3 ....../ W ^ J O + r.P.u.`  .] )  .] ]  .) *.] ) +.f.L.( n A.Z.q.) ,.] ) X.) ] X.) ,.) ] q.A.Z.k X < O.r.r.O./ } > $ I.I.",
"I.I.$ - , 1 2 1 1 1 - O + r.K.#.w 5 s a q i s q a a q w C f.J.E n A.x.^ t i i w w i p q i i q w | A.Z.z . $ ; , > - - : $ = I.I.",
"I.I.% n ) J M J X.) n O + u.P.q.s i m.M.g n.m.s M.m.s m.I f.K.( m A.x.` v.M.n.g g M.N.g M.M.g g ` A.Z.: . : Q ] 7.7.7.) % I.I.I.",
"I.I.% X.z.c.7.7.2.#.) + o r.K.q.f s B.M.g N.m.s B.M.g M.I f.L.E z A.x.` m.M.B.G G B.B.g B.M.G U | A.A.k # B w.r.j.d.e.2.> % I.I.",
"I.I.% 1 ~ ~ W 3 E E 1 + + r.J.#.S c Y T S T U S m.Y S Y I f.P.E z A.Z.` D T T D D T m.D Y T D D ' A.x.h . : B 2 3 3 3 n - - I.I.",
"I.I.O = z z : : > n % . o r.K.e.X...| X.| | | | ..| +.....k.P.A z A.Z.+. .+. . .| ....| X...| X.q.A.x.h . % : k z z P K O @ I.I.",
"I.I.% o.r.d.k.t.7.e.J   o r.K.K.K.K.K.L.L.H.L.K.K.L.K.H.H.K.L.E z A.L.H.H.K.L.L.L.P.P.L.P.P.K.L.K.G.x.h . 1 a.c.y.r.r.u.: % I.I.",
"I.I.+ W / X.#.../ ^ > O o @.h.h.l.l.l.l.x.l.l.l.h.l.l.l.h.l.x.M h p.h.x.l.l.l.l.h.h.h.x.l.l.l.l.l.l.u.= X 1 } ../ } ^ W - % I.I.",
"I.I.% O X X X X X o X O @ 7 7 7 7 7 7 7 7 7 7 7 7 7 7 7 7 7 7 7 7 7 7 7 7 7 7 7 7 7 7 7 7 7 7 7 7 7 7 7 O $ X X O $ % O O I.I.I.",
"I.I.I.I.I.I.I.I.I.I.I.I.I.I.I.I.I.I.I.I.I.I.I.I.I.I.I.I.I.I.I.I.I.I.I.I.I.I.I.I.I.I.I.I.I.I.I.I.I.I.I.I.I.I.I.I.I.+ X + I.I.I.I.",
"I.I.I.I.I.I.I.I.I.I.I.I.I.I.I.I.I.I.I.I.I.I.I.I.I.I.I.I.I.I.I.I.I.I.I.I.I.I.I.I.I.I.I.I.I.I.I.I.I.I.I.I.I.I.I.I.I.I.I.I.I.I.I.I.",
"I.I.I.I.I.I.I.I.I.I.I.I.I.I.I.I.I.I.I.I.I.I.I.I.I.I.I.I.I.I.I.I.I.I.I.I.I.I.I.I.I.I.I.I.I.I.I.I.I.I.I.I.I.I.I.I.I.I.I.I.I.I.I.I."
};
