/* XPM */
static char *result[] = {
/* columns rows colors chars-per-pixel */
"64 64 21 1 ",
"  c black",
". c #13191B",
"X c #19323E",
"o c #401A22",
"O c #5A2F3D",
"+ c #252744",
"@ c #343D5F",
"# c #075652",
"$ c #017E4B",
"% c #90352F",
"& c #E9761D",
"* c #C3502A",
"= c #A24C57",
"- c #D56A62",
"; c #FFAF6D",
": c #FFEF7D",
"> c #376887",
", c #65709C",
"< c #FFC3A1",
"1 c #A3A8C4",
"2 c None",
/* pixels */
"2222222222222222222222222222222222222222222222222222222222222222",
"2222222222222222222222222222222222222222222222222222222222222222",
"2222222222222222222222222222222222222222222222222222222222222222",
"2222222222222222222222222222222222222222222222222222222222222222",
"2222222222222222222222222222222222222222222222222222222222222222",
"22222222222222222222222222222       2222222222222222222222222222",
"22222222222222222222222222   :::::::  22222222222222222222222222",
"2222222222222222222222222 :::;;;;;:;:: 2222222222222222222222222",
"222222222222222222222222 :;;;:;;;;;:;;: 222222222222222222222222",
"22222222222222222222222 :;;;;;:;;;;:;;;: 22222222222222222222222",
"2222222222222222222222 --;;;;;:     ;;;: 22222222222222222222222",
"2222222222222222222222  =---   <<<@<  ;;: 2222222222222222222222",
"222222222222222222222 ::  = <<@@@<@<<< ;: 2222222222222222222222",
"222222222222222222222 ;;:: <  @<<@<<<<  : 2222222222222222222222",
"22222222222222222222 -;;; < -;  <@<<  ;; : 222222222222222222222",
"22222222222222222222 -;;; <   ;: << -:   : 222222222222222222222",
"22222222222222222222 =-; <<@<@   <<   << ; 222222222222  2222222",
"222222222222222222222 -- <@< <@<<- <<< < ;   222222222 *% 222222",
"222222222222222222222 -= -@< <@<<- <<< < ; &&  22222  *%% 222222",
"222222222222222222222 = - <@<@<<<- <<<<<  ***&&     **%% 2222222",
"2222222222222222222222 -; -<<<       <<< %*****&& < %%o 22222222",
"22222222222222222222222 -; -  ;;;;:::  < %%%%%** << oo 222222222",
"2222222222222222222     =-; ;;;;;;;;:::  %%%%%% -<-=  2222222222",
"222222222222222222 <<<< --;;;;;;;;;;;::: o%%%%% =-  222222222222",
"222222222222222222 <<<<< -;-;;;    ;;;:: ooooo 2  22222222222222",
"22222222222222222 <<<<<< =--;;;;--;;;;:: ooooo 22222222222222222",
"22222222222222222 <<<<<< =-=;;;;;;;;;;: %     222222222222222222",
"22222222222222222 <<<<-<< = -;-;;;;;;;: %o 222222222222222222222",
"2222222222222222 <<<<-=<< = =--;;-;;;: %%o 222222222222222222222",
"2222222222222222 <<<  -<<<  =- -;-; ;: %%o 222222222222222222222",
"222222222222    o   2 -<<<<< = ---; : %%o  222222222222222222222",
"22222222222 %%% o%o   --<<<<<    --  %%o $ 222222222222222222222",
"222222222222   % %% %        ,>>>  %%%o #$ 222222222222222222222",
"222222222222222  *%% %%%%%%% @,,> %%oo X#$ 222222222222222222222",
"22222222222222222   2        +@,> o   XX#$ 222222222222222222222",
"2222222222222222222222 %%%%% +@,>  XXXXX#$ 222222222222222222222",
"2222222222222222222222 %%ooo  @,> XXXXXX#$ 222222222222222222222",
"2222222222222222222222      X @, XXX.XX#$  222222222222222222222",
"2222222222222222222222 #XXXXX @, XX.XXXX#$ 222222222222222222222",
"222222222222222222222  #XXXX +@> ..XXXXX#$ 222222222222222222222",
"22222222222222222222 1  XX  +@,> ...XXXX#$ 222222222222222222222",
"22222222222222222222 1@+  ++@,,>   .XXXXX#$ 22222222222222222222",
"222222222222222222222 1@++@@,,,,>   .XXXX#$ 22222222222222222222",
"222222222222222222222 11,,,,,,,,,>>  .   #$ 22222222222222222222",
"2222222222222222222222  111,,,,,,,, 2 OOO   22222222222222222222",
"222222222222222222222222   11111111 22 OOOO 22222222222222222222",
"22222222222222222222222222         222 OOO 222222222222222222222",
"22222222222222222222222222 # OOO 22222 OOO 222222222222222222222",
"222222222222222222222222222 OOOO 222222 OO 222222222222222222222",
"2222222222222222222222222222 OOO 2222222  2222222222222222222222",
"22222222222222222222222222222 OO 2222222222222222222222222222222",
"222222222222222222222222222222  22222222222222222222222222222222",
"2222222222222222222222222222222222222222222222222222222222222222",
"2222222222222222222222222222222222222222222222222222222222222222",
"2222222222222222222222222222222222222222222222222222222222222222",
"2222222222222222222222222222222222222222222222222222222222222222",
"2222222222222222222222222222222222222222222222222222222222222222",
"2222222222222222222222222222222222222222222222222222222222222222",
"2222222222222222222222222222222222222222222222222222222222222222",
"2222222222222222222222222222222222222222222222222222222222222222",
"2222222222222222222222222222222222222222222222222222222222222222",
"2222222222222222222222222222222222222222222222222222222222222222",
"2222222222222222222222222222222222222222222222222222222222222222",
"2222222222222222222222222222222222222222222222222222222222222222"
};
