/* XPM */
static char *result[] = {
/* columns rows colors chars-per-pixel */
"64 64 23 1 ",
"  c black",
". c #13191B",
"X c #281727",
"o c #19323E",
"O c #401A22",
"+ c #412433",
"@ c #5A2F3D",
"# c #252744",
"$ c #343D5F",
"% c #075652",
"& c #017E4B",
"* c #90352F",
"= c #E9761D",
"- c #C3502A",
"; c #A24C57",
": c #D56A62",
"> c #FFAF6D",
", c #FFEF7D",
"< c #376887",
"1 c #65709C",
"2 c #FFC3A1",
"3 c #A3A8C4",
"4 c None",
/* pixels */
"4444444444444444444444444444444444444444444444444444444444444444",
"4444444444444444444444444444444444444444444444444444444444444444",
"4444444444444444444444444444444444444444444444444444444444444444",
"4444444444444444444444444444444444444444444444444444444444444444",
"4444444444444444444444444444444444444444444444444444444444444444",
"4444444444444444444444444444444444444444444444444444444444444444",
"4444444444444444444444444444444444444444444444444444444444444444",
"4444444444444444444444444444444444444444444444444444444444444444",
"4444444444444444444444444444444444444444444444444444444444444444",
"4444444444444444444444444444444444444444444444444444444444444444",
"4444444444444444444444444444444444444444444444444444444444444444",
"4444444444444444444444444444444444444444444444444444444444444444",
"4444444444444444444444444444444444444444444444444444444444444444",
"4444444444444444444444444444444444444444444444444444444444444444",
"4444444444444444444444444444444444444444444444444444444444444444",
"4444444444444444444444444444444444444444444444444444444444444444",
"4444444444444444444444444444444444444444444444444444444444444444",
"4444444444444444444444444444444444444444444444444444444444444444",
"4444444444444444444444444444444444444444444444444444444444444444",
"4444444444444444444444444444444444444444444444444444444444444444",
"44444444444444444444444444444       4444444444444444444444444444",
"44444444444444444444444444   ,,,,,,,  44444444444444444444444444",
"4444444444444444444444444 ,,,>>>>>,>,, 4444444444444444444444444",
"444444444444444444444444 ,>>>,>>>>>,>>, 444444444444444444444444",
"44444444444444444444444 ,>>>>>,>>>>,>>>, 44444444444444444444444",
"4444444444444444444444 ::>>>>>,     >>>, 44444444444444444444444",
"4444444444444444444444  ;:::   222$2  >>, 4444444444444444444444",
"444444444444444444444 ,,  ; 22$$$2$222 >, 4444444444444444444444",
"444444444444444444444 >>,, 2  $22$2222  , 4444444444444444444444",
"44444444444444444444 :>>> 2 :>  2$22  >> , 444444444444444444444",
"44444444444444444444 :>>> 2   >, 22 :,   , 444444444444444444444",
"44444444444444444444 ;:> 22$2$   22   22 > 444444444444444444444",
"444444444444444444444 :: 2$2 2$22: 222 2 >  44444444444444444444",
"444444444444444444444 :; :$2 2$22: 222 2 > = 4444444444444444444",
"444444444444444444444 ; : 2$2$222: 22222  -= 4444444444444444444",
"4444444444444444444444 :> :222       222 *--= 444444444444444444",
"44444444444444444444444 :> :  >>>>,,,  2 **-== 44444444444444444",
"4444444444444444444     ;:> >>>>>>>>,,,  **--= 44444444444444444",
"444444444444444444 2222 ::>>>>>>>>>>>,,, O**--= 4444444444444444",
"444444444444444444 22222 :>:>>>    >>>,, O***--= 444444444444444",
"44444444444444444 222222 ;::>>>>::>>>>,, O****-= 444444444444444",
"44444444444444444 222222 ;:;>>>>>>>>>>, * O****-= 44444444444444",
"44444444444444444 2222:22 ; :>:>>>>>>>, * O*****- 44444444444444",
"4444444444444444 2222:;22 ; ;::>>:>>>, ** OO**OO 444444444444444",
"4444444444444444 222  :222  ;: :>:> >, ***  OO  4444444444444444",
"444444444444    O   4 :22222 ; :::> , ***O 4  O 4444444444444444",
"44444444444 *** O*O   ::22222    ::  ***O  4 O* 4444444444444444",
"444444444444   * ** *        1<<<  ***OO & 4 O* 4444444444444444",
"444444444444444  -** ******* $11< **OO  %& 4 *- 4444444444444444",
"44444444444444444   4        #$1< *   oo%& 4 *- 4444444444444444",
"4444444444444444444444 ***** #$1<  ooooo%& 4 *- 4444444444444444",
"4444444444444444444444 *****  $1< oooooo%& 4 *- 4444444444444444",
"4444444444444444444444      o $1 ooooooo%& 44  44444444444444444",
"444444444444444444444 %oooooo $1 ooooooo%& 444444444444444444444",
"444444444444444444444 %ooooo #$< ooooooo%& 444444444444444444444",
"44444444444444444444 3  oo  #$1< .oooooo%& 444444444444444444444",
"44444444444444444444 3$#  ##$11<  .ooooo%& 444444444444444444444",
"444444444444444444444 3$##$$1111<   ooo%%& 444444444444444444444",
"444444444444444444444 33111111111<<  o%    444444444444444444444",
"444444444444444444444   33311111111  . @@@ 444444444444444444444",
"444444444444444444444 @@   33333333 4 +@@@ 444444444444444444444",
"444444444444444444444 @+ 44        444 +@ 4444444444444444444444",
"444444444444444444444 XX 4444444444444 XX 4444444444444444444444",
"444444444444444444444   444444444444444  44444444444444444444444"
};
