/* XPM */
static char *result[] = {
/* columns rows colors chars-per-pixel */
"64 64 3 1 ",
"  c #8C5B00",
". c #764E05",
"X c #815502",
/* pixels */
"                                                                ",
"                                                                ",
"                                                                ",
"                                                            X.X ",
"                                                            X.X ",
"                                                                ",
"                                                                ",
"                                                                ",
"              XX                                                ",
"             X...X                                              ",
"            X.....                                              ",
"            ......X                                             ",
"            X.....X                                             ",
"            X.....                                              ",
"             X..X                                               ",
"                                                                ",
"                                                                ",
"                                                                ",
"                                                     X...X      ",
"                                                    X.....X     ",
"                                                    ......X     ",
"                                                    .......     ",
"                                                    ......X     ",
"                                                    X.....X     ",
"                                                     X..XX      ",
"                                                                ",
"                                                                ",
"                                                                ",
"                   X.X                                          ",
"                  ....X                                         ",
"                 X....X                                         ",
"                  ....X                                         ",
"                  X..X                                          ",
"                    X                                           ",
"                                                                ",
"                                                                ",
"                                                                ",
"                                                                ",
"                                                                ",
"                                                                ",
"                                                                ",
"                                                                ",
"                                              XXXX              ",
"                                             X.....X            ",
"                                            X.......            ",
"                                            ........X           ",
"                                           X.........           ",
"                                           X........X           ",
"                                            ........X           ",
"                                            X.......            ",
"                                             X.....X            ",
"     XX                                        XXX              ",
"    X...                                                        ",
"    ....X                                                       ",
"    ....                                                        ",
"    X..X                                                        ",
"                                                                ",
"                                                                ",
"                                                                ",
"                                                                ",
"                                                                ",
"                                                                ",
"                                                                ",
"                                                                "
};
