/* XPM */
static char *result[] = {
/* columns rows colors chars-per-pixel */
"64 64 23 1 ",
"  c black",
". c #13191B",
"X c #281727",
"o c #19323E",
"O c #401A22",
"+ c #412433",
"@ c #5A2F3D",
"# c #252744",
"$ c #343D5F",
"% c #075652",
"& c #017E4B",
"* c #90352F",
"= c #E9761D",
"- c #C3502A",
"; c #A24C57",
": c #D56A62",
"> c #FFAF6D",
", c #FFEF7D",
"< c #376887",
"1 c #65709C",
"2 c #FFC3A1",
"3 c #A3A8C4",
"4 c None",
/* pixels */
"4444444444444444444444444444444444444444444444444444444444444444",
"4444444444444444444444444444444444444444444444444444444444444444",
"4444444444444444444444444444444444444444444444444444444444444444",
"4444444444444444444444444444444444444444444444444444444444444444",
"4444444444444444444444444444444444444444444444444444444444444444",
"4444444444444444444444444444444444444444444444444444444444444444",
"4444444444444444444444444444444444444444444444444444444444444444",
"4444444444444444444444444444444444444444444444444444444444444444",
"4444444444444444444444444444444444444444444444444444444444444444",
"4444444444444444444444444444444444444444444444444444444444444444",
"4444444444444444444444444444444444444444444444444444444444444444",
"4444444444444444444444444444444444444444444444444444444444444444",
"4444444444444444444444444444444444444444444444444444444444444444",
"4444444444444444444444444444444444444444444444444444444444444444",
"4444444444444444444444444444444444444444444444444444444444444444",
"4444444444444444444444444444444444444444444444444444444444444444",
"4444444444444444444444444444444444444444444444444444444444444444",
"4444444444444444444444444444444444444444444444444444444444444444",
"4444444444444444444444444444444444444444444444444444444444444444",
"4444444444444444444444444444       44444444444444444444444444444",
"44444444444444444444444444  ,,,,,,,   44444444444444444444444444",
"4444444444444444444444444 ,,>,>>>>>,,, 4444444444444444444444444",
"444444444444444444444444 ,>>,>>>>>,>>>, 444444444444444444444444",
"44444444444444444444444 ,>>>,>>>>,>>>>>, 44444444444444444444444",
"44444444444444444444444 ,>>>     ,>>>>>:: 4444444444444444444444",
"4444444444444444444444 ,>>  2$222   :::;  4444444444444444444444",
"4444444444444444444444 ,> 222$2$$$22 ;  ,, 444444444444444444444",
"4444444444444444444444 ,  2222$22$  2 ,,>> 444444444444444444444",
"444444444444444444444 , >>  22$2  >: 2 >>>: 44444444444444444444",
"444444444444444444444 ,   ,: 22 ,>   2 >>>: 44444444444444444444",
"444444444444444444444 > 22   22   $2$22 >:; 44444444444444444444",
"44444444444444444444  > 2 222 :22$2 2$2 :: 444444444444444444444",
"4444444444444444444 = > 2 222 :22$2 2$: ;: 444444444444444444444",
"4444444444444444444 =-  22222 :222$2$2 : ; 444444444444444444444",
"444444444444444444 =--* 222       222: >: 4444444444444444444444",
"44444444444444444 ==-** 2  ,,,>>>>  : >: 44444444444444444444444",
"44444444444444444 =--**  ,,,>>>>>>>> >:;     4444444444444444444",
"4444444444444444 =--**O ,,,>>>>>>>>>>>:: 2222 444444444444444444",
"444444444444444 =--***O ,,>>>    >>>:>: 22222 444444444444444444",
"444444444444444 =-****O ,,>>>>::>>>>::; 222222 44444444444444444",
"44444444444444 =-****O * ,>>>>>>>>>>;:; 222222 44444444444444444",
"44444444444444 -*****O * ,>>>>>>>:>: ; 22:2222 44444444444444444",
"444444444444444 OO**OO ** ,>>>:>>::; ; 22;:222 44444444444444444",
"4444444444444444  OO  *** ,> >:>: :;  222:  22 44444444444444444",
"4444444444444444 O  4 O*** , >::: ; 22222: 4  * 4444444444444444",
"4444444444444444 *O 4  O***  :::;  22222:: 4 O* 4444444444444444",
"4444444444444444 *O 4 & OO*** :; 2222222:; 4 O* 4444444444444444",
"4444444444444444 -* 4 &%  OO**      22:;;2 4 *- 4   444444444444",
"4444444444444444 -* 4 &%oo   **    *      4  *-  *** 44444444444",
"4444444444444444 -* 4 &%ooooo  <<<1        * *- *   444444444444",
"4444444444444444 -* 4 &%oooooo <11$ *******  *-  444444444444444",
"44444444444444444  44 &%oooooo <1$#        44  44444444444444444",
"444444444444444444444 &%oooooo <1$# ooooo% 444444444444444444444",
"444444444444444444444 &%oooooo <1$ oooooo% 444444444444444444444",
"444444444444444444444 &%oooooo. 1$ oooooo% 444444444444444444444",
"444444444444444444444 &%ooooo.  1$ oooooo% 444444444444444444444",
"444444444444444444444 &%%ooo. 4 <$# .oooo% 444444444444444444444",
"444444444444444444444 &&%oo. 44 <1$#  o%  3 44444444444444444444",
"444444444444444444444    %o 444 <11$##  #$3 44444444444444444444",
"444444444444444444444 @@@ . 4  <1111$$##$3 444444444444444444444",
"444444444444444444444 @@@+ 4 <<11111111133 444444444444444444444",
"4444444444444444444444 @+ 44 11111111333   444444444444444444444",
"4444444444444444444444 XX 44 33333333   XX 444444444444444444444",
"44444444444444444444444  4444        444   444444444444444444444"
};
