/* XPM */
static char *result[] = {
/* columns rows colors chars-per-pixel */
"64 64 226 2 ",
"   c #090200",
".  c #0F0902",
"X  c #160900",
"o  c #1A1710",
"O  c #1B231E",
"+  c #21221A",
"@  c #001327",
"#  c #021425",
"$  c #00142E",
"%  c #00162F",
"&  c #021B2E",
"*  c #001630",
"=  c #071E32",
"-  c #001A3A",
";  c #0A2132",
":  c #0E263A",
">  c #1A2E36",
",  c #2B2E24",
"<  c #26312D",
"1  c #413C0F",
"2  c #554100",
"3  c #484416",
"4  c #4D4515",
"5  c #6B5602",
"6  c #6D5803",
"7  c #615009",
"8  c #6D5D18",
"9  c #6E6015",
"0  c #776414",
"q  c #786A2D",
"w  c #7E6E34",
"e  c #6E703B",
"r  c #012242",
"t  c #072B46",
"y  c #0B2D44",
"u  c #052C4A",
"i  c #112C41",
"p  c #132D41",
"a  c #11344C",
"s  c #083451",
"d  c #123650",
"f  c #113853",
"g  c #123C56",
"h  c #103F5D",
"j  c #283944",
"k  c #1E4058",
"l  c #3C4F4E",
"z  c #22475A",
"x  c #23445D",
"c  c #344E5A",
"v  c #1C4D6A",
"b  c #0B4E71",
"n  c #085178",
"m  c #185C7E",
"M  c #284D67",
"N  c #2A556F",
"B  c #3F5C69",
"V  c #265674",
"C  c #2B5A77",
"Z  c #2E5874",
"A  c #2B5F7A",
"S  c #315C79",
"D  c #2C627D",
"F  c #346976",
"G  c #3A637C",
"H  c #415A5A",
"J  c #546548",
"K  c #51624C",
"L  c #616F4F",
"P  c #707C56",
"I  c #7B7F57",
"U  c #517061",
"Y  c #4E7475",
"T  c #4B777E",
"R  c #8B720F",
"E  c #836C15",
"W  c #AB7A00",
"Q  c #807837",
"!  c #80723A",
"~  c #857439",
"^  c #8D7D3D",
"/  c #8C7D43",
"(  c #85794C",
")  c #8B7E4E",
"_  c #7D8B5D",
"`  c #6C8470",
"'  c #B18605",
"]  c #95822D",
"[  c #A18822",
"{  c #AA912A",
"}  c #B09732",
"|  c #D1A101",
" . c #E9CC38",
".. c #898544",
"X. c #978644",
"o. c #938449",
"O. c #94854A",
"+. c #9C8C4A",
"@. c #8E8A5A",
"#. c #9C8C50",
"$. c #988C55",
"%. c #968959",
"&. c #9A8C59",
"*. c #95915F",
"=. c #A29250",
"-. c #A29355",
";. c #A09156",
":. c #A79655",
">. c #A6965A",
",. c #A0925C",
"<. c #AF9D58",
"1. c #B09F5C",
"2. c #B9A141",
"3. c #9D9C75",
"4. c #A89B63",
"5. c #A99B64",
"6. c #A39B7A",
"7. c #B4A360",
"8. c #B7A663",
"9. c #B6A667",
"0. c #BAA964",
"q. c #B0A76C",
"w. c #BFAF6C",
"e. c #AFA170",
"r. c #ADA37A",
"t. c #AAA07D",
"y. c #C9AF4A",
"u. c #D7BB50",
"i. c #C0AE69",
"p. c #C5B36C",
"a. c #CAB973",
"s. c #CEBD78",
"d. c #0F5E8A",
"f. c #1C658A",
"g. c #106090",
"h. c #126291",
"j. c #116596",
"k. c #156899",
"l. c #196D9E",
"z. c #266484",
"x. c #356281",
"c. c #386787",
"v. c #3E7384",
"b. c #3F7A8D",
"n. c #296D91",
"m. c #29749D",
"M. c #367092",
"N. c #166EA4",
"B. c #1F74A7",
"V. c #1F7DB7",
"C. c #2673A0",
"Z. c #2C7AA7",
"A. c #2279AE",
"S. c #397DA4",
"D. c #387FA6",
"F. c #2D7FB0",
"G. c #437593",
"H. c #2583BD",
"J. c #2C85BA",
"K. c #3884B1",
"L. c #3B8BBC",
"P. c #5E878C",
"I. c #508697",
"U. c #4280A1",
"Y. c #4F85A4",
"T. c #4886A8",
"R. c #468AAF",
"E. c #4A8BB0",
"W. c #448DB8",
"Q. c #4992BD",
"!. c #2A87C0",
"~. c #2D8AC3",
"^. c #338EC6",
"/. c #3B93CA",
"(. c #4E97C3",
"). c #4499CC",
"_. c #569FCB",
"`. c #4C9FD1",
"'. c #4EA4D9",
"]. c #57A5D5",
"[. c #5DA8D6",
"{. c #55A7DA",
"}. c #5FAEDE",
"|. c #62A3C8",
" X c #64B2E1",
".X c #6DB5E0",
"XX c #77B9E1",
"oX c #76BDE9",
"OX c #ADA68C",
"+X c #BCB082",
"@X c #B7B096",
"#X c #B9B190",
"$X c #BAB290",
"%X c #BBB499",
"&X c #BDB69C",
"*X c #D4C487",
"=X c #D9C780",
"-X c #DDCC86",
";X c #DACD9C",
":X c #E5D38B",
">X c #ECDA92",
",X c #E8D99C",
"<X c #F0DD94",
"1X c #F0DE97",
"2X c #F0E09D",
"3X c #D8CDA7",
"4X c #D1CAAE",
"5X c #D5D0BA",
"6X c #E8DBA7",
"7X c #FCE9A0",
"8X c #FAEAA8",
"9X c #FFEFAA",
"0X c #F1E4B0",
"qX c #FBEEBA",
"wX c #FFF2B4",
"eX c #84C7F0",
"rX c #8FCDF3",
"tX c #DEDACC",
"yX c #EAE2C2",
"uX c #FAEFC3",
"iX c #FFF6C5",
"pX c #EEEBDE",
"aX c #FFF8D2",
"sX c #FCF6DA",
"dX c #FCFAEB",
"fX c None",
/* pixels */
"fXfXfXfXfXfXfXfXfXfXfXfXfXfXfXfXfXfXfXfXfXfXfXfXfXfXfXfXfXfXfXfXfXfXfXfXfXfXfXfXfXfXfXfXfXfXfXfXfXfXfXfXfXfXfXfXfXfXfXfXfXfXfXfX",
"fXfXfXfXfXfXfXfXfXfXfXfXfXfXfXfXfXfXfXfXfXfXfXfXfXfXfXfXfXfXfXfXfXfXfXfXfXfXfXfXfXfXfXfXfXfXfXfXfXfXfXfXfXfXfXfXfXfXfXfXfXfXfXfX",
"fXfXfXfXfXfXfXfXfXfXfXfXfXfXfXfXfXfXfXfXfXfXfXfXfXfXfXfXfXfXfXfXfXfXfXfXfXfXfXfXfXfXfXfXfXfXfXfXfXfXfXfXfXfXfXfXfXfXfXfXfXfXfXfX",
"fXfXfXfXfXfXfXfXfXfXfXfXfXfXfXfXfXfXfXfXfXfXfXfXfXfXfXfXfXfXfXfXfXfXfXfXfXfXfXfXfXfXfXfXfXfXfXfXfXfXfXfXfXfXfXfXfXfXfXfXfXfXfXfX",
"fXfXfXfXfXfXfXfXfXfXfXfXfXfXfXfXfXfXfXfXfXfXfXfXfXfXfXfXfXfXfXfXfXfXfXfXfXfXfXfXfXfXfXfXfXfXfXfXfXfXfXfXfXfXfXfXfXfXfXfXfXfXfXfX",
"fXfXfXfXfXfXfXfXfXfXfXfXfXfXfXfXfXfXfXfXfXfXfXfXfXfXfXfXfXfXfXfXfXfXfXfXfXfXfXfXfXfXfXfXfXfXfXfXfXfXfXfXfXfXfXfXfXfXfXfXfXfXfXfX",
"fXfXfXfXfXfXfXfXfXfXfXfXfXfXfXfXfXfXfXfXfXfXfXfXfXfXfXfXfXfXfXfXfXfXfXfXfXfXfXfXfXfXfXfXfXfXfXfXfXfXfXfXfXfXfXfXfXfXfXfXfXfXfXfX",
"fXfXfXfXfXfXfXfXfXfXfXfXfXfXfXfXfXfXfXfXfXfXfXfXfXfXfXfXfXfXfXfXfXfXfXfXfXfXfXfXfXfXfXfXfXfXfXfXfXfXfXfXfXfXfXfXfXfXfXfXfXfXfXfX",
"fXfXfXfXfXfXfXfXfXfXfXfXfXfXfXfXfXfXfXfXfXfXfXfXfXfXfXfXfXfXfXfXfXfXfXfXfXfXfXfXfXfXfXfXfXfXfXfXfXfXfXfXfXfXfXfXfXfXfXfXfXfXfXfX",
"fXfXfXfXfXfXfXfXfXfXfXfXfXfXfXfXfXfXfXfXfXfXfXfXfXfXfXfXfXfXfXfXfXfXfXfXfXfXfXfXfXfXfXfXfXfXfXfXfXfXfXfXfXfXfXfXfXfXfXfXfXfXfXfX",
"fXfXfXfXfXfXfXfXfXfXfXfXfXfXfXfXfXfXfXfXfXfXfXfXfXfXfXfXfXfXfXfXfXfXfXfXfXfXfXfXfXfXfXfXfXfXfXfXfXfXfXfXfXfXfXfXfXfXfXfXfXfXfXfX",
"fXfXfXfXfXfXfXfXfXfXfXfXfXfXfXfXfXfXfXfXfXfXfXfXfXfXfXfXfXfXfXfXfXfXfXfXfXfXfXfXfXfXfXfXfXfXfXfXfXfXfXfXfXfXfXfXfXfXfXfXfXfXfXfX",
"fXfXfXfXfXfXfXfXfXfXfXfXfXfXfXfXfXfXfXfXfXfXfXfXfXfXfXfXfXfXfXfXfXfXfXfXfXfXfXfXfXfXfXfXfXfXfXfXfXfXfXfXfXfXfXfXfXfXfXfXfXfXfXfX",
"fXfXfXfXfXfXfXfXfXfXfXfXfXfXfXfXfXfXfXfXfXfXfXfXfXfXfXfXfXfXfXfXfXfXfXfXfXfXfXfXfXfXfXfXfXfXfXfXfXfXfXfXfXfXfXfXfXfXfXfXfXfXfXfX",
"fXfXfXfXfXfXfXfXfXfXfXfXfXfXfXfXfXfXfXfXfXfXfXfXfXfXfXfXfXfXfXfXfXfXfXfXfXfXfXfXfXfXfXfXfXfXfXfXfXfXfXfXfXfXfXfXfXfXfXfXfXfXfXfX",
"fXfXfXfXfXfXfXfXfXfXfXfXfXfXfXfXfXfXfXfXfXfXfXfXfXfXfXfXfXfXfXfXfXfXfXfXfXfXfXfXfXfXfXfXfXfXfXfXfXfXfXfXfXfXfXfXfXfXfXfXfXfXfXfX",
"fXfXfXfXfXfXfXfXfXfXfXfXfXfXfXfXfXfXfXfXfXfXfXfXfXfXfXfXfXfXfXfXfXfXfXfXfXfXfXfXfXfXfXfXfXfXfXfXfXfXfXfXfXfXfXfXfXfXfXfXfXfXfXfX",
"fXfXfXfXfXfXfXfXfXfXfXfXfXfXfXfXfXfXfX#.9.+X%Xt.fXfXfXfXfXfXfXfXfXfXfXfXfXfXfXfXfXfXfXfXfXfXfXfXfXfXfXfXfXfXfXfXfXfXfXfXfXfXfXfX",
"fXfXfXfXfXfXfXfXfXfXfXfXfXfXfXfXO.;.^ 8.:X9XqX*X4.%X%Xt.fXfXfXfXfXfXfXfXfXfXfXfXfXfXfXfXfXfXfXfXfXfXfXfXfXfXfXfXfXfXfXfXfXfXfXfX",
"fXfXfXfXfXfXfXfXfXfXfXfXfXfXfXO.p.,Xe.X.0.s.7.r.5XaXwX0X5.fXfXfXfXfXfXfXfXfXfXfXfXfXfXfXfXfXfXfXfXfXfXfXfXfXfXfXfXfXfXfXfXfXfXfX",
"fXfXfXfXfXfXfXfXfXfXfXfXfXfXfX:.a.1X0X#Xo.X.-XuXwX7X<X=X0.%.6.fXfXfXfXfXfXfXfXfXfXfXfXfXfXfXfXfXfXfXfXfXfXfXfXfXfXfXfXfXfXfXfXfX",
"fXfXfXfXfXfXfXfXfXfXfXfXfXfX! X.i.=X7XiX4X$.7.a.-X=Xi.1.e.5X0X>.fXfXfXfXfXfXfXfXfXfXfXfXfXfXfXfXfXfXfXfXfXfXfXfXfXfXfXfXfXfXfXfX",
"fXfXfXfXfXfXfXfXfXfXfXfXfXfX:.+.=.0.=X7XwXyX&X3.o.o.+.0.2X9X<X-.fXfXfXfXfXfXfXfXfXfXfXfXfXfXfXfXfXfXfXfXfXfXfXfXfXfXfXfXfXfXfXfX",
"fXfXfXfXfXfXfXfXfXfXfXfXfX! 1.a.:.X.1.a.>X9XiXsX5XOX&.,.1.<.:./ fXfXfXfXfXfXfXfXfXfXfXfXfXfXfXfXfXfXfXfXfXfXfXfXfXfXfXfXfXfXfXfX",
"fXfXfXfXfXfXfXfXfXfXfXfXfXw +.0.s.8.o.=.0.=X7X9XiXsXpXpX5X@Xr.) fXfXfXfXfXfXfXfXfXfXfXfXfXfXfXfXfXfXfXfXfXfXfXfXfXfXfXfXfXfXfXfX",
"fXfXfXfXfXfXfXfXfXfXfXfXfXfXq X.7.=X,X$X&.=.s.<X7X9XwXwXaXdXdXtXfXfXfXfXfXfXfXfXfXfXfXfXfXfXfXfXfXfXfXfXfXfXfXfXfXfXfXfXfXfXfXfX",
"fXfXfXfXfXfXfXfXfXfXfXfXfXfX~ <.=.I q.;X3Xe.$.*.a.-X:X<X7X8X8X6X( fXfXfXfXfXfXfXfXfXfXfXfXfXfXfXfXfXfXfXfXfXfXfXfXfXfXfXfXfXfXfX",
"fXfXfXfXfXfXfXfXfXfXfXfXfXfX^ p.3.m.T L Y P.v.M.P.` @.*.w.p.i.-.fXfXfXfXfXfXfXfXfXfXfXfXfXfXfXfXfXfXfXfXfXfXfXfXfXfXfXfXfXfXfXfX",
"fXfXfXfXfXfXfXfXfXfXfXfXfXfXw <.` !.].B.V.'./.V G Q.(.R.l H K fXfXfXfXfXfXfXfXfXfXfXfXfXfXfXfXfXfXfXfXfXfXfXfXfXfXfXfXfXfXfXfXfX",
"fXfXfXfXfXfXfXfXfXfXfXfXfXfXfX^ P m.^.V.~. X}.N < m.[.c j k.fXfXfXfXfXfXfXfXfXfXfXfXfXfXfXfXfXfXfXfXfXfXfXfXfXfXfXfXfXfXfXfXfXfX",
"fXfXfXfXfXfXfXfXfXfXfXfXfXfXfXfXq Q _ m.~..XeXY.c J._.H z (.z.fXfXfXfXfXfXfXfXfXfXfXfXfXfXfXfXfXfXfXfXfXfXfXfXfXfXfXfXfXfXfXfXfX",
"fXfXfXfXfXfXfXfXfXfXfXfXfXfXfXfXfX'  .U H.}.rXXXG.v W.Y.M..Xz.fXfXfXfXfXfXfXfXfXfXfXfXfXfXfXfXfXfXfXfXfXfXfXfXfXfXfXfXfXfXfXfXfX",
"fXfXfXfXfXfXfXfXfXfXfXfXfXfXfXfXfXW | U V.`.}.l + v Z.n.< B fXfXfXfXfXfXfXfXfXfXfXfXfXfXfXfXfXfXfXfXfXfXfXfXfXfXfXfXfXfXfXfXfXfX",
"fXfXfXfXfXfXfXfXfXfXfXfXfXfXfXfXfXfXe f.k.!.M.o D K.Z.J.z X fXfXfXfXfXfXfXfXfXfXfXfXfXfXfXfXfXfXfXfXfXfXfXfXfXfXfXfXfXfXfXfXfXfX",
"fXfXfXfXfXfXfXfXfXfXfXfXfXfXfXfXfXn B.H.k.g.v o M.].[.(.>   fXfXfXfXfXfXfXfXfXfXfXfXfXfXfXfXfXfXfXfXfXfXfXfXfXfXfXfXfXfXfXfXfXfX",
"fXfXfXfXfXfXfXfXfXfXfXfXfXfXfXfXfXh./.}.!.N.g.; > K.Q.j . fXfXfXfXfXfXfXfXfXfXfXfXfXfXfXfXfXfXfXfXfXfXfXfXfXfXfXfXfXfXfXfXfXfXfX",
"fXfXfXfXfXfXfXfXfXfXfXfXfXfXfXfXb A.`._.A.H.H.N.h y ; g b fXfXfXfXfXfXfXfXfXfXfXfXfXfXfXfXfXfXfXfXfXfXfXfXfXfXfXfXfXfXfXfXfXfXfX",
"fXfXfXfXfXfXfXfXfXfXfXfXfXfXfXfXj./.D.h.N.!.~././.A.F.B.C.fXfXfXfXfXfXfXfXfXfXfXfXfXfXfXfXfXfXfXfXfXfXfXfXfXfXfXfXfXfXfXfXfXfXfX",
"fXfXfXfXfXfXfXfXfXfXfXfXfXfXfXb B.].U.n N.!.^.{. X{..XD.L.T.fXfXfXfXfXfXfXfXfXfXfXfXfXfXfXfXfXfXfXfXfXfXfXfXfXfXfXfXfXfXfXfXfXfX",
"fXfXfXfXfXfXfXfXfXfXfXfXfXfXfXb J.Q.fXfXA V.^.}. X XeXR.F.|.fXfXfXfXfXfXfXfXfXfXfXfXfXfXfXfXfXfXfXfXfXfXfXfXfXfXfXfXfXfXfXfXfXfX",
"fXfXfXfXfXfXfXfXfXfXfXfXfXfXfXd.).XXT.fX9 F J.'. XoXeXD.D [.E.fXfXfXfXfXfXfXfXfXfXfXfXfXfXfXfXfXfXfXfXfXfXfXfXfXfXfXfXfXfXfXfXfX",
"fXfXfXfXfXfXfXfXfXfXfXfXfXfXfXd./._.S.1 R ] L b.).`.I._ ..Q.E.fXfXfXfXfXfXfXfXfXfXfXfXfXfXfXfXfXfXfXfXfXfXfXfXfXfXfXfXfXfXfXfXfX",
"fXfXfXfXfXfXfXfXfXfXfXfXfXfXfXfXl.F.fX2 6 E E 8 J P 2.u.Q m.C.fXfXfXfXfXfXfXfXfXfXfXfXfXfXfXfXfXfXfXfXfXfXfXfXfXfXfXfXfXfXfXfXfX",
"fXfXfXfXfXfXfXfXfXfXfXfXfXfXfXfXfXfXfXfX5 R [ 2.y.y.y.2.q m fXfXfXfXfXfXfXfXfXfXfXfXfXfXfXfXfXfXfXfXfXfXfXfXfXfXfXfXfXfXfXfXfXfX",
"fXfXfXfXfXfXfXfXfXfXfXfXfXfXfXfXfXfXfXfXO 4 R [ { } [ 0 1 fXfXfXfXfXfXfXfXfXfXfXfXfXfXfXfXfXfXfXfXfXfXfXfXfXfXfXfXfXfXfXfXfXfXfX",
"fXfXfXfXfXfXfXfXfXfXfXfXfXfXfXfXfXfXfXfX$ ; , 7 7 7 3 > = fXfXfXfXfXfXfXfXfXfXfXfXfXfXfXfXfXfXfXfXfXfXfXfXfXfXfXfXfXfXfXfXfXfXfX",
"fXfXfXfXfXfXfXfXfXfXfXfXfXfXfXfXfXfXfXfXfX- r y y y s f fXfXfXfXfXfXfXfXfXfXfXfXfXfXfXfXfXfXfXfXfXfXfXfXfXfXfXfXfXfXfXfXfXfXfXfX",
"fXfXfXfXfXfXfXfXfXfXfXfXfXfXfXfXfXfXfXfX@ - s v V V C k fXfXfXfXfXfXfXfXfXfXfXfXfXfXfXfXfXfXfXfXfXfXfXfXfXfXfXfXfXfXfXfXfXfXfXfX",
"fXfXfXfXfXfXfXfXfXfXfXfXfXfXfXfXfXfXfXfX* r h C C D c.p fXfXfXfXfXfXfXfXfXfXfXfXfXfXfXfXfXfXfXfXfXfXfXfXfXfXfXfXfXfXfXfXfXfXfXfX",
"fXfXfXfXfXfXfXfXfXfXfXfXfXfXfXfXfXfXfX% r h V A c.S x fXfXfXfXfXfXfXfXfXfXfXfXfXfXfXfXfXfXfXfXfXfXfXfXfXfXfXfXfXfXfXfXfXfXfXfXfX",
"fXfXfXfXfXfXfXfXfXfXfXfXfXfXfXfXfXfX% u h A x.Z M fXfXfXfXfXfXfXfXfXfXfXfXfXfXfXfXfXfXfXfXfXfXfXfXfXfXfXfXfXfXfXfXfXfXfXfXfXfXfX",
"fXfXfXfXfXfXfXfXfXfXfXfXfXfXfXfXfX% u d : p p fXfXfXfXfXfXfXfXfXfXfXfXfXfXfXfXfXfXfXfXfXfXfXfXfXfXfXfXfXfXfXfXfXfXfXfXfXfXfXfXfX",
"fXfXfXfXfXfXfXfXfXfXfXfXfXfXfXfXfXr f fXfXfXfXfXfXfXfXfXfXfXfXfXfXfXfXfXfXfXfXfXfXfXfXfXfXfXfXfXfXfXfXfXfXfXfXfXfXfXfXfXfXfXfXfX",
"fXfXfXfXfXfXfXfXfXfXfXfXfXfXfXfXfXt d fXfXfXfXfXfXfXfXfXfXfXfXfXfXfXfXfXfXfXfXfXfXfXfXfXfXfXfXfXfXfXfXfXfXfXfXfXfXfXfXfXfXfXfXfX",
"fXfXfXfXfXfXfXfXfXfXfXfXfXfXfXfXfX& a = fXfXfXfXfXfXfXfXfXfXfXfXfXfXfXfXfXfXfXfXfXfXfXfXfXfXfXfXfXfXfXfXfXfXfXfXfXfXfXfXfXfXfXfX",
"fXfXfXfXfXfXfXfXfXfXfXfXfXfXfXfXfXfX= i # & fXfXfXfXfXfXfXfXfXfXfXfXfXfXfXfXfXfXfXfXfXfXfXfXfXfXfXfXfXfXfXfXfXfXfXfXfXfXfXfXfXfX",
"fXfXfXfXfXfXfXfXfXfXfXfXfXfXfXfXfXfXfXfXfXfXfXfXfXfXfXfXfXfXfXfXfXfXfXfXfXfXfXfXfXfXfXfXfXfXfXfXfXfXfXfXfXfXfXfXfXfXfXfXfXfXfXfX",
"fXfXfXfXfXfXfXfXfXfXfXfXfXfXfXfXfXfXfXfXfXfXfXfXfXfXfXfXfXfXfXfXfXfXfXfXfXfXfXfXfXfXfXfXfXfXfXfXfXfXfXfXfXfXfXfXfXfXfXfXfXfXfXfX",
"fXfXfXfXfXfXfXfXfXfXfXfXfXfXfXfXfXfXfXfXfXfXfXfXfXfXfXfXfXfXfXfXfXfXfXfXfXfXfXfXfXfXfXfXfXfXfXfXfXfXfXfXfXfXfXfXfXfXfXfXfXfXfXfX",
"fXfXfXfXfXfXfXfXfXfXfXfXfXfXfXfXfXfXfXfXfXfXfXfXfXfXfXfXfXfXfXfXfXfXfXfXfXfXfXfXfXfXfXfXfXfXfXfXfXfXfXfXfXfXfXfXfXfXfXfXfXfXfXfX",
"fXfXfXfXfXfXfXfXfXfXfXfXfXfXfXfXfXfXfXfXfXfXfXfXfXfXfXfXfXfXfXfXfXfXfXfXfXfXfXfXfXfXfXfXfXfXfXfXfXfXfXfXfXfXfXfXfXfXfXfXfXfXfXfX",
"fXfXfXfXfXfXfXfXfXfXfXfXfXfXfXfXfXfXfXfXfXfXfXfXfXfXfXfXfXfXfXfXfXfXfXfXfXfXfXfXfXfXfXfXfXfXfXfXfXfXfXfXfXfXfXfXfXfXfXfXfXfXfXfX",
"fXfXfXfXfXfXfXfXfXfXfXfXfXfXfXfXfXfXfXfXfXfXfXfXfXfXfXfXfXfXfXfXfXfXfXfXfXfXfXfXfXfXfXfXfXfXfXfXfXfXfXfXfXfXfXfXfXfXfXfXfXfXfXfX",
"fXfXfXfXfXfXfXfXfXfXfXfXfXfXfXfXfXfXfXfXfXfXfXfXfXfXfXfXfXfXfXfXfXfXfXfXfXfXfXfXfXfXfXfXfXfXfXfXfXfXfXfXfXfXfXfXfXfXfXfXfXfXfXfX"
};
