/* XPM */
static char *result[] = {
/* columns rows colors chars-per-pixel */
"64 64 20 1 ",
"  c black",
". c #13191B",
"X c #0A112B",
"o c #19323E",
"O c #401A22",
"+ c #5A2F3D",
"@ c #252744",
"# c #343D5F",
"$ c #017E4B",
"% c #90352F",
"& c #C3502A",
"* c #A24C57",
"= c #D56A62",
"- c #FFAF6D",
"; c #FFEF7D",
": c #376887",
"> c #65709C",
", c #FFC3A1",
"< c #A3A8C4",
"1 c None",
/* pixels */
"1111111111111111111111111111111111111111111111111111111111111111",
"1111111111111111111111111111111111111111111111111111111111111111",
"1111111111111111111111111111111111111111111111111111111111111111",
"1111111111111111111111111111111111111111111111111111111111111111",
"1111111111111111111111111111111111111111111111111111111111111111",
"1111111111111111111111111111111111111111111111111111111111111111",
"1111111111111111111111111111111111111111111111111111111111111111",
"1111111111111111111111111111111111111111111111111111111111111111",
"1111111111111111111111111111111111111111111111111111111111111111",
"1111111111111111111111111111111111111111111111111111111111111111",
"1111111111111111111111111111111111111111111111111111111111111111",
"1111111111111111111111111111111111111111111111111111111111111111",
"1111111111111111111111111111111111111111111111111111111111111111",
"1111111111111111111111111111111111111111111111111111111111111111",
"1111111111111111111111111111111111111111111111111111111111111111",
"1111111111111111111111111111111111111111111111111111111111111111",
"1111111111111111111111111111111111111111111111111111111111111111",
"11111111111111111111111111111      11111111111111111111111111111",
"111111111111111111111111111  ;;;;--   11111111111111111111111111",
"1111111111111111111111111  ;;----;;-;; 1111111111111111111111111",
"111111111111111111111111 ;---------;--; 111111111111111111111111",
"1111111111111111111111  --=---------;-; 111111111111111111111111",
"111111111111111111111 -    *===-----;   111111111111111111111111",
"11111111111111111111 ; ;---   *===   ,, 111111111111111111111111",
"11111111111111111111 - ;----;;  * ,,,### 11111111111111111111111",
"11111111111111111111   ;------;; ,,  #,, 11111111111111111111111",
"1111111111111111111 XX -------- ,, =-  , 11111111111111111111111",
"1111111111111111111 X  =---=--- ,,   -; , 1111111111111111111111",
"1111111111111111111  = =---*-- ,,,#,#   , 1111111111111111111111",
"111111111111111111 ;=* ==---== ,,#, ,#,,= 1111111111111111111111",
"111111111111111111 -=  *==--=* =,#, ,#,,= 1111111111111111111111",
"1111111111111111111  11 *==-* = ,,#,#,,,= 1111111111111111111111",
"111111111111111111111111 **= =- =,,,      1111111111111111111111",
"1111111111111111111111111  * ==- =  -----; 111111111111111111111",
"111111111111111111111111 ,, *=*=- -------; 111111111111111111111",
"111111111111111111111111 ,,, *=----------; 111111111111111111111",
"111111111111111111111111 ,,, *==-------  ; 111111111111111111111",
"11111111111111111111111 ,,,,, *===-------; 111111111111111111111",
"11111111111111111111111 ,,,=,, *=*-------; 111111111111111111111",
"1111111111111111111111 ,,,,=,, ** =------- 111111111111111111111",
"1111111111111111111111 ,,,= ,,, * *-=----- 111111111111111111111",
"111111111111111111111 & ,= *=,,,  *= =---- 111111111111111111111",
"111111111111111111111 % = *,*,,,,, * ==-- 1111111111111111111111",
"11111111111111111111 &%% *=,*=,,,,,  *=-= 1111111111111111111111",
"1111111111111111   1 &%O =,,,,*===,,  *= 11111111111111111111111",
"111111111111111 %%%  &%  =,,,,,,,    O  111111111111111111111111",
"1111111111111111   % %% %        >:::  1111111111111111111111111",
"1111111111111111111  %O  %%%%%%% #>>:  1111111111111111111111111",
"111111111111111111111  1         @#>:  1111111111111111111111111",
"111111111111111111111111 %%%%OO  @#>:  1111111111111111111111111",
"111111111111111111111111       oo #>:  1111111111111111111111111",
"111111111111111111111111 .ooooooo #> $ 1111111111111111111111111",
"1111111111111111111111111 .oooooo #>  11111111111111111111111111",
"1111111111111111111111111 .ooooo @#:  11111111111111111111111111",
"111111111111111111111111 <  oo  @#>:  11111111111111111111111111",
"111111111111111111111111 <#@  @@#>>:  11111111111111111111111111",
"1111111111111111111111111 <#@@##>>>>:  1111111111111111111111111",
"1111111111111111111111111 <<>>>>>>>>>:: 111111111111111111111111",
"11111111111111111111111111  <<<>>>>>>>> 111111111111111111111111",
"1111111111111111111111111111   <<<<<<<< 111111111111111111111111",
"11111111111111111111111111111 +        1111111111111111111111111",
"111111111111111111111111111111 ++ 111111111111111111111111111111",
"111111111111111111111111111111 ++ 111111111111111111111111111111",
"1111111111111111111111111111111   111111111111111111111111111111"
};
