/* XPM */
static char *result[] = {
/* columns rows colors chars-per-pixel */
"64 64 20 1 ",
"  c black",
". c #13191B",
"X c #0A112B",
"o c #19323E",
"O c #401A22",
"+ c #5A2F3D",
"@ c #252744",
"# c #343D5F",
"$ c #017E4B",
"% c #90352F",
"& c #C3502A",
"* c #A24C57",
"= c #D56A62",
"- c #FFAF6D",
"; c #FFEF7D",
": c #376887",
"> c #65709C",
", c #FFC3A1",
"< c #A3A8C4",
"1 c None",
/* pixels */
"1111111111111111111111111111111111111111111111111111111111111111",
"1111111111111111111111111111111111111111111111111111111111111111",
"1111111111111111111111111111111111111111111111111111111111111111",
"1111111111111111111111111111111111111111111111111111111111111111",
"1111111111111111111111111111111111111111111111111111111111111111",
"1111111111111111111111111111111111111111111111111111111111111111",
"1111111111111111111111111111111111111111111111111111111111111111",
"1111111111111111111111111111111111111111111111111111111111111111",
"1111111111111111111111111111111111111111111111111111111111111111",
"1111111111111111111111111111111111111111111111111111111111111111",
"1111111111111111111111111111111111111111111111111111111111111111",
"1111111111111111111111111111111111111111111111111111111111111111",
"1111111111111111111111111111111111111111111111111111111111111111",
"1111111111111111111111111111111111111111111111111111111111111111",
"1111111111111111111111111111111111111111111111111111111111111111",
"1111111111111111111111111111111111111111111111111111111111111111",
"1111111111111111111111111111111111111111111111111111111111111111",
"1111111111111111111111111111111111111111111111111111111111111111",
"1111111111111111111111111111      111111111111111111111111111111",
"1111111111111111111111111   --;;;;  1111111111111111111111111111",
"111111111111111111111111 ;;-;;----;;  11111111111111111111111111",
"11111111111111111111111 ;--;---------; 1111111111111111111111111",
"11111111111111111111111 ;-;---------=--  11111111111111111111111",
"11111111111111111111111   ;-----===*    - 1111111111111111111111",
"11111111111111111111111 ,,   ===*   ---; ; 111111111111111111111",
"1111111111111111111111 ###,,, *  ;;----; - 111111111111111111111",
"1111111111111111111111 ,,#  ,, ;;------;   111111111111111111111",
"1111111111111111111111 ,  -= ,, -------- XX 11111111111111111111",
"111111111111111111111 , ;-   ,, ---=---=  X 11111111111111111111",
"111111111111111111111 ,   #,#,,, --*---= =  11111111111111111111",
"111111111111111111111 =,,#, ,#,, ==---== *=; 1111111111111111111",
"111111111111111111111 =,,#, ,#,= *=--==*  =- 1111111111111111111",
"111111111111111111111 =,,,#,#,, = *-==* 11  11111111111111111111",
"111111111111111111111      ,,,= -= =** 1111111111111111111111111",
"11111111111111111111 ;-----  = -== *  11111111111111111111111111",
"11111111111111111111 ;------- -=*=* ,, 1111111111111111111111111",
"11111111111111111111 ;----------=* ,,,, 111111111111111111111111",
"11111111111111111111 ;  -------==* ,,,, 111111111111111111111111",
"11111111111111111111 ;-------===* ,,,,,, 11111111111111111111111",
"11111111111111111111 ;-------*=* ,,=,,,, 11111111111111111111111",
"11111111111111111111 -------= ** ,, =,,,, 1111111111111111111111",
"11111111111111111111 -----=-* * ,,,* =,,, 1111111111111111111111",
"11111111111111111111 ----= =*  ,,,=** =, & 111111111111111111111",
"111111111111111111111 --== * ,,,,,=,=* = % 111111111111111111111",
"111111111111111111111 =-=*  ,,,,,=*,,=* %%& 11111111111111111111",
"1111111111111111111111 =*  ,,===*,,,,,= O%& 1   1111111111111111",
"11111111111111111111111  %%    ,,,,,,,,  %&  %%% 111111111111111",
"111111111111111111111111 O :::>        % %% %   1111111111111111",
"111111111111111111111111   :>># %%%%%%%  O%  1111111111111111111",
"111111111111111111111111 $ :>#@         1  111111111111111111111",
"111111111111111111111111 $ :>#@ OOO%%%% 111111111111111111111111",
"111111111111111111111111 $ :># o       1111111111111111111111111",
"1111111111111111111111111 $ ># oooooo. 1111111111111111111111111",
"1111111111111111111111111 $ ># oooooo. 1111111111111111111111111",
"11111111111111111111111111  :#@ oooo.  1111111111111111111111111",
"11111111111111111111111111  :>#@  ..  < 111111111111111111111111",
"11111111111111111111111111  :>>#@@  @#< 111111111111111111111111",
"1111111111111111111111111  :>>>>##@@#< 1111111111111111111111111",
"111111111111111111111111 ::>>>>>>>>><< 1111111111111111111111111",
"111111111111111111111111 >>>>>>>><<<  11111111111111111111111111",
"111111111111111111111111 <<<<<<<<   + 11111111111111111111111111",
"111111111111111111111111              11111111111111111111111111",
"111111111111111111111111 ++ 111111111111111111111111111111111111",
"111111111111111111111111   1111111111111111111111111111111111111"
};
