/* XPM */
static char *result[] = {
/* columns rows colors chars-per-pixel */
"66 66 125 2 ",
"   c #151217",
".  c #161318",
"X  c #19161B",
"o  c #1C191E",
"O  c #1E1B20",
"+  c #211E23",
"@  c #242026",
"#  c #2F2826",
"$  c #262329",
"%  c #29262B",
"&  c #2C292E",
"*  c #322925",
"=  c #2E2A31",
"-  c #322D34",
";  c #343136",
":  c #363138",
">  c #3B353D",
",  c #3D383E",
"<  c #5A493F",
"1  c #654F3D",
"2  c #68523F",
"3  c #3E3940",
"4  c #423D43",
"5  c #454146",
"6  c #4A4145",
"7  c #474248",
"8  c #4A454C",
"9  c #4D494E",
"0  c #514644",
"q  c #5C4E44",
"w  c #524C4C",
"e  c #5D4E49",
"r  c #4F4A51",
"t  c #524D54",
"y  c #564F59",
"u  c #555056",
"i  c #5A5053",
"p  c #575159",
"a  c #5A545C",
"s  c #5D585F",
"d  c #6F5945",
"f  c #64554D",
"g  c #6B594E",
"h  c #745C47",
"j  c #735C49",
"k  c #635A55",
"l  c #6B5B51",
"z  c #635C59",
"x  c #7C634D",
"c  c #6B645D",
"v  c #716254",
"b  c #72655B",
"n  c #7C6A5C",
"m  c #5E5760",
"M  c #5F5961",
"N  c #625C64",
"B  c #655F68",
"V  c #666069",
"C  c #6A636D",
"Z  c #7D7466",
"A  c #7D7169",
"S  c #6D6670",
"D  c #726A75",
"F  c #7C757C",
"G  c #806752",
"H  c #856A53",
"J  c #896F57",
"K  c #8C6F58",
"L  c #8F745B",
"P  c #91765D",
"I  c #94795F",
"U  c #867463",
"Y  c #8C7661",
"T  c #8E7F68",
"R  c #947B61",
"E  c #9A7E63",
"W  c #9D8266",
"Q  c #978C75",
"!  c #9F8F76",
"~  c #9F9176",
"^  c #9F977E",
"/  c #A38769",
"(  c #A3896B",
")  c #A98D6E",
"_  c #A38E71",
"`  c #A98E70",
"'  c #A38F7B",
"]  c #A59172",
"[  c #AD9474",
"{  c #AE9A7C",
"}  c #B29676",
"|  c #B39877",
" . c #B39B79",
".. c #B6A17D",
"X. c #BCA27F",
"o. c #7F7981",
"O. c #88838B",
"+. c #968C89",
"@. c #9D9A87",
"#. c #8F8591",
"$. c #A99D89",
"%. c #B59F81",
"&. c #A7A386",
"*. c #ADA384",
"=. c #BAA480",
"-. c #BCA883",
";. c #BCAF8B",
":. c #A49CA6",
">. c #A9A1AB",
",. c #C2A681",
"<. c #C4AB85",
"1. c #C4B289",
"2. c #CCB58D",
"3. c #CFBD93",
"4. c #D1BC93",
"5. c #CFC79D",
"6. c #D6C59A",
"7. c #D8C59A",
"8. c #DBCA9C",
"9. c #DDD1A3",
"0. c #E2D6A4",
"q. c #E8E4B2",
"w. c #C2BEC3",
"e. c #C8C4C9",
"r. c None",
/* pixels */
"r.r.r.r.r.r.r.r.r.r.r.r.r.r.r.r.r.r.r.r.r.r.r.r.r.r.r.r.r.r.r.r.r.r.r.r.r.r.r.r.r.r.r.r.r.r.r.r.r.r.r.r.r.r.r.r.r.r.r.r.r.r.r.r.r.r.",
"r.r.r.r.r.r.r.r.r.r.r.r.r.r.r.r.r.r.r.r.r.r.r.r.r.r.r.r.r.r.r.r.r.r.r.r.r.r.r.r.r.r.r.r.r.r.r.r.r.r.r.r.r.r.r.r.r.r.r.r.r.r.r.r.r.r.",
"r.r.r.r.r.r.r.r.r.r.r.r.r.r.r.r.r.r.r.r.r.r.r.r.r.r.r.r.r.r.r.r.r.r.r.r.r.r.r.r.r.r.r.r.r.r.r.r.r.r.r.r.r.r.r.r.r.r.r.r.r.r.r.r.r.r.",
"r.r.r.r.r.r.r.r.r.r.r.r.r.r.r.r.r.r.r.r.r.r.r.r.r.r.r.r.r.r.r.r.r.r.r.r.r.r.r.r.r.r.r.r.r.r.r.r.r.r.r.r.r.r.r.r.r.r.r.r.r.r.r.r.r.r.",
"r.r.r.r.r.r.r.r.r.r.r.r.r.r.r.r.r.r.r.r.r.r.r.r.r.r.r.r.r.r.r.r.r.r.    X r.r.r.r.r.r.r.r.r.r.r.r.r.r.r.r.r.r.r.r.r.r.r.r.r.r.r.r.r.",
"r.r.r.r.r.r.r.r.r.r.r.r.r.r.r.r.r.r.r.r.r.r.r.r.r.r.r.r..       . r.  & t & r.r.r.r.r.r.r.r.r.r.r.r.r.r.r.r.r.r.r.r.r.r.r.r.r.r.r.r.",
"r.r.r.r.r.r.r.r.r.r.r.r.r.r.r.r.r.r.r.r.r.r.r.r.r.r.r.r.    - > = o   & s > % r.r.r.r.r.r.r.r.r.r.r.r.r.r.r.r.r.r.r.r.r.r.r.r.r.r.r.",
"r.r.r.r.r.r.r.r.r.r.r.r.r.r.r.r.r.r.r.r.r.r.r.r.r.r.r.r.r.X 7 u 8 $ o & 9 t > + O + @ @ r.r.r.r.r.r.r.r.r.r.r.r.r.r.r.r.r.r.r.r.r.r.",
"r.r.r.r.r.r.r.r.r.r.r.r.r.r.r.r.r.r.r.r.r.r.r.r.r.r.r.r.r.r.O : 9 8 , , t N a 4 > t N p & . . . . . r.r.r.r.r.r.r.r.r.r.r.r.r.r.r.r.",
"r.r.r.r.r.r.r.r.r.r.r.r.r.r.r.r.r.r.r.r.r.r.r.r.. . . r.r.. . % 5 , , , 4 p s s p B S C t 7 4 > > = . . r.r.r.r.r.r.r.r.r.r.r.r.r.r.",
"r.r.r.r.r.r.r.r.r.r.r.r.r.r.r.r.r.r.r.r.r.r.r.r.O % - % . . . O = = : > 3 4 y p a N N N N N B a a 7 - - % r.r.r.r.r.r.r.r.r.r.r.r.r.",
"r.r.r.r.r.r.r.r.r.r.r.r.r.r.r.r.r.r.r.r.r.r.r.r.r.r N 3 X . X X X X % : : : > > > 7 9 t t s C C C C S B 4 O r.r.r.r.r.r.r.r.r.r.r.r.",
"r.r.r.r.r.r.r.r.r.r.r.r.r.r.r.r.r.r.r.r.r.r.r.r.O % 9 7 3 4 r y y 5 & O O - 4 9 s y p N N V C C C S C a p 7 O r.r.r.r.r.r.r.r.r.r.r.",
"r.r.r.r.r.r.r.r.r.r.r.r.r.r.r.r.r.r.r.r.r.r.r.& - ; 8 p m m V S V t > +   @ ; 7 t 8 8 y y p N C C N r > 7 t 4 % r.r.r.r.r.r.r.r.r.r.",
"r.r.r.r.r.r.r.r.r.r.r.r.r.r.r.r.r.r.r.r.r.r.@ , 9 8 9 a B B C C V a 7 ; o X + - : 3 > > > 4 t m V m 4 O & 9 N - X r.r.r.r.r.r.r.r.r.",
"r.r.r.r.r.r.r.r.r.r.r.r.r.r.r.r.r.r.r.r.r.$ 7 9 7 , > 7 t r N C C V a 7 : O X + : 7 7 > > > > 4 a C M % X @ 9 % . r.r.r.r.r.r.r.r.r.",
"r.r.r.r.r.r.r.r.r.r.r.r.r.r.r.r.r.r.r.r.r.r.r.- - > : t N N V S C S B p 7 @ . . + : 7 y 8 : @ + 3 p V t = O % X . r.r.r.r.r.r.r.r.r.",
"r.r.r.r.r.r.r.r.r.r.r.r.r.r.r.r.r.r.r.r.r.r.r.+ & 3 4 4 8 8 N S C C M y 7 - + . X @ > a a 7 = . @ > 9 y : . . . r.r.r.r.r.r.r.r.r.r.",
"r.r.r.r.r.r.r.r.r.r.r.r.r.r.r.r.r.r.r.r.r.r.. & ; > 7 - X + r B S C r > > 7 - . . . + > p B t o . . X - @ . r.r.r.r.r.r.r.r.r.r.r.r.",
"r.r.r.r.r.r.r.r.r.r.r.r.r.r.r.r.r.r.r.r.r.r.r.o + + : $ + y 3 4 V C a 7 > , & . r.r.r.+ @ @ @ . r.r.r.O X . r.r.r.r.r.r.r.r.r.r.r.r.",
"r.r.r.r.r.r.r.r.r.r.r.r.r.r.r.r.r.r.r.r.r.r.r.. $ 3 & + % a 8 4 3 3 7 9 7 > % . r.r.r.r.r.r.r.r.r.r.r.r.r.r.r.r.r.r.r.r.r.r.r.r.r.r.",
"r.r.r.r.r.r.r.r.r.r.r.r.r.r.r.r.r.r.r.r.r.r.r.. ; p ; + % 8 a 8 & + ; 3 3 3 % . r.r.r.r.r.r.r.r.r.r.r.r.r.r.r.r.r.r.r.r.r.r.r.r.r.r.",
"r.r.r.r.r.r.r.r.r.r.r.r.r.r.r.r.r.r.r.  . . .   @ 4 a 8 > , 7 p s 3 $ X X - % . r.r.r.r.r.r.r.r.r.r.r.r.r.r.r.r.r.r.r.r.r.r.r.r.r.r.",
"r.r.r.r.r.r.r.r.r.r.r.r.r.r.r.r.r.r.r.r.4 r r > - , p Z ~ *.c 9 u 9 b v - + o   . r.r.r.r.r.r.r.r.r.r.r.r.r.r.r.r.r.r.r.r.r.r.r.r.r.",
"r.r.r.r.r.r.r.r.r.r.r.r.r.r.r.r.r.r.r.r.8 N M t 8 7 p Z %.8.^ V 7 7 U _ Z > @ @ @ + r.r.r.r.r.r.r.r.r.r.r.r.r.r.r.r.r.r.r.r.r.r.r.r.",
"r.r.r.r.r.r.r.r.r.r.r.r.r.r.r.r.r.r.r.+ > i z M a t N a b <.9.&.w 4 g ] 9.Z 7 3 4 = O o r.r.r.r.r.r.r.r.r.r.r.r.r.r.r.r.r.r.r.r.r.r.",
"r.r.r.r.r.r.r.r.r.r.r.r.r.r.r.r.r.r.O r b Y { c 0 < 6 7 k R <.6.;.Y f b 4.5.@.S #.D p 4 @ r.r.r.r.r.r.r.r.r.r.r.r.r.r.r.r.r.r.r.r.r.",
"r.r.r.r.r.r.r.r.r.r.r.r.r.r.r.r.r.r.X 9 k n ) ~ W G U Q ~ P / ] ] [ ] ] [ 4.&.F e.>.F s : @ r.r.r.r.r.r.r.r.r.r.r.r.r.r.r.r.r.r.r.r.",
"r.r.r.r.r.r.r.r.r.r.r.r.r.r.r.r.r.+ $ 7 9 f L =.=.) | 3.4.[ R H x ) 2.4. . .' +.e.e.:.V 7 = + r.r.r.r.r.r.r.r.r.r.r.r.r.r.r.r.r.r.r.",
"r.r.r.r.r.r.r.r.r.r.r.r.r.r.r.r.. % 9 w q d L I ` -./ } 4.0.[ L J d ( 7.q.{ [ =.F w.e.C p 7 - X r.r.r.r.r.r.r.r.r.r.r.r.r.r.r.r.r.r.",
"r.r.r.r.r.r.r.r.r.r.r.r.r.r.r.r.  * q q j x j H R / P E W R [ 1.1.Y R  .6.6.3.%.i F O.V N p 7 , % r.r.r.r.r.r.r.r.r.r.r.r.r.r.r.r.r.",
"r.r.r.r.r.r.r.r.r.r.r.r.r.r.r.r.  * 1 h H J x x L ) I W W x I ..6.-.W E  .7.7.=.l i p p s a 9 7 $ . r.r.r.r.r.r.r.r.r.r.r.r.r.r.r.r.",
"r.r.r.r.r.r.r.r.r.r.r.r.r.r.r.r.. * 2 J P P L h L ,.W | X.L x I 4.0...L P X.2.,.I e > 3 9 9 9 > + . r.r.r.r.r.r.r.r.r.r.r.r.r.r.r.r.",
"r.r.r.r.r.r.r.r.r.r.r.r.r.r.r.r.. * 2 H P L L h L ,.W [ X.L 2 L 4.0...P P X.2.,.R e > > 8 r 8 > + . r.r.r.r.r.r.r.r.r.r.r.r.r.r.r.r.",
"r.r.r.r.r.r.r.r.r.r.r.r.r.r.r.r.. * 1 h G J x x L ` P W W x W ..7.X.( W  .6.7.X.k p y y s p 9 7 $ X r.r.r.r.r.r.r.r.r.r.r.r.r.r.r.r.",
"r.r.r.r.r.r.r.r.r.r.r.r.r.r.r.r.  * q q j x j H W ( J W W W ] <.1.P I  .7.8.4. .r o.O.C N p 7 , % r.r.r.r.r.r.r.r.r.r.r.r.r.r.r.r.r.",
"r.r.r.r.r.r.r.r.r.r.r.r.r.r.r.r.  % 8 w q d L R ) X.W | 6.9.[ P J d ( 7.q. .[ %.U e.e.S p 4 - X r.r.r.r.r.r.r.r.r.r.r.r.r.r.r.r.r.r.",
"r.r.r.r.r.r.r.r.r.r.r.r.r.r.r.r.r.+ $ 7 w f L =.X.) | 6.6.[ I H x ) 2.3. . .' +.e.e.:.C 7 - + r.r.r.r.r.r.r.r.r.r.r.r.r.r.r.r.r.r.r.",
"r.r.r.r.r.r.r.r.r.r.r.r.r.r.r.r.r.r.o 9 k n ] ~ W x L Q ~ I / ( ] [ ] ~ [ 3.$.o.e.>.o.a : @ r.r.r.r.r.r.r.r.r.r.r.r.r.r.r.r.r.r.r.r.",
"r.r.r.r.r.r.r.r.r.r.r.r.r.r.r.r.r.r.O r c R { c 0 < 5 7 i W <.6.;.U f b 3.5.@.S #.D t 4 @ r.r.r.r.r.r.r.r.r.r.r.r.r.r.r.r.r.r.r.r.r.",
"r.r.r.r.r.r.r.r.r.r.r.r.r.r.r.r.r.r.r.+ > i s z m y m a b <.9.*.w 4 g ] 9.Z 7 3 7 - o o r.r.r.r.r.r.r.r.r.r.r.r.r.r.r.r.r.r.r.r.r.r.",
"r.r.r.r.r.r.r.r.r.r.r.r.r.r.r.r.r.r.r.r.7 N M u 9 4 p A { 8.^ V 7 7 U ` Z , @ @ @ o r.r.r.r.r.r.r.r.r.r.r.r.r.r.r.r.r.r.r.r.r.r.r.r.",
"r.r.r.r.r.r.r.r.r.r.r.r.r.r.r.r.r.r.r.r.3 r r > ; 3 t A ~ *.z r p 8 c v - @ X . . r.r.r.r.r.r.r.r.r.r.r.r.r.r.r.r.r.r.r.r.r.r.r.r.r.",
"r.r.r.r.r.r.r.r.r.r.r.r.r.r.r.r.r.r.r.  .       + 4 m r > 3 8 a z , $ o X = % . r.r.r.r.r.r.r.r.r.r.r.r.r.r.r.r.r.r.r.r.r.r.r.r.r.r.",
"r.r.r.r.r.r.r.r.r.r.r.r.r.r.r.r.r.r.r.r.r.r.r.. ; y : + % 8 a 8 $ + - 3 3 3 % . r.r.r.r.r.r.r.r.r.r.r.r.r.r.r.r.r.r.r.r.r.r.r.r.r.r.",
"r.r.r.r.r.r.r.r.r.r.r.r.r.r.r.r.r.r.r.r.r.r.r.. @ 3 = O % a 8 4 3 4 8 9 5 3 %   r.r.r.r.r.r.r.r.r.r.r.r.r.r.r.r.r.r.r.r.r.r.r.r.r.r.",
"r.r.r.r.r.r.r.r.r.r.r.r.r.r.r.r.r.r.r.r.r.r.r.O O + : % % y > 4 B S y 4 > 3 =   r.r.r.o @ $ @ . r.r.r.O X . r.r.r.r.r.r.r.r.r.r.r.r.",
"r.r.r.r.r.r.r.r.r.r.r.r.r.r.r.r.r.r.r.r.r.r.. % : 3 7 = . O r B S S r 3 > 7 - .   . + > p B t O . . X - @   r.r.r.r.r.r.r.r.r.r.r.r.",
"r.r.r.r.r.r.r.r.r.r.r.r.r.r.r.r.r.r.r.r.r.r.r.+ & > 4 7 9 9 N C C C N y 7 - +   . + 3 p a 7 = . @ : r y : . .   r.r.r.r.r.r.r.r.r.r.",
"r.r.r.r.r.r.r.r.r.r.r.r.r.r.r.r.r.r.r.r.r.r.r.; - > : r M M V C S S N p 7 +   X + : 8 p 8 : @ @ 3 a B t - X % O   r.r.r.r.r.r.r.r.r.",
"r.r.r.r.r.r.r.r.r.r.r.r.r.r.r.r.r.r.r.r.r.@ 7 9 7 > > 7 u 9 N C C B a 8 ; + X + : 7 7 > > > > 3 y S N $ . $ 9 % . r.r.r.r.r.r.r.r.r.",
"r.r.r.r.r.r.r.r.r.r.r.r.r.r.r.r.r.r.r.r.r.r.@ , 9 7 9 s V N C C C p 4 - O X + ; : 3 3 > > 4 r M B p 4 + & 8 N - . r.r.r.r.r.r.r.r.r.",
"r.r.r.r.r.r.r.r.r.r.r.r.r.r.r.r.r.r.r.r.r.r.r.& - ; 9 p a s V C B t > + . + ; 4 t 8 8 t t a M C S N t : 8 y 4 % r.r.r.r.r.r.r.r.r.r.",
"r.r.r.r.r.r.r.r.r.r.r.r.r.r.r.r.r.r.r.r.r.r.r.r.o & 9 7 4 4 t p y 4 & + + ; 4 r m y p B N V S C S S C s y 7 O r.r.r.r.r.r.r.r.r.r.r.",
"r.r.r.r.r.r.r.r.r.r.r.r.r.r.r.r.r.r.r.r.r.r.r.r.r.t N , X X X X X X % : : : > > 3 7 r r r s C C C C C B 4 O r.r.r.r.r.r.r.r.r.r.r.r.",
"r.r.r.r.r.r.r.r.r.r.r.r.r.r.r.r.r.r.r.r.r.r.r.r.o % - %       + = = ; > > 7 t a a M N N N B V a p 8 - - % r.r.r.r.r.r.r.r.r.r.r.r.r.",
"r.r.r.r.r.r.r.r.r.r.r.r.r.r.r.r.r.r.r.r.r.r.r.r.  . . r.r.  . $ 4 4 , 3 4 u s M p B C C t 7 4 3 > = . . r.r.r.r.r.r.r.r.r.r.r.r.r.r.",
"r.r.r.r.r.r.r.r.r.r.r.r.r.r.r.r.r.r.r.r.r.r.r.r.r.r.r.r.r.r.@ ; r 7 , , r N a 5 > r N a % . . .   . r.r.r.r.r.r.r.r.r.r.r.r.r.r.r.r.",
"r.r.r.r.r.r.r.r.r.r.r.r.r.r.r.r.r.r.r.r.r.r.r.r.r.r.r.r.r.X 7 u 7 % o & 9 t > O o @ @ $ r.r.r.r.r.r.r.r.r.r.r.r.r.r.r.r.r.r.r.r.r.r.",
"r.r.r.r.r.r.r.r.r.r.r.r.r.r.r.r.r.r.r.r.r.r.r.r.r.r.r.r..   = > = o . & s > & r.r.r.r.r.r.r.r.r.r.r.r.r.r.r.r.r.r.r.r.r.r.r.r.r.r.r.",
"r.r.r.r.r.r.r.r.r.r.r.r.r.r.r.r.r.r.r.r.r.r.r.r.r.r.r.r..     . . r.  & 9 & r.r.r.r.r.r.r.r.r.r.r.r.r.r.r.r.r.r.r.r.r.r.r.r.r.r.r.r.",
"r.r.r.r.r.r.r.r.r.r.r.r.r.r.r.r.r.r.r.r.r.r.r.r.r.r.r.r.r.r.r.r.r.r.    X r.r.r.r.r.r.r.r.r.r.r.r.r.r.r.r.r.r.r.r.r.r.r.r.r.r.r.r.r.",
"r.r.r.r.r.r.r.r.r.r.r.r.r.r.r.r.r.r.r.r.r.r.r.r.r.r.r.r.r.r.r.r.r.r.r.r.r.r.r.r.r.r.r.r.r.r.r.r.r.r.r.r.r.r.r.r.r.r.r.r.r.r.r.r.r.r.",
"r.r.r.r.r.r.r.r.r.r.r.r.r.r.r.r.r.r.r.r.r.r.r.r.r.r.r.r.r.r.r.r.r.r.r.r.r.r.r.r.r.r.r.r.r.r.r.r.r.r.r.r.r.r.r.r.r.r.r.r.r.r.r.r.r.r.",
"r.r.r.r.r.r.r.r.r.r.r.r.r.r.r.r.r.r.r.r.r.r.r.r.r.r.r.r.r.r.r.r.r.r.r.r.r.r.r.r.r.r.r.r.r.r.r.r.r.r.r.r.r.r.r.r.r.r.r.r.r.r.r.r.r.r.",
"r.r.r.r.r.r.r.r.r.r.r.r.r.r.r.r.r.r.r.r.r.r.r.r.r.r.r.r.r.r.r.r.r.r.r.r.r.r.r.r.r.r.r.r.r.r.r.r.r.r.r.r.r.r.r.r.r.r.r.r.r.r.r.r.r.r."
};
