/* XPM */
static char *result[] = {
/* columns rows colors chars-per-pixel */
"68 68 138 2 ",
"   c #120F14",
".  c #141116",
"X  c #161318",
"o  c #19161B",
"O  c #1C191E",
"+  c #1E1B20",
"@  c #211D23",
"#  c #241F28",
"$  c #242026",
"%  c #2F2826",
"&  c #272329",
"*  c #29252B",
"=  c #2C292E",
"-  c #322924",
";  c #2E2A31",
":  c #322D33",
">  c #353137",
",  c #363238",
"<  c #3B353D",
"1  c #3D393E",
"2  c #57463D",
"3  c #644E3D",
"4  c #68523F",
"5  c #3E3940",
"6  c #423D43",
"7  c #454146",
"8  c #4B4145",
"9  c #464248",
"0  c #4A454C",
"q  c #4D4A4E",
"w  c #534845",
"e  c #5C4D43",
"r  c #514A4B",
"t  c #5D4E49",
"y  c #56504F",
"u  c #4D4750",
"i  c #4F4A51",
"p  c #524D54",
"a  c #554F58",
"s  c #565157",
"d  c #5A5153",
"f  c #575259",
"g  c #5A545C",
"h  c #5E585F",
"j  c #6F5946",
"k  c #65564D",
"l  c #6B594E",
"z  c #745C46",
"x  c #735C49",
"c  c #635A56",
"v  c #6B5B50",
"b  c #625C5B",
"n  c #7C624C",
"m  c #6E6154",
"M  c #67615B",
"N  c #6C645D",
"B  c #7F6850",
"V  c #70605A",
"C  c #7B6A5D",
"Z  c #5D5760",
"A  c #5F5961",
"S  c #625C65",
"D  c #655F68",
"F  c #67606A",
"G  c #6A636D",
"H  c #746960",
"J  c #7C6F65",
"K  c #7E7767",
"L  c #7C7168",
"P  c #6F6872",
"I  c #726A75",
"U  c #7A747C",
"Y  c #846A53",
"T  c #896D56",
"R  c #8E735A",
"E  c #92755C",
"W  c #93795F",
"Q  c #857362",
"!  c #8B7661",
"~  c #807867",
"^  c #8D7E67",
"/  c #947B61",
"(  c #9A7E63",
")  c #847B7D",
"_  c #9D8266",
"`  c #968B74",
"'  c #9D8D74",
"]  c #9E9075",
"[  c #A18568",
"{  c #A3896A",
"}  c #A98D6E",
"|  c #A38D70",
" . c #AA8F70",
".. c #A38F7B",
"X. c #A49172",
"o. c #AC9474",
"O. c #A0987E",
"+. c #AA9A7D",
"@. c #B19575",
"#. c #B19876",
"$. c #B49B7B",
"%. c #B5A17D",
"&. c #BBA17E",
"*. c #7E7680",
"=. c #817B82",
"-. c #88838B",
";. c #988D8A",
":. c #9B9886",
">. c #8F8591",
",. c #A89C88",
"<. c #A5A184",
"1. c #AAA082",
"2. c #BAA481",
"3. c #B7AA87",
"4. c #BCA882",
"5. c #A59DA7",
"6. c #A9A1AB",
"7. c #C3A782",
"8. c #C3AB85",
"9. c #C2B087",
"0. c #CBB38C",
"q. c #CDB98F",
"w. c #CEBB92",
"e. c #D3BC93",
"r. c #CCC49B",
"t. c #D2C297",
"y. c #D5C499",
"u. c #D8C79A",
"i. c #D6C99C",
"p. c #DACE9E",
"a. c #D8CCA0",
"s. c #E1D4A2",
"d. c #E3DDAD",
"f. c #BFBBC0",
"g. c #C5BFC6",
"h. c #C4C1C6",
"j. c #C8C2C9",
"k. c None",
/* pixels */
"k.k.k.k.k.k.k.k.k.k.k.k.k.k.k.k.k.k.k.k.k.k.k.k.k.k.k.k.k.k.k.k.k.k.k.k.k.k.k.k.k.k.k.k.k.k.k.k.k.k.k.k.k.k.k.k.k.k.k.k.k.k.k.k.k.k.k.k.",
"k.k.k.k.k.k.k.k.k.k.k.k.k.k.k.k.k.k.k.k.k.k.k.k.k.k.k.k.k.k.k.k.k.k.k.k.k.k.k.k.k.k.k.k.k.k.k.k.k.k.k.k.k.k.k.k.k.k.k.k.k.k.k.k.k.k.k.k.",
"k.k.k.k.k.k.k.k.k.k.k.k.k.k.k.k.k.k.k.k.k.k.k.k.k.k.k.k.k.k.k.k.k.k.k.k.k.k.k.k.k.k.k.k.k.k.k.k.k.k.k.k.k.k.k.k.k.k.k.k.k.k.k.k.k.k.k.k.",
"k.k.k.k.k.k.k.k.k.k.k.k.k.k.k.k.k.k.k.k.k.k.k.k.k.k.k.k.k.k.k.k.k.k.k.k.k.k.k.k.k.k.k.k.k.k.k.k.k.k.k.k.k.k.k.k.k.k.k.k.k.k.k.k.k.k.k.k.",
"k.k.k.k.k.k.k.k.k.k.k.k.k.k.k.k.k.k.k.k.k.k.k.k.k.k.k.k.k.k.k.k.k.k.k.k.k.k.k.k.k.k.k.k.k.k.k.k.k.k.k.k.k.k.k.k.k.k.k.k.k.k.k.k.k.k.k.k.",
"k.k.k.k.k.k.k.k.k.k.k.k.k.k.k.k.k.k.k.k.k.k.k.k.k.k.k.k.k.k.k.k.k.k.k.k.k.k.k.k.k.k.k.k.k.k.k.k.k.k.k.k.k.k.k.k.k.k.k.k.k.k.k.k.k.k.k.k.",
"k.k.k.k.k.k.k.k.k.k.k.k.k.k.k.k.k.k.k.k.k.k.k.k.k.k.k.k.k.k.k.k.k.k.k.k.k.k.k.k.k.k.k.k.k.k.k.k.k.k.k.k.k.k.k.k.k.k.k.k.k.k.k.k.k.k.k.k.",
"k.k.k.k.k.k.k.k.k.k.k.k.k.k.k.k.k.k.k.k.k.k.k.k.k.k.k.k.k.k.k.k.k.k.k.k.k.k.k.k.k.k.k.k.k.k.k.k.k.k.k.k.k.k.k.k.k.k.k.k.k.k.k.k.k.k.k.k.",
"k.k.k.k.k.k.k.k.k.k.k.k.k.k.k.k.k.k.k.k.k.k.k.k.k.k.k.k.k.k.k.k.k.k.k.k.k.k.k.k.k.k.k.k.k.k.k.k.k.k.k.k.k.k.k.k.k.k.k.k.k.k.k.k.k.k.k.k.",
"k.k.k.k.k.k.k.k.k.k.k.k.k.k.k.k.k.k.k.k.k.k.k.k.k.k.k.k.k.k.k.k.k.k.k.k.k.k.k.k.k.k.k.k.k.k.k.k.k.k.k.k.k.k.k.k.k.k.k.k.k.k.k.k.k.k.k.k.",
"k.k.k.k.k.k.k.k.k.k.k.k.k.k.k.X . . k.k.k.k.k.k.k.k.k.k.k.k.k.k.k.k.k.k.k.k.k.k.k.k.k.k.k.k.k.k.k.k.. X X k.k.k.k.k.k.k.k.k.k.k.k.k.k.k.",
"k.k.k.k.k.k.k.k.k.k.k.k.k.k.* : * O . k.k.k.k.k.k.k.k.k.k.k.k.k.k.k.k.k.k.k.k.k.k.k.k.k.k.k.k.k.k.. O * : * k.k.k.k.k.k.k.k.k.k.k.k.k.k.",
"k.k.k.k.k.k.k.k.k.k.k.k.k.@ 6 h 0 * o k.k.k.k.k.k.k.k.k.k.k.k.k.k.k.k.k.k.k.k.k.k.k.k.k.k.k.k.k.k.o * 0 A 6 + k.k.k.k.k.k.k.k.k.k.k.k.k.",
"k.k.k.k.k.k.k.k.k.k.k.k.@ 7 p 0 * o X . . k.k.k.k.k.k.k.k.k.k.k.k.k.k.k.k.k.k.k.k.k.k.k.k.k.k.. . X O & 0 p 7 $ k.k.k.k.k.k.k.k.k.k.k.k.",
"k.k.k.k.k.k.k.k.k.k.k.* 6 s 7 ; o ; : $ o k.k.k.k.k.k.k.k.k.k.k.k.k.k.k.k.k.k.k.k.k.k.k.k.k.k.o @ , ; o ; 9 s 6 * k.k.k.k.k.k.k.k.k.k.k.",
"k.k.k.k.k.k.k.k.k.k.X : S g < + * p a : O k.k.k.k.k.k.k.k.k.k.k.k.k.k.k.k.k.k.k.k.k.k.k.k.k.k.O : p p * + < g S : X k.k.k.k.k.k.k.k.k.k.",
"k.k.k.k.k.k.k.k.k.k.X > G F p 6 Z F u o k.k.k.k.k.k.k.k.k.k.k.k.k.k.k.k.k.k.k.k.k.k.k.k.k.k.k.k.o u D Z 6 p D G , X k.k.k.k.k.k.k.k.k.k.",
"k.k.k.k.k.k.k.k.k.X = 0 G G S g G f < X k.k.k.k.k.k.k.k.k.k.k.k.X . . . k.k.k.k.k.k.k.k.k.k.k.k.X < a G Z S G G 9 ; X k.k.k.k.k.k.k.k.k.",
"k.k.k.k.k.k.k.k.k.X , s G G G F g 5 # X X k.k.k.k.k.k.k.k.k.k.& & @ @ * * k.k.k.k.k.k.k.k.k.k.. X # 5 g S G G G s , X k.k.k.k.k.k.k.k.k.",
"k.k.k.k.k.k.k.k.k.. 1 g G G G h 5 @ X + . k.k.k.k.k.k.k.k.k.O 1 7 1 < 7 1 O k.k.k.k.k.k.k.k.k.. + X @ 5 h G G G g 1 . k.k.k.k.k.k.k.k.k.",
"k.k.k.k.k.k.k.k.k.X 6 D G G S u < # ; p # k.k.k.k.k.k.k.k.@ : 7 q 0 0 q 0 ; @ k.k.k.k.k.k.k.k.$ u ; @ < u S G G D 7 X k.k.k.k.k.k.k.k.k.",
"k.k.k.k.k.k.k.k.k.X 0 D Z D f 6 < , 7 S & k.k.k.k.k.k.k.@ : 6 d s q q f s 6 : @ k.k.k.k.k.k.k.& S 9 , < 6 f D h D 9 X k.k.k.k.k.k.k.k.k.",
"k.k.k.k.k.k.k.k.k.= p b p S p < < 0 f f $ k.k.k.k.k.k.& , 0 s S h 0 0 h S s 9 , & k.k.k.k.k.k.$ g a 0 < < p S p S p = k.k.k.k.k.k.k.k.k.",
"k.k.k.k.k.k.k.k.& f D S p S p < < a a < O k.k.k.k.k.O 6 g D P D p 1 < s F I F f 6 O k.k.k.k.k.+ < a a 5 < p S p S D f & k.k.k.k.k.k.k.k.",
"k.k.k.k.k.k.k.k.$ A G S q s 0 5 7 0 < @ k.k.k.k.k.k.+ p =.5.g.-.s < < a -.j.6.=.p + k.k.k.k.k.k.@ 5 0 7 5 0 s i S G S # k.k.k.k.k.k.k.k.",
"k.k.k.k.k.k.k.k.@ i S S 9 a 0 5 6 , & X k.k.k.k.k.+ ; I 5.j.f.U d t t d U 6.j.6.I : + k.k.k.k.k.X @ , 6 5 0 f 6 Z S u @ k.k.k.k.k.k.k.k.",
"k.k.k.k.k.k.k.k.o 5 a g 5 g p < , @ X   k.k.k.k.X $ 6 >.g.j.) d v W W v d ) j.j.>.7 $ X k.k.k.k.  X @ , < p g 5 g f < O k.k.k.k.k.k.k.k.",
"k.k.k.k.k.k.k.k.@ 6 Z g < p 6 : @ X . X . . . X . @ 5 P =.;.1.$.2.7.7.2.$.1.;.=.G < @ . X . . . X X X @ : 6 i < g Z 6 @ k.k.k.k.k.k.k.k.",
"k.k.k.k.k.k.k.* < f h p < 5 : @ X X @ > ; * = & o $ 0 :.,...o.w.u.0.0.y.e.o...,.:.0 $ o & * * = : @ X X @ : 6 < i h f 1 * k.k.k.k.k.k.k.",
"k.k.k.k.k.k.; 1 i A a 7 , : @ o + @ : 6 5 5 1 ; # 1 K r.q.$.%.y.e.&.&.t.i.2.$.q.r.K < $ ; 5 5 5 7 : $ + o @ : < 7 s A q 1 ; k.k.k.k.k.k.",
"k.k.k.k.k.o u g i i 7 < , + X + , 7 7 < < 6 5 o : ~ i.w.#.%.d.u.$.E E $.y.d.$.#.w.i.~ > o 5 6 5 5 7 7 , + X @ , < 6 i p g 0 O k.k.k.k.k.",
"k.k.k.k.k.X * = = 5 1 , , @ @ : 7 f p 5 7 0 5 + m { | C ] q.y.#.( E W ( $.y.w.' C | { m O 5 0 6 5 p s 7 : @ + , , 5 5 * = * . k.k.k.k.k.",
"k.k.k.k.k.. X X @ 1 1 > * = , 7 g D A p g 7 : * M R l k X.0.{ W { $.%.{ W { 0.X.k v Q N * : 7 f i A D g 9 , ; & > 1 1 O X o . k.k.k.k.k.",
"k.k.k.k.k.k.k.O & 7 5 = O 6 s s D G G D G 5 @ < 0 7 7 ! o.{ z W 7.s.s.4.W z { o.R 5 9 0 < $ 5 G G G G D f i 7 O ; 5 0 & O k.k.k.k.k.k.k.",
"k.k.k.k.k.k.X = 7 q 6 = o i F F G G G P D 5 ; g s 9 d 3.X.B T 9.u.e.q.y.9.Y B X.3.s 7 s g = 5 D G G G G F F p O = 6 q 9 = X k.k.k.k.k.k.",
"k.k.k.k.k.k.X , s , & @ O s G G G P G D 6 6 0 s q N <.w.X.B W 7.&.W W &.4.W Y X.w.<.H q s 0 6 7 D P G G G G s o @ & > p , o k.k.k.k.k.k.",
"k.k.k.k.k.k.X ; 7 $ . . X q F F A D S u < 0 f 0 M O.a.8.{ / #.X.W z z W o.o.W { 8.a.,.M 0 a 0 5 u A F S G F i o X X @ 7 = . k.k.k.k.k.k.",
"k.k.k.k.k.k.. X o k.. . X 7 h F p A u # p f 0 6 <.u.8._ / o.p./ n R R n _ i.#.W ( 8.y.+.6 0 a i # u A p S h 6 X . . k.O o . k.k.k.k.k.k.",
"k.k.k.k.k.k.X X k.k.k.. O 6 g F p S 6 + * * * < ' +.H c X.w.e._ _ &.&._ _ t.t.] c H +.' < * * * o u Z i S g 5 O . k.k.k.X X k.k.k.k.k.k.",
"k.k.k.k.k.k.k.k.k.k.k.& 1 7 s g 0 u 6 = * O @ 0 L L g 0 ` q.$.( _ #.@.[ W #.q.` 0 g L J 0 # + & = 6 u 0 g s 0 5 * k.k.k.k.k.k.k.k.k.k.k.",
"k.k.k.k.k.k.k.k.k.k.o : Z 0 0 0 < < 6 6 , * , g a f Z 8 Q $.[ E E _ _ E E [ $.Q 8 h d s g , ; , 9 5 1 1 0 0 0 A : X k.k.k.k.k.k.k.k.k.k.",
"k.k.k.k.k.k.k.k.k.k.X * q = > 0 5 , < < # 5 a 6 5 7 d 2 Y } &.{ } 7.7.} { &.} Y 2 d 7 5 6 p 5 @ 1 < , 1 0 > = i * X k.k.k.k.k.k.k.k.k.k.",
"k.k.k.k.k.k.k.k.k.k.. O k.O : q 6 : ; , + & : # : 0 f w ^ 4.} W R E R R W } 4.^ w g 0 : # : & + > = ; 9 0 > O k.O . k.k.k.k.k.k.k.k.k.k.",
"k.k.k.k.k.k.k.k.k.k.k.k.k.k.= 1 u : + * o X X X < p Z N ] %./ Y n z z n Y / %.' N Z p < . o X o = + ; q 1 % k.k.k.k.k.k.k.k.k.k.k.k.k.k.",
"k.k.k.k.k.k.k.k.k.k.k.k.k.k.k.$ 7 k.k.o k.k.k.X p S c o.X.! T n n R R n z T W } o.b A u X k.k.k.X k.k.7 $ k.k.k.k.k.k.k.k.k.k.k.k.k.k.k.",
"k.k.k.k.k.k.k.k.k.k.k.k.k.k.k.k.$ k.k.k.k.k.k.X 0 h p / C k j n T E E T n z k C / p A i X k.k.k.k.k.k.$ k.k.k.k.k.k.k.k.k.k.k.k.k.k.k.k.",
"k.k.k.k.k.k.k.k.k.k.k.k.k.k.k.k.k.k.k.k.k.k.k.X 6 0 1 V c r e j Y E R Y j t q c v < 0 6 . k.k.k.k.k.k.k.k.k.k.k.k.k.k.k.k.k.k.k.k.k.k.k.",
"k.k.k.k.k.k.k.k.k.k.k.k.k.k.k.k.k.k.k.k.k.k.k.  k.k.@ u 0 7 r e z Y Y z e r 7 q u # k.k.  k.k.k.k.k.k.k.k.k.k.k.k.k.k.k.k.k.k.k.k.k.k.k.",
"k.k.k.k.k.k.k.k.k.k.k.k.k.k.k.k.k.k.k.k.k.k.k.k.k.k.k.@ O * 0 e 3 4 4 3 e 9 * O + k.k.k.k.k.k.k.k.k.k.k.k.k.k.k.k.k.k.k.k.k.k.k.k.k.k.k.",
"k.k.k.k.k.k.k.k.k.k.k.k.k.k.k.k.k.k.k.k.k.k.k.k.k.k.k.k.k.+ * % - - - - % = + k.k.k.k.k.k.k.k.k.k.k.k.k.k.k.k.k.k.k.k.k.k.k.k.k.k.k.k.k.",
"k.k.k.k.k.k.k.k.k.k.k.k.k.k.k.k.k.k.k.k.k.k.k.k.k.k.k.k.k.k.X . . X X X X X k.k.k.k.k.k.k.k.k.k.k.k.k.k.k.k.k.k.k.k.k.k.k.k.k.k.k.k.k.k.",
"k.k.k.k.k.k.k.k.k.k.k.k.k.k.k.k.k.k.k.k.k.k.k.k.k.k.k.k.k.k.k.k.k.k.k.k.k.k.k.k.k.k.k.k.k.k.k.k.k.k.k.k.k.k.k.k.k.k.k.k.k.k.k.k.k.k.k.k.",
"k.k.k.k.k.k.k.k.k.k.k.k.k.k.k.k.k.k.k.k.k.k.k.k.k.k.k.k.k.k.k.k.k.k.k.k.k.k.k.k.k.k.k.k.k.k.k.k.k.k.k.k.k.k.k.k.k.k.k.k.k.k.k.k.k.k.k.k.",
"k.k.k.k.k.k.k.k.k.k.k.k.k.k.k.k.k.k.k.k.k.k.k.k.k.k.k.k.k.k.k.k.k.k.k.k.k.k.k.k.k.k.k.k.k.k.k.k.k.k.k.k.k.k.k.k.k.k.k.k.k.k.k.k.k.k.k.k.",
"k.k.k.k.k.k.k.k.k.k.k.k.k.k.k.k.k.k.k.k.k.k.k.k.k.k.k.k.k.k.k.k.k.k.k.k.k.k.k.k.k.k.k.k.k.k.k.k.k.k.k.k.k.k.k.k.k.k.k.k.k.k.k.k.k.k.k.k.",
"k.k.k.k.k.k.k.k.k.k.k.k.k.k.k.k.k.k.k.k.k.k.k.k.k.k.k.k.k.k.k.k.k.k.k.k.k.k.k.k.k.k.k.k.k.k.k.k.k.k.k.k.k.k.k.k.k.k.k.k.k.k.k.k.k.k.k.k.",
"k.k.k.k.k.k.k.k.k.k.k.k.k.k.k.k.k.k.k.k.k.k.k.k.k.k.k.k.k.k.k.k.k.k.k.k.k.k.k.k.k.k.k.k.k.k.k.k.k.k.k.k.k.k.k.k.k.k.k.k.k.k.k.k.k.k.k.k.",
"k.k.k.k.k.k.k.k.k.k.k.k.k.k.k.k.k.k.k.k.k.k.k.k.k.k.k.k.k.k.k.k.k.k.k.k.k.k.k.k.k.k.k.k.k.k.k.k.k.k.k.k.k.k.k.k.k.k.k.k.k.k.k.k.k.k.k.k.",
"k.k.k.k.k.k.k.k.k.k.k.k.k.k.k.k.k.k.k.k.k.k.k.k.k.k.k.k.k.k.k.k.k.k.k.k.k.k.k.k.k.k.k.k.k.k.k.k.k.k.k.k.k.k.k.k.k.k.k.k.k.k.k.k.k.k.k.k.",
"k.k.k.k.k.k.k.k.k.k.k.k.k.k.k.k.k.k.k.k.k.k.k.k.k.k.k.k.k.k.k.k.k.k.k.k.k.k.k.k.k.k.k.k.k.k.k.k.k.k.k.k.k.k.k.k.k.k.k.k.k.k.k.k.k.k.k.k.",
"k.k.k.k.k.k.k.k.k.k.k.k.k.k.k.k.k.k.k.k.k.k.k.k.k.k.k.k.k.k.k.k.k.k.k.k.k.k.k.k.k.k.k.k.k.k.k.k.k.k.k.k.k.k.k.k.k.k.k.k.k.k.k.k.k.k.k.k.",
"k.k.k.k.k.k.k.k.k.k.k.k.k.k.k.k.k.k.k.k.k.k.k.k.k.k.k.k.k.k.k.k.k.k.k.k.k.k.k.k.k.k.k.k.k.k.k.k.k.k.k.k.k.k.k.k.k.k.k.k.k.k.k.k.k.k.k.k.",
"k.k.k.k.k.k.k.k.k.k.k.k.k.k.k.k.k.k.k.k.k.k.k.k.k.k.k.k.k.k.k.k.k.k.k.k.k.k.k.k.k.k.k.k.k.k.k.k.k.k.k.k.k.k.k.k.k.k.k.k.k.k.k.k.k.k.k.k.",
"k.k.k.k.k.k.k.k.k.k.k.k.k.k.k.k.k.k.k.k.k.k.k.k.k.k.k.k.k.k.k.k.k.k.k.k.k.k.k.k.k.k.k.k.k.k.k.k.k.k.k.k.k.k.k.k.k.k.k.k.k.k.k.k.k.k.k.k.",
"k.k.k.k.k.k.k.k.k.k.k.k.k.k.k.k.k.k.k.k.k.k.k.k.k.k.k.k.k.k.k.k.k.k.k.k.k.k.k.k.k.k.k.k.k.k.k.k.k.k.k.k.k.k.k.k.k.k.k.k.k.k.k.k.k.k.k.k.",
"k.k.k.k.k.k.k.k.k.k.k.k.k.k.k.k.k.k.k.k.k.k.k.k.k.k.k.k.k.k.k.k.k.k.k.k.k.k.k.k.k.k.k.k.k.k.k.k.k.k.k.k.k.k.k.k.k.k.k.k.k.k.k.k.k.k.k.k.",
"k.k.k.k.k.k.k.k.k.k.k.k.k.k.k.k.k.k.k.k.k.k.k.k.k.k.k.k.k.k.k.k.k.k.k.k.k.k.k.k.k.k.k.k.k.k.k.k.k.k.k.k.k.k.k.k.k.k.k.k.k.k.k.k.k.k.k.k.",
"k.k.k.k.k.k.k.k.k.k.k.k.k.k.k.k.k.k.k.k.k.k.k.k.k.k.k.k.k.k.k.k.k.k.k.k.k.k.k.k.k.k.k.k.k.k.k.k.k.k.k.k.k.k.k.k.k.k.k.k.k.k.k.k.k.k.k.k."
};
