/* XPM */
static char *result[] = {
/* columns rows colors chars-per-pixel */
"70 70 137 2 ",
"   c #120F14",
".  c #141115",
"X  c #161318",
"o  c #19161B",
"O  c #1C191E",
"+  c #201D1F",
"@  c #1E1B21",
"#  c #221E24",
"$  c #241F28",
"%  c #242126",
"&  c #2F2825",
"*  c #272329",
"=  c #29262B",
"-  c #2D292E",
";  c #312723",
":  c #322924",
">  c #2E2A31",
",  c #322D34",
"<  c #353136",
"1  c #363238",
"2  c #3B353C",
"3  c #3D393E",
"4  c #55443C",
"5  c #634E3C",
"6  c #68523F",
"7  c #3E3941",
"8  c #423D44",
"9  c #454146",
"0  c #4B4145",
"q  c #474249",
"w  c #4A454C",
"e  c #4D494E",
"r  c #544946",
"t  c #5C4D43",
"y  c #524C4D",
"u  c #5D4E49",
"i  c #4E4950",
"p  c #524C54",
"a  c #544F59",
"s  c #565157",
"d  c #5B5253",
"f  c #575159",
"g  c #5A545C",
"h  c #5D585F",
"j  c #6F5946",
"k  c #64564D",
"l  c #6B594C",
"z  c #745C47",
"x  c #765D49",
"c  c #635956",
"v  c #6C5D50",
"b  c #645D5C",
"n  c #6F5F59",
"m  c #7B624C",
"M  c #6C6055",
"N  c #6A635C",
"B  c #6B685F",
"V  c #70645D",
"C  c #7C6C5D",
"Z  c #5D5660",
"A  c #5E5961",
"S  c #625C65",
"D  c #665F69",
"F  c #67606A",
"G  c #6A636D",
"H  c #766B61",
"J  c #7B6E64",
"K  c #7B7168",
"L  c #716A74",
"P  c #7A747C",
"I  c #826750",
"U  c #836A53",
"Y  c #886C55",
"T  c #8D735A",
"R  c #92755C",
"E  c #93795F",
"W  c #816F61",
"Q  c #857360",
"!  c #8A7561",
"~  c #807867",
"^  c #8E7B65",
"/  c #807968",
"(  c #957A60",
")  c #997E63",
"_  c #938163",
"`  c #9D8265",
"'  c #9E896F",
"]  c #958A73",
"[  c #9D8E74",
"{  c #A28669",
"}  c #A2886A",
"|  c #A98D6E",
" . c #A48D70",
".. c #AA8F70",
"X. c #A38F7B",
"o. c #A59072",
"O. c #AD9373",
"+. c #AF9876",
"@. c #AE977D",
"#. c #A1997E",
"$. c #A8997C",
"%. c #B09574",
"&. c #B39977",
"*. c #B49B7A",
"=. c #BA9E7B",
"-. c #B6A27E",
";. c #BBA27E",
":. c #7E7680",
">. c #837D83",
",. c #887F80",
"<. c #87828B",
"1. c #998E8A",
"2. c #9A9685",
"3. c #8E8590",
"4. c #A59D85",
"5. c #A89D80",
"6. c #B3A584",
"7. c #B9A380",
"8. c #BDA882",
"9. c #A59EA7",
"0. c #A9A1AB",
"q. c #BDB9BE",
"w. c #C2A680",
"e. c #C3AD86",
"r. c #C5B18A",
"t. c #CCB68D",
"y. c #CDBB92",
"u. c #D3BC93",
"i. c #C9C199",
"p. c #D4C297",
"a. c #D3C499",
"s. c #D5C89B",
"d. c #DFD1A0",
"f. c #DFD8A9",
"g. c #C1BCC2",
"h. c #C7C1C9",
"j. c None",
/* pixels */
"j.j.j.j.j.j.j.j.j.j.j.j.j.j.j.j.j.j.j.j.j.j.j.j.j.j.j.j.j.j.j.j.j.j.j.j.j.j.j.j.j.j.j.j.j.j.j.j.j.j.j.j.j.j.j.j.j.j.j.j.j.j.j.j.j.j.j.j.j.j.",
"j.j.j.j.j.j.j.j.j.j.j.j.j.j.j.j.j.j.j.j.j.j.j.j.j.j.j.j.j.j.j.j.j.j.j.j.j.j.j.j.j.j.j.j.j.j.j.j.j.j.j.j.j.j.j.j.j.j.j.j.j.j.j.j.j.j.j.j.j.j.",
"j.j.j.j.j.j.j.j.j.j.j.j.j.j.j.j.j.j.j.j.j.j.j.j.j.j.j.j.j.j.j.j.j.j.j.j.j.j.j.j.j.j.j.j.j.j.j.j.j.j.j.j.j.j.j.j.j.j.j.j.j.j.j.j.j.j.j.j.j.j.",
"j.j.j.j.j.j.j.j.j.j.j.j.j.j.j.j.j.j.j.j.j.j.j.j.j.j.j.j.j.j.j.j.j.j.j.j.j.j.j.j.j.j.j.j.j.j.j.j.j.j.j.j.j.j.j.j.j.j.j.j.j.j.j.j.j.j.j.j.j.j.",
"j.j.j.j.j.j.j.j.j.j.j.j.j.j.j.j.j.j.j.j.j.j.j.j.j.j.j.j.j.j.j.j.j.j.j.j.j.j.j.j.j.j.j.j.j.j.j.j.j.j.j.j.j.j.j.j.j.j.j.j.j.j.j.j.j.j.j.j.j.j.",
"j.j.j.j.j.j.j.j.j.j.j.j.j.j.j.j.j.j.j.j.j.j.j.j.j.j.j.j.j.j.j.j.j.j.j.j.j.j.j.j.j.j.j.j.j.j.j.j.j.j.j.j.j.j.j.j.j.j.j.j.j.j.j.j.j.j.j.j.j.j.",
"j.j.j.j.j.j.j.j.j.j.j.j.j.j.j.j.j.j.j.j.j.j.j.j.j.j.j.j.j.j.j.O . . j.j.j.j.j.j.j.j.j.j.j.j.j.j.j.j.j.j.j.j.j.j.j.j.j.j.j.j.j.j.j.j.j.j.j.j.",
"j.j.j.j.j.j.j.j.j.j.j.j.j.j.j.j.j.j.j.j.j.j.j.j.j.j.j.j.j.j.> w = X j.X X X   X j.j.j.j.j.j.j.j.j.j.j.j.j.j.j.j.j.j.j.j.j.j.j.j.j.j.j.j.j.j.",
"j.j.j.j.j.j.j.j.j.j.j.j.j.j.j.j.j.j.j.j.j.j.j.j.j.j.j.j.j.= 3 f = X O > < > X X j.j.j.j.j.j.j.j.j.j.j.j.j.j.j.j.j.j.j.j.j.j.j.j.j.j.j.j.j.j.",
"j.j.j.j.j.j.j.j.j.j.j.j.j.j.j.j.j.j.j.j.j.j.j.j.% * # o # 2 e i = @ = 9 i 9 O j.j.j.j.j.j.j.j.j.j.j.j.j.j.j.j.j.j.j.j.j.j.j.j.j.j.j.j.j.j.j.",
"j.j.j.j.j.j.j.j.j.j.j.j.j.j.j.j.j.j.X X . X X - f A i 3 8 f A i 3 3 9 e 1 % j.j.j.j.j.j.j.j.j.j.j.j.j.j.j.j.j.j.j.j.j.j.j.j.j.j.j.j.j.j.j.j.",
"j.j.j.j.j.j.j.j.j.j.j.j.j.j.j.j.X X - 1 3 9 q i D G S a h h a 8 2 3 8 7 = X . j.j.X X . j.j.j.j.j.j.j.j.j.j.j.j.j.j.j.j.j.j.j.j.j.j.j.j.j.j.",
"j.j.j.j.j.j.j.j.j.j.j.j.j.j.j.= , < q f g D S A S S h f g p 8 2 1 , - - @ X . . * , = O j.j.j.j.j.j.j.j.j.j.j.j.j.j.j.j.j.j.j.j.j.j.j.j.j.j.",
"j.j.j.j.j.j.j.j.j.j.j.j.j.j.# 8 S F G G F F h p p e 9 7 2 3 2 1 , = o O o X X O 7 h e j.j.j.j.j.j.j.j.j.j.j.j.j.j.j.j.j.j.j.j.j.j.j.j.j.j.j.",
"j.j.j.j.j.j.j.j.j.j.j.j.j.# 8 p g F G G G G D S S f s g p 7 > @ # - 8 p s e 8 7 q w = O j.j.j.j.j.j.j.j.j.j.j.j.j.j.j.j.j.j.j.j.j.j.j.j.j.j.",
"j.j.j.j.j.j.j.j.j.j.j.j.= 8 p q 2 p S G F S f p p w w i 8 , # X # 2 p S G F g g p e < , = j.j.j.j.j.j.j.j.j.j.j.j.j.j.j.j.j.j.j.j.j.j.j.j.j.",
"j.j.j.j.j.j.j.j.j.j.j.X , g w - @ 8 Z D Z i 8 7 2 3 3 2 , # X @ , q f G G G S D g w w w 3 * j.j.j.j.j.j.j.j.j.j.j.j.j.j.j.j.j.j.j.j.j.j.j.j.",
"j.j.j.j.j.j.j.j.j.j.j.X = w * o = g D f 7 2 1 2 8 8 8 , # X @ 1 q f F G G A p p 9 2 2 9 w 8 % j.j.j.j.j.j.j.j.j.j.j.j.j.j.j.j.j.j.j.j.j.j.j.",
"j.j.j.j.j.j.j.j.j.j.j.. o = O - p D f 7 # $ 1 w p w 1 # . X # 8 f S G G G G Z Z e 3 1 , < j.j.j.j.j.j.j.j.j.j.j.j.j.j.j.j.j.j.j.j.j.j.j.j.j.",
"j.j.j.j.j.j.j.j.j.j.j.j.. o X < p w 2 % X > q a p 2 * X   # , q p A G G G A w w 8 8 2 - # j.j.j.j.j.j.j.j.j.j.j.j.j.j.j.j.j.j.j.j.j.j.j.j.j.",
"j.j.j.j.j.j.j.j.j.j.j.j.j.j.. % > @ X X @ i A f 3 # X   X , 8 2 2 i G G S w $ X - 9 2 , = o j.j.j.j.j.j.j.j.j.j.j.j.j.j.j.j.j.j.j.j.j.j.j.j.",
"j.j.j.j.j.j.j.j.j.j.j.j.j.j.. o @ j.j.. . # * % O j.j.j.X = 3 2 q f G D 8 3 i = * < % @ o j.j.j.j.j.j.j.j.j.j.j.j.j.j.j.j.j.j.j.j.j.j.j.j.j.",
"j.j.j.j.j.j.j.j.j.j.j.j.j.j.j.j.j.j.j.j.j.j.j.j.j.j.j.j.  = 8 8 w q 7 7 8 w a = @ = 7 % X j.j.j.j.j.j.j.j.j.j.j.j.j.j.j.j.j.j.j.j.j.j.j.j.j.",
"j.j.j.j.j.j.j.j.j.j.j.j.j.j.j.j.j.j.j.j.j.j.j.j.j.j.j.j.X = 3 3 7 > # > w a w = # 2 p , o j.j.j.j.j.j.j.j.j.j.j.j.j.j.j.j.j.j.j.j.j.j.j.j.j.",
"j.j.j.j.j.j.j.j.j.j.j.j.j.j.j.j.j.j.j.j.j.j.j.j.j.j.j.j.X * = o @ = 2 s f q 9 3 w a 8 $   X X X . j.j.j.j.j.j.j.j.j.j.j.j.j.j.j.j.j.j.j.j.j.",
"j.j.j.j.j.j.j.j.j.j.j.j.j.j.j.j.j.j.j.j.j.j.j.j.j.j.j.X   o $ < M M w s e N 5.] J s 8 , 2 w w 3 j.j.j.j.j.j.j.j.j.j.j.j.j.j.j.j.j.j.j.j.j.j.",
"j.j.j.j.j.j.j.j.j.j.j.j.j.j.j.j.j.j.j.j.j.j.j.j.j.j.O * # * 3 K ' C w 9 H #.p.@.K f 9 w p S h w j.j.j.j.j.j.j.j.j.j.j.j.j.j.j.j.j.j.j.j.j.j.",
"j.j.j.j.j.j.j.j.j.j.j.j.j.j.j.j.j.j.j.j.j.j.j.j.O @ > 8 3 w / a. .l 9 d 2.s.e.H g g d f A b y 2 % j.j.j.j.j.j.j.j.j.j.j.j.j.j.j.j.j.j.j.j.j.",
"j.j.j.j.j.j.j.j.j.j.j.j.j.j.j.j.j.j.j.j.j.j.j.* 7 p L 3.G 2.y.y.C l T 6.y.e.` c w 8 4 r V ..^ M w # j.j.j.j.j.j.j.j.j.j.j.j.j.j.j.j.j.j.j.j.",
"j.j.j.j.j.j.j.j.j.j.j.j.j.j.j.j.j.j.j.j.j.j.# 1 g :.0.g.>.4.t.&.[ #.o. .o.} E [ ] Q Y ^ [  .C c w O j.j.j.j.j.j.j.j.j.j.j.j.j.j.j.j.j.j.j.j.",
"j.j.j.j.j.j.j.j.j.j.j.j.j.j.j.j.j.j.j.j.j.# , q D 9.h.g.1.X.*.7.y.r.} I U E &.y.t.&.%.7.-.( k y 9 * O j.j.j.j.j.j.j.j.j.j.j.j.j.j.j.j.j.j.j.",
"j.j.j.j.j.j.j.j.j.j.j.j.j.j.j.j.j.j.j.j.@ > 8 p L g.q.,.5.%.7.f.p.} z Y E +.a.p.*.{ =. .( U j t e w = X j.j.j.j.j.j.j.j.j.j.j.j.j.j.j.j.j.j.",
"j.j.j.j.j.j.j.j.j.j.j.j.j.j.j.j.j.j.j.* 3 q s S D >.P d *.u.a.p.&.E E r.;.o._ ` E R } E I x m z t 4 : X j.j.j.j.j.j.j.j.j.j.j.j.j.j.j.j.j.j.",
"j.j.j.j.j.j.j.j.j.j.j.j.j.j.j.j.j.j.X * 9 e s g f a d v 7.p.p.*.` } ;.p.-.E m ` ` R | T m m Y I z 5 ; X j.j.j.j.j.j.j.j.j.j.j.j.j.j.j.j.j.j.",
"j.j.j.j.j.j.j.j.j.j.j.j.j.j.j.j.j.j.. + 3 q e w 7 2 u R w.t.w.R T *.d.u.E z T ;.%.` w.T z Y R T U 6 : X j.j.j.j.j.j.j.j.j.j.j.j.j.j.j.j.j.j.",
"j.j.j.j.j.j.j.j.j.j.j.j.j.j.j.j.j.j.. % 3 q w w 2 8 u R w.t.;.R R -.d.y._ z T ;.%.` w.T z T R R Y 6 : X j.j.j.j.j.j.j.j.j.j.j.j.j.j.j.j.j.j.",
"j.j.j.j.j.j.j.j.j.j.j.j.j.j.j.j.j.j.X = 8 y f h p g f l 7.a.p.*.` } ;.a.;.E m ` ) R | R x m U I z 5 ; . j.j.j.j.j.j.j.j.j.j.j.j.j.j.j.j.j.j.",
"j.j.j.j.j.j.j.j.j.j.j.j.j.j.j.j.j.j.j.= 3 8 a S D >.:.d *.y.a.a.&.E _ e.;..._ ` E R | R U x m z k 4 & X j.j.j.j.j.j.j.j.j.j.j.j.j.j.j.j.j.j.",
"j.j.j.j.j.j.j.j.j.j.j.j.j.j.j.j.j.j.j.j.# > 8 f L g.g.,.@.+.-.f.p.} z U E +.s.p.*.{ =. .) Y z r r 9 = X j.j.j.j.j.j.j.j.j.j.j.j.j.j.j.j.j.j.",
"j.j.j.j.j.j.j.j.j.j.j.j.j.j.j.j.j.j.j.j.j.# , 8 D 9.g.g.1.X.*.-.y.r.} U I E +.p.t.*.O.7.*.( k e 9 * O j.j.j.j.j.j.j.j.j.j.j.j.j.j.j.j.j.j.j.",
"j.j.j.j.j.j.j.j.j.j.j.j.j.j.j.j.j.j.j.j.j.j.% < f :.0.g.>.4.t.&.[ [ O.o.o.} ( [ ] Q U ^ [  .C c w O j.j.j.j.j.j.j.j.j.j.j.j.j.j.j.j.j.j.j.j.",
"j.j.j.j.j.j.j.j.j.j.j.j.j.j.j.j.j.j.j.j.j.j.j.* 7 p L 3.L 2.i.t.C l T 6.y.e.) c w 0 4 y V  .( n w % j.j.j.j.j.j.j.j.j.j.j.j.j.j.j.j.j.j.j.j.",
"j.j.j.j.j.j.j.j.j.j.j.j.j.j.j.j.j.j.j.j.j.j.j.j.O @ , 8 2 w ~ p. .l 9 d 5.s.e.H g g d f h b p 2 % j.j.j.j.j.j.j.j.j.j.j.j.j.j.j.j.j.j.j.j.j.",
"j.j.j.j.j.j.j.j.j.j.j.j.j.j.j.j.j.j.j.j.j.j.j.j.j.j.@ % # $ 3 ~ ' J q 9 B #.a.$.K g 9 q p h h w j.j.j.j.j.j.j.j.j.j.j.j.j.j.j.j.j.j.j.j.j.j.",
"j.j.j.j.j.j.j.j.j.j.j.j.j.j.j.j.j.j.j.j.j.j.j.j.j.j.j.X   @ $ < v M w p i B 5.] J s 7 1 2 w i 7 j.j.j.j.j.j.j.j.j.j.j.j.j.j.j.j.j.j.j.j.j.j.",
"j.j.j.j.j.j.j.j.j.j.j.j.j.j.j.j.j.j.j.j.j.j.j.j.j.j.j.j.X * = X + = 2 g p w 9 2 w a 8 % . X X X   j.j.j.j.j.j.j.j.j.j.j.j.j.j.j.j.j.j.j.j.j.",
"j.j.j.j.j.j.j.j.j.j.j.j.j.j.j.j.j.j.j.j.j.j.j.j.j.j.j.j.. = 3 7 3 , % > w s w = % 1 p , X j.j.j.j.j.j.j.j.j.j.j.j.j.j.j.j.j.j.j.j.j.j.j.j.j.",
"j.j.j.j.j.j.j.j.j.j.j.j.j.j.j.j.j.j.j.j.j.j.j.j.j.j.j.j.. = 7 8 e 9 3 3 7 w s = O - 2 % X j.j.j.j.j.j.j.j.j.j.j.j.j.j.j.j.j.j.j.j.j.j.j.j.j.",
"j.j.j.j.j.j.j.j.j.j.j.j.j.j.. o @ j.j.  X # % % @ j.j.j.  = 8 2 q f G D q 7 w * % < % # o j.j.j.j.j.j.j.j.j.j.j.j.j.j.j.j.j.j.j.j.j.j.j.j.j.",
"j.j.j.j.j.j.j.j.j.j.j.j.j.j.. $ > @ X X @ i A f 2 # X . X , 8 3 7 i G G A w * o > 8 2 , = o j.j.j.j.j.j.j.j.j.j.j.j.j.j.j.j.j.j.j.j.j.j.j.j.",
"j.j.j.j.j.j.j.j.j.j.j.j.. o X , p w 2 $ X > q f p 3 $ X   # 1 8 i A G G G S w w q 8 2 = # j.j.j.j.j.j.j.j.j.j.j.j.j.j.j.j.j.j.j.j.j.j.j.j.j.",
"j.j.j.j.j.j.j.j.j.j.j.. o = O > p D a 7 # $ 1 w p q < # X X $ 8 a D G G G G h h i 2 1 , , j.j.j.j.j.j.j.j.j.j.j.j.j.j.j.j.j.j.j.j.j.j.j.j.j.",
"j.j.j.j.j.j.j.j.j.j.j.X = w * o = A D a 7 2 2 2 8 8 8 1 # . @ , q f G G F A s p q 3 3 8 w 9 * j.j.j.j.j.j.j.j.j.j.j.j.j.j.j.j.j.j.j.j.j.j.j.",
"j.j.j.j.j.j.j.j.j.j.j.X , g w - @ 8 A D h i 8 2 2 7 7 2 , # X @ , 8 g D G G A F f w w w 3 * j.j.j.j.j.j.j.j.j.j.j.j.j.j.j.j.j.j.j.j.j.j.j.j.",
"j.j.j.j.j.j.j.j.j.j.j.j.= 8 e 9 2 p S G D S f p i w w i 8 , # . % 1 i D F F g g s w < , = j.j.j.j.j.j.j.j.j.j.j.j.j.j.j.j.j.j.j.j.j.j.j.j.j.",
"j.j.j.j.j.j.j.j.j.j.j.j.j.% 9 s g F G G G G F S S a f g i 8 > # @ - 9 i s e 9 8 9 w = O j.j.j.j.j.j.j.j.j.j.j.j.j.j.j.j.j.j.j.j.j.j.j.j.j.j.",
"j.j.j.j.j.j.j.j.j.j.j.j.j.j.# 8 A G G G G F A i i w q 7 3 2 2 1 1 * o o O X X O 7 A i j.j.j.j.j.j.j.j.j.j.j.j.j.j.j.j.j.j.j.j.j.j.j.j.j.j.j.",
"j.j.j.j.j.j.j.j.j.j.j.j.j.j.j.= , < q s g D S A S S A f f i 9 1 2 , - - @ X . . % , = O j.j.j.j.j.j.j.j.j.j.j.j.j.j.j.j.j.j.j.j.j.j.j.j.j.j.",
"j.j.j.j.j.j.j.j.j.j.j.j.j.j.j.j.X o - < 2 9 9 i F G S f A g s 9 3 2 7 8 = X . j.j.X X . j.j.j.j.j.j.j.j.j.j.j.j.j.j.j.j.j.j.j.j.j.j.j.j.j.j.",
"j.j.j.j.j.j.j.j.j.j.j.j.j.j.j.j.j.j.X X . X X > f A i 2 q f h p 7 2 q w < % j.j.j.j.j.j.j.j.j.j.j.j.j.j.j.j.j.j.j.j.j.j.j.j.j.j.j.j.j.j.j.j.",
"j.j.j.j.j.j.j.j.j.j.j.j.j.j.j.j.j.j.j.j.j.j.j.j.% % # O # 2 w e - @ = 9 i 8 O j.j.j.j.j.j.j.j.j.j.j.j.j.j.j.j.j.j.j.j.j.j.j.j.j.j.j.j.j.j.j.",
"j.j.j.j.j.j.j.j.j.j.j.j.j.j.j.j.j.j.j.j.j.j.j.j.j.j.j.j.j.= 3 g - X O > < > X X j.j.j.j.j.j.j.j.j.j.j.j.j.j.j.j.j.j.j.j.j.j.j.j.j.j.j.j.j.j.",
"j.j.j.j.j.j.j.j.j.j.j.j.j.j.j.j.j.j.j.j.j.j.j.j.j.j.j.j.j.j.> w * X j.X X X   . j.j.j.j.j.j.j.j.j.j.j.j.j.j.j.j.j.j.j.j.j.j.j.j.j.j.j.j.j.j.",
"j.j.j.j.j.j.j.j.j.j.j.j.j.j.j.j.j.j.j.j.j.j.j.j.j.j.j.j.j.j.j.O . . j.j.j.j.j.j.j.j.j.j.j.j.j.j.j.j.j.j.j.j.j.j.j.j.j.j.j.j.j.j.j.j.j.j.j.j.",
"j.j.j.j.j.j.j.j.j.j.j.j.j.j.j.j.j.j.j.j.j.j.j.j.j.j.j.j.j.j.j.j.j.j.j.j.j.j.j.j.j.j.j.j.j.j.j.j.j.j.j.j.j.j.j.j.j.j.j.j.j.j.j.j.j.j.j.j.j.j.",
"j.j.j.j.j.j.j.j.j.j.j.j.j.j.j.j.j.j.j.j.j.j.j.j.j.j.j.j.j.j.j.j.j.j.j.j.j.j.j.j.j.j.j.j.j.j.j.j.j.j.j.j.j.j.j.j.j.j.j.j.j.j.j.j.j.j.j.j.j.j.",
"j.j.j.j.j.j.j.j.j.j.j.j.j.j.j.j.j.j.j.j.j.j.j.j.j.j.j.j.j.j.j.j.j.j.j.j.j.j.j.j.j.j.j.j.j.j.j.j.j.j.j.j.j.j.j.j.j.j.j.j.j.j.j.j.j.j.j.j.j.j.",
"j.j.j.j.j.j.j.j.j.j.j.j.j.j.j.j.j.j.j.j.j.j.j.j.j.j.j.j.j.j.j.j.j.j.j.j.j.j.j.j.j.j.j.j.j.j.j.j.j.j.j.j.j.j.j.j.j.j.j.j.j.j.j.j.j.j.j.j.j.j.",
"j.j.j.j.j.j.j.j.j.j.j.j.j.j.j.j.j.j.j.j.j.j.j.j.j.j.j.j.j.j.j.j.j.j.j.j.j.j.j.j.j.j.j.j.j.j.j.j.j.j.j.j.j.j.j.j.j.j.j.j.j.j.j.j.j.j.j.j.j.j.",
"j.j.j.j.j.j.j.j.j.j.j.j.j.j.j.j.j.j.j.j.j.j.j.j.j.j.j.j.j.j.j.j.j.j.j.j.j.j.j.j.j.j.j.j.j.j.j.j.j.j.j.j.j.j.j.j.j.j.j.j.j.j.j.j.j.j.j.j.j.j."
};
