/* XPM */
static char *result[] = {
/* columns rows colors chars-per-pixel */
"64 64 127 2 ",
"   c #161318",
".  c #19161B",
"X  c #1D191F",
"o  c #1F1B21",
"O  c #221E24",
"+  c #242026",
"@  c #272329",
"#  c #2A262B",
"$  c #2C292E",
"%  c #312926",
"&  c #2F2A31",
"*  c #322D34",
"=  c #343136",
"-  c #363238",
";  c #3B353D",
":  c #3D383E",
">  c #66503E",
",  c #68523F",
"<  c #3E3940",
"1  c #423D43",
"2  c #454146",
"3  c #4A4245",
"4  c #474349",
"5  c #4A464C",
"6  c #4D4A4E",
"7  c #5D4E43",
"8  c #524C4D",
"9  c #5D4E49",
"0  c #4F4A51",
"q  c #524D54",
"w  c #584F52",
"e  c #555157",
"r  c #5A5354",
"t  c #575159",
"y  c #5A545C",
"u  c #5D585F",
"i  c #6C5642",
"p  c #6F5844",
"a  c #63544D",
"s  c #6B594E",
"d  c #735B47",
"f  c #725C4B",
"g  c #635A55",
"h  c #6B5B51",
"j  c #645C59",
"k  c #695E59",
"l  c #7A614C",
"z  c #6C655F",
"x  c #746556",
"c  c #7F6651",
"v  c #72645B",
"b  c #7C6A5C",
"n  c #5D5760",
"m  c #5F5961",
"M  c #625C64",
"N  c #655F68",
"B  c #67616A",
"V  c #6A636D",
"C  c #777064",
"Z  c #7E7467",
"A  c #7E7269",
"S  c #726A75",
"D  c #786F73",
"F  c #7B747D",
"G  c #806650",
"H  c #856A53",
"J  c #896E57",
"K  c #8E745B",
"L  c #8D7A5E",
"P  c #91755C",
"I  c #93795E",
"U  c #877564",
"Y  c #8B7662",
"T  c #947B61",
"R  c #9A7E63",
"E  c #8F8069",
"W  c #9D8266",
"Q  c #988D76",
"!  c #9F947B",
"~  c #A18568",
"^  c #A3886B",
"/  c #A88D6F",
"(  c #A48E70",
")  c #A98E70",
"_  c #A48F7B",
"`  c #A29175",
"'  c #AC9473",
"]  c #A49478",
"[  c #AE9C7F",
"{  c #B29776",
"}  c #B49B7A",
"|  c #B89E7C",
" . c #B7A27E",
".. c #BDA27F",
"X. c #7D7780",
"o. c #88838B",
"O. c #938987",
"+. c #9F9C89",
"@. c #8F8591",
"#. c #AA9E8A",
"$. c #B69F80",
"%. c #AAA688",
"&. c #B0A787",
"*. c #BBA382",
"=. c #BDAA83",
"-. c #A39BA5",
";. c #A9A1AB",
":. c #C5AB85",
">. c #C5B48B",
",. c #CDB28B",
"<. c #C2B690",
"1. c #CEBA90",
"2. c #D2BC93",
"3. c #D2C196",
"4. c #D6C69B",
"5. c #D8C69A",
"6. c #D5CA9E",
"7. c #DECD9E",
"8. c #D2CBA0",
"9. c #E5DAA7",
"0. c #E2D7A8",
"q. c #E8DEAA",
"w. c #EEEDB9",
"e. c #C5C2C6",
"r. c #CAC4CB",
"t. c #CECBCF",
"y. c None",
/* pixels */
"y.y.y.y.y.y.y.y.y.y.y.y.y.y.y.y.y.y.y.y.y.y.y.y.y.y.y.y.y.y.y.y.y.y.y.y.y.y.y.y.y.y.y.y.y.y.y.y.y.y.y.y.y.y.y.y.y.y.y.y.y.y.y.y.",
"y.y.y.y.y.y.y.y.y.y.y.y.y.y.y.y.y.y.y.y.y.y.y.y.y.y.y.y.y.y.y.y.y.y.y.y.y.y.y.y.y.y.y.y.y.y.y.y.y.y.y.y.y.y.y.y.y.y.y.y.y.y.y.y.",
"y.y.y.y.y.y.y.y.y.y.y.y.y.y.y.y.y.y.y.y.y.y.y.y.y.y.y.y.y.y.y.y.y.y.y.y.y.y.y.y.y.y.y.y.y.y.y.y.y.y.y.y.y.y.y.y.y.y.y.y.y.y.y.y.",
"y.y.y.y.y.y.y.y.y.y.y.y.y.y.y.y.y.y.y.y.y.y.y.y.y.y.y.y.y.y.y.y.y.y.y.y.y.y.y.y.y.y.y.y.y.y.y.y.y.y.y.y.y.y.y.y.y.y.y.y.y.y.y.y.",
"y.y.y.y.y.y.y.y.y.y.y.y.y.y.y.y.y.y.y.y.y.y.y.y.y.y.y.y.y.y.y.y.y.y.y.y.y.y.y.y.y.y.y.y.y.y.y.y.y.y.y.y.y.y.y.y.y.y.y.y.y.y.y.y.",
"y.y.y.y.y.y.y.y.y.y.y.y.y.y.y.y.y.y.y.y.y.y.y.y.y.y.y.y.y.y.y.y.y.y.y.y.y.y.y.y.y.y.y.y.y.y.y.y.y.y.y.y.y.y.y.y.y.y.y.y.y.y.y.y.",
"y.y.y.y.y.y.y.y.y.y.y.y.y.y.y.y.y.y.y.y.y.y.y.y.y.y.y.y.y.y.y.y.y.y.y.y.y.y.y.y.y.y.y.y.y.y.y.y.y.y.y.y.y.y.y.y.y.y.y.y.y.y.y.y.",
"y.y.y.y.y.y.y.y.y.y.y.y.y.y.y.y.y.y.y.y.y.y.y.y.y.y.y.y.y.y.y.y.y.y.y.y.y.y.y.y.y.y.y.y.y.y.y.y.y.y.y.y.y.y.y.y.y.y.y.y.y.y.y.y.",
"y.y.y.y.y.y.y.y.y.y.y.y.y.y.y.y.y.y.y.y.y.y.y.y.y.y.y.y.y.y.y.y.y.y.y.y.y.y.y.y.y.y.y.y.y.y.y.y.y.y.y.y.y.y.y.y.y.y.y.y.y.y.y.y.",
"y.y.y.y.y.y.y.y.y.y.y.y.y.y.y.y.y.y.y.y.y.y.y.y.y.y.y.y.y.y.y.y.y.y.y.y.y.y.y.y.y.y.y.y.y.y.y.y.y.y.y.y.y.y.y.y.y.y.y.y.y.y.y.y.",
"y.y.y.y.y.y.y.y.y.y.y.y.y.y.y.y.y.y.y.y.y.y.y.y.y.y.y.y.y.y.y.y.y.y.y.y.y.y.y.y.y.y.y.y.y.y.y.y.y.y.y.y.y.y.y.y.y.y.y.y.y.y.y.y.",
"y.y.y.y.y.y.y.y.y.y.y.y.y.y.y.y.y.y.y.y.y.y.y.y.y.y.y.y.y.y.y.y.y.y.y.y.y.y.y.y.y.y.y.y.y.y.y.y.y.y.y.y.y.y.y.y.y.y.y.y.y.y.y.y.",
"y.y.y.y.y.y.y.y.y.y.y.y.y.y.y.y.y.y.y.y.y.y.y.y.y.y.y.y.y.y.y.y.y.y.y.y.y.y.y.y.y.y.y.y.y.y.y.y.y.y.y.y.y.y.y.y.y.y.y.y.y.y.y.y.",
"y.y.y.y.y.y.y.y.y.y.y.y.y.y.y.y.y.y.y.y.y.y.y.y.y.y.y.y.y.y.y.y.y.y.y.y.y.y.y.y.y.y.y.y.y.y.y.y.y.y.y.y.y.y.y.y.y.y.y.y.y.y.y.y.",
"y.y.y.y.y.y.y.y.y.y.y.y.y.y.y.y.y.y.y.y.y.y.y.y.y.y.y.y.y.y.y.y.y.y.y.y.y.y.y.y.y.y.y.y.y.y.y.y.y.y.y.y.y.y.y.y.y.y.y.y.y.y.y.y.",
"y.y.y.y.y.y.y.y.y.y.y.y.y.y.y.y.y.y.y.y.y.y.y.y.y.y.y.y.                y.y.y.y.y.y.y.y.y.y.y.y.y.y.y.y.y.y.y.y.y.y.y.y.y.y.y.y.",
"y.y.y.y.y.y.y.y.y.y.y.y.y.y.y.y.y.y.y.y.y.y.y.y.y.y.y.O # % % % % % % # O y.y.y.y.y.y.y.y.y.y.y.y.y.y.y.y.y.y.y.y.y.y.y.y.y.y.y.",
"y.y.y.y.y.y.y.y.y.y.y.y.y.y.y.y.y.y.y.y.y.y.y.y.y.X X @ 6 7 , , , , 7 0 @ X X y.y.y.y.y.y.y.y.y.y.y.y.y.y.y.y.y.y.y.y.y.y.y.y.y.",
"y.y.y.y.y.y.y.y.y.y.y.y.y.y.y.y.y.y.y.y.y.  y.y.o q 6 4 0 7 f J J d 7 0 4 6 q o y.y.  y.y.y.y.y.y.y.y.y.y.y.y.y.y.y.y.y.y.y.y.y.",
"y.y.y.y.y.y.y.y.y.y.y.y.y.y.y.y.y.y.y.y.y.  1 6 : v j 6 7 f H P P H f 7 8 j v ; 0 1   y.y.y.y.y.y.y.y.y.y.y.y.y.y.y.y.y.y.y.y.y.",
"y.y.y.y.y.y.y.y.y.y.y.y.y.y.+ y.y.y.y.y.y.  0 M r T b a d G J P K J G d g b T e m 0   y.y.y.y.y.y.+ y.y.y.y.y.y.y.y.y.y.y.y.y.y.",
"y.y.y.y.y.y.y.y.y.y.y.y.y.+ 4 y.y.  y.y.y.  0 m y | / K J d l P P l d K K ) $.r m 0   y.y.y.  y.y.4 + y.y.y.y.y.y.y.y.y.y.y.y.y.",
"y.y.y.y.y.y.y.y.y.y.y.  $ 1 6 = O & o       ; q M k ` =.I J l d d l H P =.! j M q <     . o & o * 6 2 #   y.y.y.y.y.y.y.y.y.y.y.",
"y.y.y.y.y.y.y.y.  o y.. = 6 4 * & - o @ = O = 5 j 3 E :./ I P P K P R / :.T 3 n 5 - O = O o - $ * 4 5 = X y.o   y.y.y.y.y.y.y.y.",
"y.y.y.y.y.y.y.y.  # q # = 6 : ; ; ; O < n < < 1 q 7 G ^ :.~ / :.:./ ~ :.^ G 7 w 2 < 1 y < O ; < ; : 5 = # 0 #   y.y.y.y.y.y.y.y.",
"y.y.y.y.y.y.y.y.  * B 5 5 5 : ; 1 5 ; $ = m q t M 4 Y | W I I R W I I W | Y 1 M e e m * $ ; 5 1 ; : 6 5 6 N *   y.y.y.y.y.y.y.y.",
"y.y.y.y.y.y.y.y.y.# : 5 e t 4 0 5 & @ o O 0 A U y 5 Q 2.{ W W { { ~ R { 2.Q 5 y A Z 0 + o $ & 4 0 4 t e 5 < # y.y.y.y.y.y.y.y.y.",
"y.y.y.y.    y.y.y.  . 2 u B q M 6 . @ @ # ; _ $.z j ` 3.3.W W ....W W 2.3.` g v [ ` ; # @ @   6 m e B u 2 .   y.y.y.    y.y.y.y.",
"y.y.y.y.      y.    . 1 u B q M 6 o y n 5 < &.8.:.R P ' q.L l P K l L q.' P W :.7.&.: 5 u y X 5 M e B y 2       y.      y.y.y.y.",
"y.y.y.y.  * 5 o     . q B B N V m 0 < 1 m 1 j ! 0.:.^ R ' ' T d p W ' ' T ^ :.0.! g 5 u 5 - 0 M B M B B 0 .     o 4 =   y.y.y.y.",
"y.y.y.y.  - t = # O . t V V V V V B 1 1 0 n 5 B %.3.` H P :...I I  .:.P H ) 1.%.B 5 y 5 1 1 B S V V V V t X + @ = t -   y.y.y.y.",
"y.y.y.y.  & 4 6 2 $ . e B B V V V V V 1 @ M t 1 5 >.( l J >.5.1.1.5.>.J l ` <.6 4 t M $ < V V V V V B B e . $ 2 6 5 &   y.y.y.y.",
"y.y.y.y.y.X @ 5 1 & . 1 t y N V V V V < O 1 5 4 1 Y ' ' i P =.9.q...L , ) { L 2 4 5 1 O < V V V V B y q 1 . & 1 5 O o y.y.y.y.y.",
"y.y.y.  .   o < < = & & ; 1 n N M 0 y 5 * @ v U s a ] 1.^ T ^ |  .^ I ^ 1.] a s U v + = 4 y 0 M N y 4 ; & $ - 1 < O       y.y.y.",
"y.y.y.  @ $ $ : < < = o O = 4 n e : 4 5 2   v ` / v ` 3.5.{ R P P W { 5.3.` x / ( x . 1 5 2 : e y 4 - O o - ; < < $ $ @   y.y.y.",
"y.y.y.. e u 0 0 1 ; ; o   o - 4 4 ; ; 2 1 . & U 9.2.' ' w.5.{ P P } 5.w.' ' 1.0.Z * . 1 4 : ; 4 4 - o   O - ; 1 q 6 u q   y.y.y.",
"y.y.y.y.$ ; q M q 1 < * O o o O = 5 < < ; * O : C 6.1. .] 8.5.:.*.6.6.]  .2.6.C : + * : < < 5 * + o . O = < 1 t M q : $ y.y.y.y.",
"y.y.y.y.y.$ : y n q ; 1 - O     o = $ $ $ $ o O 3 +.#._ ' 2.5.,.,.5.2.' _ #.+.4 O o $ # @ & - O     O = 1 ; q n y : # y.y.y.y.y.",
"y.y.y.y.y.y.O 1 n n < 0 1 - o               . O 1 V X.O.*.$.| :.:.| | *.O.X.V 1 +                 o - 4 0 ; y m 4 o y.y.y.y.y.y.",
"y.y.y.y.y.y.o ; t t < n q ; ; O     y.y.y.y.  O 4 @.r.t.D w h R R h r D t.r.@.4 +   y.y.y.y.    + - ; q n < n t ; X y.y.y.y.y.y.",
"y.y.y.y.y.y.+ 0 M m 4 e 5 < 4 ; +   y.y.y.y.y.O & S ;.r.e.F r 9 9 w F e.r.-.S * o y.y.y.y.y.  O - 4 < 5 e 4 m B q o y.y.y.y.y.y.",
"y.y.y.y.y.y.+ M V M q e 5 < 1 5 ; O y.y.y.y.y.y.X e F -.t.o.t ; ; t o.t.-.X.t o y.y.y.y.y.y.O < 5 4 < 5 t 6 M V M + y.y.y.y.y.y.",
"y.y.y.y.y.y.@ m V M q N w ; ; t y ; o y.y.y.y.y.X 2 m B B V t ; < t V V B u 2 X y.y.y.y.y.o ; y y ; : q B 8 M V m + y.y.y.y.y.y.",
"y.y.y.y.y.y.y.$ q M 0 B q < ; 6 y y O y.y.y.y.y.y.+ - 4 t B u 5 5 n N w 5 = + y.y.y.y.y.y.O y y 5 ; - e B 0 M q $ y.y.y.y.y.y.y.",
"y.y.y.y.y.y.y.  5 N m B y 1 < - 4 M # y.y.y.y.y.y.y.+ * 2 t t 0 0 t t 2 * O y.y.y.y.y.y.y.@ N 4 - < 1 y B m B 5   y.y.y.y.y.y.y.",
"y.y.y.y.y.y.y.  4 B B V n 0 < O & t O y.y.y.y.y.y.y.y.o * 4 6 5 5 6 4 * O y.y.y.y.y.y.y.y.+ w & O < 0 n V V B 4   y.y.y.y.y.y.y.",
"y.y.y.y.y.y.y.  : y V V B M < O . X   y.y.y.y.y.y.y.y.y.X : 4 : : 4 1 . y.y.y.y.y.y.y.y.y.  X . O < m V V V y ;   y.y.y.y.y.y.y.",
"y.y.y.y.y.y.y.  ; y V V V N y < @   y.y.y.y.y.y.y.y.y.y.y.# # O O # @ y.y.y.y.y.y.y.y.y.y.y.  + < n B V V V t ;   y.y.y.y.y.y.y.",
"y.y.y.y.y.y.y.  * 4 V V N y B y ;   y.y.y.y.y.y.y.y.y.y.y.y.        y.y.y.y.y.y.y.y.y.y.y.y.  - t V n M V V 5 *   y.y.y.y.y.y.y.",
"y.y.y.y.y.y.y.y.  = V V q 1 M B 0 . y.y.y.y.y.y.y.y.y.y.y.y.y.y.y.y.y.y.y.y.y.y.y.y.y.y.y.y.. 0 V M < q V V *   y.y.y.y.y.y.y.y.",
"y.y.y.y.y.y.y.y.  * B y ; o @ q t * o y.y.y.y.y.y.y.y.y.y.y.y.y.y.y.y.y.y.y.y.y.y.y.y.y.y.o * y q @ o < y B *   y.y.y.y.y.y.y.y.",
"y.y.y.y.y.y.y.y.y.$ 1 t 5 & . * - @ . y.y.y.y.y.y.y.y.y.y.y.y.y.y.y.y.y.y.y.y.y.y.y.y.y.y.. @ - * . & 1 t 1 $ y.y.y.y.y.y.y.y.y.",
"y.y.y.y.y.y.y.y.y.y.. 5 t 5 # .       y.y.y.y.y.y.y.y.y.y.y.y.y.y.y.y.y.y.y.y.y.y.y.y.y.y.      o @ 5 t 5 . y.y.y.y.y.y.y.y.y.y.",
"y.y.y.y.y.y.y.y.y.y.y.X < N 0 $   y.y.y.y.y.y.y.y.y.y.y.y.y.y.y.y.y.y.y.y.y.y.y.y.y.y.y.y.y.y.  $ 0 N < o y.y.y.y.y.y.y.y.y.y.y.",
"y.y.y.y.y.y.y.y.y.y.y.y.# & @ o   y.y.y.y.y.y.y.y.y.y.y.y.y.y.y.y.y.y.y.y.y.y.y.y.y.y.y.y.y.y.  o @ & $ y.y.y.y.y.y.y.y.y.y.y.y.",
"y.y.y.y.y.y.y.y.y.y.y.y.y.      y.y.y.y.y.y.y.y.y.y.y.y.y.y.y.y.y.y.y.y.y.y.y.y.y.y.y.y.y.y.y.y.      y.y.y.y.y.y.y.y.y.y.y.y.y.",
"y.y.y.y.y.y.y.y.y.y.y.y.y.y.y.y.y.y.y.y.y.y.y.y.y.y.y.y.y.y.y.y.y.y.y.y.y.y.y.y.y.y.y.y.y.y.y.y.y.y.y.y.y.y.y.y.y.y.y.y.y.y.y.y.",
"y.y.y.y.y.y.y.y.y.y.y.y.y.y.y.y.y.y.y.y.y.y.y.y.y.y.y.y.y.y.y.y.y.y.y.y.y.y.y.y.y.y.y.y.y.y.y.y.y.y.y.y.y.y.y.y.y.y.y.y.y.y.y.y.",
"y.y.y.y.y.y.y.y.y.y.y.y.y.y.y.y.y.y.y.y.y.y.y.y.y.y.y.y.y.y.y.y.y.y.y.y.y.y.y.y.y.y.y.y.y.y.y.y.y.y.y.y.y.y.y.y.y.y.y.y.y.y.y.y.",
"y.y.y.y.y.y.y.y.y.y.y.y.y.y.y.y.y.y.y.y.y.y.y.y.y.y.y.y.y.y.y.y.y.y.y.y.y.y.y.y.y.y.y.y.y.y.y.y.y.y.y.y.y.y.y.y.y.y.y.y.y.y.y.y.",
"y.y.y.y.y.y.y.y.y.y.y.y.y.y.y.y.y.y.y.y.y.y.y.y.y.y.y.y.y.y.y.y.y.y.y.y.y.y.y.y.y.y.y.y.y.y.y.y.y.y.y.y.y.y.y.y.y.y.y.y.y.y.y.y.",
"y.y.y.y.y.y.y.y.y.y.y.y.y.y.y.y.y.y.y.y.y.y.y.y.y.y.y.y.y.y.y.y.y.y.y.y.y.y.y.y.y.y.y.y.y.y.y.y.y.y.y.y.y.y.y.y.y.y.y.y.y.y.y.y.",
"y.y.y.y.y.y.y.y.y.y.y.y.y.y.y.y.y.y.y.y.y.y.y.y.y.y.y.y.y.y.y.y.y.y.y.y.y.y.y.y.y.y.y.y.y.y.y.y.y.y.y.y.y.y.y.y.y.y.y.y.y.y.y.y.",
"y.y.y.y.y.y.y.y.y.y.y.y.y.y.y.y.y.y.y.y.y.y.y.y.y.y.y.y.y.y.y.y.y.y.y.y.y.y.y.y.y.y.y.y.y.y.y.y.y.y.y.y.y.y.y.y.y.y.y.y.y.y.y.y."
};
