/* XPM */
static char *result[] = {
/* columns rows colors chars-per-pixel */
"64 64 12 1 ",
"  c #172B2F",
". c #433331",
"X c #4A3936",
"o c #2D4145",
"O c #365053",
"+ c #436D6C",
"@ c #579086",
"# c #6EBAA1",
"$ c #7AD4AC",
"% c #AAF0C5",
"& c #C9F6D2",
"* c None",
/* pixels */
"****************************************************************",
"****************************************************************",
"****************************************************************",
"****************************************************************",
"****************************************************************",
"****************************************************************",
"****************************************************************",
"****************************************************************",
"****************************************************************",
"****************************************************************",
"****************************************************************",
"****************************************************************",
"*********************************** ****************************",
"*********************************  & ***************************",
"*******************************  $$&% **************************",
"****************************** $@@&%%$ *************************",
"****************************  @@@@%%$$$ ************************",
"*************************** @@+++@%$$&$ ************************",
"*************************  ++++++$$$$$$$ ***********************",
"************************ O+++++++$###$$% ***********************",
"*********************** O+++#+++$#####$$$ **********************",
"*************       ** OO++++++$#######$$ **********************",
"************* ##@@++  OO+#+++++$##%##$##$$ *********************",
"************* O@@++++OOO++++++$$########## *********************",
"************* OO+++++OO++++@+$@@$##$###%### ********************",
"************* OOOo+++O@@++++@@@$@#####%%%## ********************",
"************* OOOOooOO@++++@@@@@@######%#$# ********************",
"************* O+O+Ooo@@+++@@@@@#@@######### ********************",
"************* OOOOOoo@@#+@@@$@@@@@###$####@@      **************",
"************** ooooooO+++@@$$$@@@@#######@@@@#$$%% *************",
"************** ooooooOO+++@@$@@@@@@#####@@@@####$$ *************",
"*************** o+oooOOOOO@@@@@@$@+@##@@@#@@#####@ *************",
"**************** ooooOOOOO##@#@@@@+@@@@@@@@#####@@ *************",
"***************** oooOOOOOO##@@@#+++@@@@@@@###@@@@ *************",
"***************.. oooO@OOOOO####O+++@@@#@@#@@@@@# **************",
"*************..... ooOOOOOOOO#OO++++#@@@@O@@@@@@@ **************",
"*************..X... oOOOO+OOOOO+++++#@@OOOOOO@@@ ***************",
"**************XXX... oOOOOOOOOO++#+++OOOOOOOOOO@ ***************",
"**************.X.... oO+OOOOOO++++++OOOOOOOooo  ****************",
"***************.XX.. ooOOOO@OO++++@++OOOOooo  .*****************",
"**************.XXXX. ooOOOOOOO+@+++++#+Ooo  ....****************",
"*************.XXXXX.. oOO@OOOO++++++++++O ...X...***************",
"*************.XXXXX.. ooOOOOOO@+++++++OOO ..XXX.****************",
"*************..XXX... ooooOOOO@++#+++OO  ....X.*****************",
"**************........  oooOO@@@++++OO .....********************",
"**************...X......  ooO@@@++OO  .....*********************",
"***************.XXX...X...  oo@+OO  ......**********************",
"****************.X...XXX....  OO  ...X...***********************",
"******************...XXXX.....  ....XXX*************************",
"********************..XXX............***************************",
"**********************............******************************",
"****************************************************************",
"****************************************************************",
"****************************************************************",
"****************************************************************",
"****************************************************************",
"****************************************************************",
"****************************************************************",
"****************************************************************",
"****************************************************************",
"****************************************************************",
"****************************************************************",
"****************************************************************",
"****************************************************************"
};
