/* XPM */
static char *result[] = {
/* columns rows colors chars-per-pixel */
"64 64 27 1 ",
"  c #040201",
". c #1C120A",
"X c #332010",
"o c #3B2412",
"O c #4B2E19",
"+ c #59371F",
"@ c #623E23",
"# c #6B4327",
"$ c #72472A",
"% c #764A2B",
"& c #794D2C",
"* c #7A4D2D",
"= c #7D4F2D",
"- c #845430",
"; c #8D5933",
": c #986137",
"> c #9D6438",
", c #9F6538",
"< c #A3683B",
"1 c #A86B3C",
"2 c #A86C3C",
"3 c #AE703E",
"4 c #B0713F",
"5 c #B67644",
"6 c #B87745",
"7 c #BB7A47",
"8 c None",
/* pixels */
"8888888888888888888888888888888888888888888888888888888888888888",
"&%>4677777777777777777777777777777777777777777777777777777764<%&",
",-$>44444444444444444444444444444444444444444444444444444444<%-1",
"54-$:333-o#233333333333333333333333333333333333333333$o=333>%-<1",
"573-$>33O .>33333333333333333333333333333333333333332X o33>%-2<>",
"5742-$:4*X+233333333333333333333333333333333333333332@X$4>%-23>>",
"57443-$>3<22323232323232323232323232323232323232323232<3<%-243>>",
"574>:2-$:>:>:>:>:>:>:>:>:>:>:>:>:>:>:>:>:>:>:>:>:>:>::>>%-2:>3>>",
"57>o.=2-$*%%%%%%%*=============================%%%%%%%*$-2-.X:<>",
"57;. @2>%-;;;;;:;#+OOOOOOOOOOOOOOOOOOOOOOOOOOO@-;;;;;;-$>6$ .-<>",
"572$@><:*>44<2467:@+@@@@++@#@@@@@@@@++##@@@@@@;6643<24<%27<@#2>>",
"574334<:*>4=X+2467:#%***$#-;********$#-;***%#;6644-X+<<%263333>>",
"574333<:*>4O .>3367:#%**$#-;********$#--**%#;66333+ .;<%263333>>",
"574333<:*>4-o@233367:#%*$#-;********$#--*%#;664334;o@2<%263334>>",
"574333<:*>43233333367:#%$#-;********$#-;%#;66333333233<%263333>>",
"574333<:*:233333333367:###-;********$#--#;664333333332:%263334>>",
"574333<:*:>233333333367:##-;********$#=$;663333333332>:%263333>>",
"574333<>%%:>233333333367:#=;********$##;664333333332>:*$363334>>",
"574333<>$+$:>233333333367:$-********$#;664333333332>:*+#463333>>",
"574333<>$OO$:>233333333367:$%******%#;664333333332>:*Oo#463334>>",
"574333<>%@oO$:>233333333367:#%****%#;664333333332>:*Oo+%463333>>",
"574333<>*%@oO$:>233333333367:#%**%#;664333333332>:*Oo+%%463334>>",
"574333<>*%*@oO$:>233333333367:#%%#;664333333332>:*Oo+**%463333>>",
"574333<>*%**@oO%:>233333333367:##;664333333332>:%Oo@***%463334>>",
"574333<>*%**%+oO$:>233333333366;;664333333332>:*Oo#-***%463333>>",
"574333<>*%**%#@oO$:>233333333342664333333332>:*Oo+;-**%%463334>>",
"574333<>*%**%#-$oO$:>2333333333664333333332>:*Oo+$;-***%463333>>",
"574333<>*%**%#-;@oO$:>23333333664333333332>:*Oo+#$;-**%%463334>>",
"574333<>*%**%#-;*@oO$:>233333664333333332>:*Oo+*#$;-***%463333>>",
"574333<>*%**%#-;**@oO$:>2333664333333332>:*Oo+**#$;-**%%463334>>",
"574333<>*%**%#-;***@oO$:>23664333333332>:*Oo+***#$;-***%463333>>",
"574333<>*%**%#-;****@oO$>2664333333332>:%Oo+****#$;-**%%463334>>",
"574333<>*%**%#-;*****@O@:664333333332>>:@O+*****#$;-***%463333>>",
"574333<>*%**%#-;*****$#;664333333332>>24:#$*****#$;-**%%463334>>",
"574333<>*%**%#-;****%#;664333333332>>2367:#%****#$;-***%463333>>",
"574333<>*%**%#-;***%#;664333333332>>233367:#%***#$;-**%%463334>>",
"574333<>*%**%#-;**%#;664333333332>>23333347:#%**#$;-***%463333>>",
"574333<>*%**%#-;*%#;664333333332>>2333333367:#%*#$;-**%%463334>>",
"574333<>*%**%#-;%#;664333333332>>233333333347:#%#$;-***%463333>>",
"574333<>*%**%#--#;664333333332>:><<33333333367:##$;-**%%463334>>",
"574333<>*%**%#*$;664333333332>:*%:><33333333347:#$;-***%463333>>",
"574333<>*%**%@#;664333333332>:*OO$:><33333333367:#--**%%463334>>",
"574333<>*%**$#;674333333332>:*OooO$:><33333333347:$****%463333>>",
"574333<>*%*%#;664333333332>:*Oo+@oO$:><33333333367:#%**%463334>>",
"574333<>*%%#;674333333332>:*Oo+**@oO$:><33333333347:#%*%463333>>",
"574333<>*$#;674333333332>:*Oo+****@oO$:><33333333367:#$%463334>>",
"574333<>%#;664333333332>:*Oo+******@oO$:><33333333347:#$463333>>",
"574333<>%-674333333332>:%Oo@********@oO%:><33333333367;$363334>>",
"574333<:*<64333333332>:*Oo@;********$+oO$:><33333333342%263333>>",
"574333<:*>4434333332>:*OoO-;********$##oO$:><333334443<%263334>>",
"574333<:*>4:@=33332>:*Oo+#-;********$#-#oO$:><3334>@=2<%263333>>",
"574333<:*>4+ .>332>:*Oo+$#-;********$#--@oO$::<333@ .:<%263333>>",
"574443<:*>4#.o<32>:*Oo+*$#-;********$#-;*@oO$::<34%.o><%263443>>",
"573;-2<:*>42;>32>:*Oo+%*$#-;********$#--**@oO$::<32;>3<%272-;3>>",
"57:. $<>*:333332>*Oo+%**$#-;********$#--***@oO$:<23333<%27* .;<>",
"57:. #2:#$%%%%%%$#@@#$$$$#$%$$$$$$$$##%%$$$$@@#$%%%%%%$#:6% .;<>",
"573-*<<%=:>>>>>>><<<<<<<<<<<<<<<<<<<<<<<<<<<<<<>>>>>>>:-$>2*-2>>",
"57444<%-267777777777777777777777777777777777777777777774-$>443>>",
"5743>%-2;+*333333333333333333333333333333333333333333=O;2-$>33>>",
"564>%-23O .<33333333333333333333333333333333333333332X o33-$>3<>",
"54>%-233#.O233333333333333333333333333333333333333332+.@332-%>31",
"5<%-23332:23333333333333333333333333333333333333333332:23333-$>1",
",%-2<<<<<<<<<<<<<<<<<<<<<<<<<<<<<<<<<<<<<<<<<<<<<<<<<<<<<<<<2-%>",
"&=22>>>>>>>>>>>>>>>>>>>>>>>>>>>>>>>>>>>>>>>>>>>>>>>>>>>>>>>>22-*"
};
