/* XPM */
static char *result[] = {
/* columns rows colors chars-per-pixel */
"64 64 21 1 ",
"  c black",
". c #13191B",
"X c #0A112B",
"o c #19323E",
"O c #401A22",
"+ c #5A2F3D",
"@ c #252744",
"# c #343D5F",
"$ c #075652",
"% c #017E4B",
"& c #90352F",
"* c #C3502A",
"= c #A24C57",
"- c #D56A62",
"; c #FFAF6D",
": c #FFEF7D",
"> c #376887",
", c #65709C",
"< c #FFC3A1",
"1 c #A3A8C4",
"2 c None",
/* pixels */
"2222222222222222222222222222222222222222222222222222222222222222",
"2222222222222222222222222222222222222222222222222222222222222222",
"2222222222222222222222222222222222222222222222222222222222222222",
"2222222222222222222222222222222222222222222222222222222222222222",
"2222222222222222222222222222222222222222222222222222222222222222",
"2222222222222222222222222222222222222222222222222222222222222222",
"2222222222222222222222222222222222222222222222222222222222222222",
"2222222222222222222222222222222222222222222222222222222222222222",
"2222222222222222222222222222222222222222222222222222222222222222",
"2222222222222222222222222222222222222222222222222222222222222222",
"2222222222222222222222222222222222222222222222222222222222222222",
"2222222222222222222222222222222222222222222222222222222222222222",
"2222222222222222222222222222222222222222222222222222222222222222",
"2222222222222222222222222222222222222222222222222222222222222222",
"2222222222222222222222222222222222222222222222222222222222222222",
"2222222222222222222222222222222222222222222222222222222222222222",
"2222222222222222222222222222222222222222222222222222222222222222",
"2222222222222222222222222222      222222222222222222222222222222",
"22222222222222222222222222  ::::;;   222222222222222222222222222",
"222222222222222222222222  ::;;;;::;:: 22222222222222222222222222",
"22222222222222222222222 :;;;;;;;;;:;;: 2222222222222222222222222",
"222222222222222222222  ;;-;;;;;;;;;:;: 2222222222222222222222222",
"22222222222222222222 ;    =---;;;;;:   2222222222222222222222222",
"2222222222222222222 : :;;;   =---   << 2222222222222222222222222",
"2222222222222222222 ; :;;;;::  = <<<### 222222222222222222222222",
"2222222222222222222   :;;;;;;:: <<  #<< 222222222222222222222222",
"222222222222222222 XX ;;;;;;;; << -;  < 222222222222222222222222",
"222222222222222222 X  -;;;-;;; <<   ;: < 22222222222222222222222",
"222222222222222222  - -;;;=;; <<<#<#   < 22222222222222222222222",
"22222222222222222 :-= --;;;-- <<#< <#<<- 22222222222222222222222",
"22222222222222222 ;-  =--;;-= -<#< <#<<- 22222222222222222222222",
"222222222222222222  22 =--;= - <<#<#<<<- 22222222222222222222222",
"22222222222222222222222 ==- -; -<<<      22222222222222222222222",
"222222222222222222222222  = --; -  ;;;;;: 2222222222222222222222",
"22222222222222222222222 << =-=-; ;;;;;;;: 2222222222222222222222",
"22222222222222222222222 <<< =-;;;;;;;;;;: 2222222222222222222222",
"22222222222222222222222 <<< =--;;;;;;;  : 2222222222222222222222",
"2222222222222222222222 <<<<< =---;;;;;;;: 2222222222222222222222",
"2222222222222222222222 <<<<<< =-=;;;;;;;: 2222222222222222222222",
"222222222222222222222 <<<<-<< == -;;;;;;; 2222222222222222222222",
"222222222222222222222 <<<- -<< = =;-;;;;; 2222222222222222222222",
"22222222222222222222 * <- ==-<<  =- -;;;; 2222222222222222222222",
"22222222222222222222 & - =-<-<<<< = --;; 22222222222222222222222",
"2222222222222222222 *&& =-<<=-<<<<  =-;- 22222222222222222222222",
"222222222222222   2 *&O --<<<<=---<  =- 222222222222222222222222",
"22222222222222 &&&  *&  -<<<<<<<    O  2222222222222222222222222",
"222222222222222   & && &        ,>>>   2222222222222222222222222",
"222222222222222222  &O  &&&&&&& #,,> $ 2222222222222222222222222",
"22222222222222222222  2         @#,> $ 2222222222222222222222222",
"22222222222222222222222 &&&OOO  @#,> % 2222222222222222222222222",
"22222222222222222222222       oo #,> % 2222222222222222222222222",
"22222222222222222222222 .ooooooo #, $% 2222222222222222222222222",
"22222222222222222222222 .ooooooo #, $% 2222222222222222222222222",
"222222222222222222222222 .ooooo @#> o% 2222222222222222222222222",
"22222222222222222222222 1  oo  @#,> o$% 222222222222222222222222",
"22222222222222222222222 1#@  @@#,,> o$% 222222222222222222222222",
"22222222222222222222222  1#@@##,,,,>  % 222222222222222222222222",
"22222222222222222222222  11,,,,,,,,,>> + 22222222222222222222222",
"22222222222222222222222 +  111,,,,,,,, + 22222222222222222222222",
"2222222222222222222222 +++    11111111 + 22222222222222222222222",
"2222222222222222222222 +++ 222        +++ 2222222222222222222222",
"2222222222222222222222 ++ 222222222222 ++ 2222222222222222222222",
"2222222222222222222222 ++ 222222222222 ++ 2222222222222222222222",
"22222222222222222222222   2222222222222   2222222222222222222222"
};
